nimbus-sans-l_regular-condensed.sfdir

StartChar: exclam
Encoding: 33 33 1
Width: 228
Flags: MW
HStem: 0 102<74 153 74 153> 698 20<74 153 153 153>
VStem: 74 79<0 102 0 102 481 718>
LayerCount: 2
Fore
SplineSet
153 102 m 1
 153 0 l 1
 74 0 l 1
 74 102 l 1
 153 102 l 1
133 171 m 1
 94 171 l 1
 74 481 l 1
 74 718 l 1
 153 718 l 1
 153 481 l 1
 133 171 l 1
EndSplineSet
EndChar

StartChar: quotedbl
Encoding: 34 34 2
Width: 291
Flags: MW
HStem: 463 255<57 117 57 117 174 234 57 174>
VStem: 57 60<463 718 463 718> 174 60<463 718 463 718>
LayerCount: 2
Fore
SplineSet
57 463 m 1
 57 718 l 1
 117 718 l 1
 117 463 l 1
 57 463 l 1
174 463 m 1
 174 718 l 1
 234 718 l 1
 234 463 l 1
 174 463 l 1
EndSplineSet
EndChar

StartChar: numbersign
Encoding: 35 35 3
Width: 456
Flags: MW
HStem: 0 20 210 63<30 107 23 115 169 264 30 162 326 403> 415 63<53 130 46 138 53 185 193 287 350 427>
LayerCount: 2
Fore
SplineSet
318 210 m 1
 295 0 l 1
 240 0 l 1
 264 210 l 1
 162 210 l 1
 138 0 l 1
 84 0 l 1
 107 210 l 1
 23 210 l 1
 30 273 l 1
 115 273 l 1
 130 415 l 1
 46 415 l 1
 53 478 l 1
 138 478 l 1
 162 688 l 1
 217 688 l 1
 193 478 l 1
 295 478 l 1
 318 688 l 1
 373 688 l 1
 350 478 l 1
 434 478 l 1
 427 415 l 1
 342 415 l 1
 326 273 l 1
 410 273 l 1
 403 210 l 1
 318 210 l 1
287 415 m 1
 185 415 l 1
 169 273 l 1
 272 273 l 1
 287 415 l 1
EndSplineSet
EndChar

StartChar: dollar
Encoding: 36 36 4
Width: 456
Flags: MW
VStem: 38 72<492 547.5> 208 38<-115 -19 -115 -19 54 308 409 638 711 775> 355 72<158.5 205>
LayerCount: 2
Fore
SplineSet
412 521 m 1
 343 521 l 1
 335 591 310 622 246 638 c 1
 246 399 l 1
 330 369 357 356 386 328 c 0
 412 302 427 256 427 197 c 0
 427 115 401 52 350 15 c 0
 319 -7 294 -16 246 -19 c 1
 246 -115 l 1
 208 -115 l 1
 208 -19 l 1
 84 -10 27 63 26 213 c 1
 98 213 l 1
 104 103 126 71 208 54 c 1
 208 319 l 1
 142 339 115 352 87 379 c 0
 55 409 38 456 38 512 c 0
 38 583 65 643 114 679 c 1
 142 701 164 708 208 711 c 1
 208 775 l 1
 246 775 l 1
 246 711 l 1
 354 699 406 639 412 521 c 1
208 409 m 1
 208 638 l 1
 146 634 110 591 110 522 c 0
 110 462 141 426 208 409 c 1
246 308 m 1
 246 54 l 1
 279 56 296 62 315 78 c 0
 340 100 355 138 355 179 c 0
 355 231 329 276 290 291 c 2
 246 308 l 1
EndSplineSet
EndChar

StartChar: percent
Encoding: 37 37 5
Width: 729
Flags: W
HStem: -19 20 -7 53<551 595 551 612> 314 53<551.5 595.5> 321 53<134 178 134 195> 642 53<134.5 178.5>
VStem: 32 57<464 552.5 464 567.5> 223 57<464 551.5> 449 57<136 224.5 136 240> 640 57<136 223.5>
LayerCount: 2
Fore
SplineSet
157 695 m 0x9f80
 234 695 280 625 280 507 c 0
 280 390 234 321 156 321 c 0
 77 321 32 389 32 508 c 0
 32 627 77 695 157 695 c 0x9f80
157 642 m 0
 112 642 89 597 89 508 c 0
 89 420 112 374 156 374 c 0
 200 374 223 420 223 508 c 0
 223 595 200 642 157 642 c 0
549 703 m 1
 224 -19 l 1
 180 -19 l 1
 503 703 l 1
 549 703 l 1
574 367 m 0x6780
 651 367 697 297 697 180 c 0
 697 62 651 -7 573 -7 c 0
 494 -7 449 61 449 180 c 0
 449 300 494 367 574 367 c 0x6780
574 314 m 0
 529 314 506 269 506 180 c 0
 506 92 529 46 573 46 c 0
 617 46 640 92 640 180 c 0
 640 267 617 314 574 314 c 0
EndSplineSet
EndChar

StartChar: ampersand
Encoding: 38 38 6
Width: 547
Flags: W
HStem: -15 77<186.5 242 186.5 246.5> 641 77<223 263>
VStem: 36 72<148 214 148 230.5> 107 70<546.5 588 546.5 604> 308 70<540.5 587.5>
LayerCount: 2
Fore
SplineSet
424 155 m 1xd8
 529 0 l 1
 436 0 l 1
 381 82 l 1
 327 10 282 -15 211 -15 c 0
 102 -15 36 60 36 184 c 0xe0
 36 277 65 324 169 399 c 1
 119 475 107 504 107 556 c 0
 107 652 164 718 247 718 c 0
 325 718 378 658 378 569 c 0
 378 495 351 448 272 382 c 1
 380 226 l 1
 393 269 396 286 404 338 c 1
 472 338 l 1
 467 276 452 220 424 155 c 1xd8
342 141 m 1
 209 339 l 1
 129 276 108 245 108 183 c 0
 108 113 155 62 218 62 c 0
 266 62 306 87 342 141 c 1
235 439 m 1xd8
 289 485 308 517 308 564 c 0
 308 611 283 641 243 641 c 0
 203 641 177 611 177 565 c 0
 177 528 195 489 235 439 c 1xd8
EndSplineSet
EndChar

StartChar: quotesingle
Encoding: 169 39 103
Width: 157
Flags: MW
HStem: 463 255<48 108 48 108>
VStem: 48 60<463 718 463 718>
LayerCount: 2
Fore
SplineSet
48 463 m 1
 48 718 l 1
 108 718 l 1
 108 463 l 1
 48 463 l 1
EndSplineSet
EndChar

StartChar: parenleft
Encoding: 40 40 8
Width: 273
Flags: MW
HStem: -207 20 713 20<194 244 244 244>
VStem: 56 77<181.5 342.5 177 343.5>
LayerCount: 2
Fore
SplineSet
194 733 m 1
 244 733 l 1
 157 533 133 431 133 254 c 0
 133 100 155 12 245 -207 c 1
 197 -207 l 1
 87 -3 56 101 56 262 c 0
 56 425 92 548 194 733 c 1
EndSplineSet
EndChar

StartChar: parenright
Encoding: 41 41 9
Width: 273
Flags: MW
HStem: -207 20 713 20<28 76 76 76>
VStem: 140 77<183.5 344.5 183 348.5>
LayerCount: 2
Fore
SplineSet
79 -207 m 1
 29 -207 l 1
 116 -6 140 95 140 272 c 0
 140 425 119 514 28 733 c 1
 76 733 l 1
 186 528 217 425 217 264 c 0
 217 102 181 -21 79 -207 c 1
EndSplineSet
EndChar

StartChar: asterisk
Encoding: 42 42 10
Width: 319
Flags: MW
HStem: 505 20<159 159> 698 20<134 183 183 183>
VStem: 134 49<608 718 608 718>
LayerCount: 2
Fore
SplineSet
32 591 m 1
 48 646 l 1
 134 608 l 1
 134 718 l 1
 183 718 l 1
 183 608 l 1
 269 646 l 1
 286 591 l 1
 197 557 l 1
 252 465 l 1
 212 431 l 1
 159 525 l 1
 105 431 l 1
 65 465 l 1
 120 557 l 1
 32 591 l 1
EndSplineSet
EndChar

StartChar: plus
Encoding: 43 43 11
Width: 479
Flags: MW
HStem: 0 20 216 73<32 210 32 210 270 447 32 270>
VStem: 210 60<0 216 0 216 289 505>
LayerCount: 2
Fore
SplineSet
210 289 m 1
 210 505 l 1
 270 505 l 1
 270 289 l 1
 447 289 l 1
 447 216 l 1
 270 216 l 1
 270 0 l 1
 210 0 l 1
 210 216 l 1
 32 216 l 1
 32 289 l 1
 210 289 l 1
EndSplineSet
EndChar

StartChar: comma
Encoding: 44 44 12
Width: 228
Flags: MW
HStem: 0 107<71 157 71 115>
VStem: 71 86<-147 8 -101 8 0 8 8 107>
LayerCount: 2
Fore
SplineSet
71 0 m 1
 71 107 l 1
 157 107 l 1
 157 8 l 2
 157 -82 128 -134 71 -147 c 1
 71 -101 l 1
 100 -97 114 -64 115 0 c 1
 71 0 l 1
EndSplineSet
EndChar

StartChar: hyphen
Encoding: 45 45 13
Width: 273
Flags: MW
HStem: 232 90<36 237 36 237>
VStem: 36 201<232 322 232 322>
LayerCount: 2
Fore
SplineSet
237 322 m 1
 237 232 l 1
 36 232 l 1
 36 322 l 1
 237 322 l 1
EndSplineSet
EndChar

StartChar: period
Encoding: 46 46 14
Width: 228
Flags: MW
HStem: 0 107<71 157 71 157>
VStem: 71 86<0 107 0 107>
LayerCount: 2
Fore
SplineSet
157 107 m 1
 157 0 l 1
 71 0 l 1
 71 107 l 1
 157 107 l 1
EndSplineSet
EndChar

StartChar: slash
Encoding: 47 47 15
Width: 228
Flags: MW
HStem: -19 20 717 20<188 242 242 242>
LayerCount: 2
Fore
SplineSet
242 737 m 1
 41 -19 l 1
 -14 -19 l 1
 188 737 l 1
 242 737 l 1
EndSplineSet
EndChar

StartChar: zero
Encoding: 48 48 16
Width: 456
Flags: MW
HStem: -19 78<188.5 267.5 188.5 291> 625 78<189 268>
VStem: 30 77<250 435.5 250 458.5> 349 77<250 434.5>
LayerCount: 2
Fore
SplineSet
230 703 m 0
 354 703 426 570 426 341 c 0
 426 112 354 -19 228 -19 c 0
 102 -19 30 112 30 343 c 0
 30 574 102 703 230 703 c 0
229 625 m 0
 149 625 107 528 107 343 c 0
 107 157 149 59 228 59 c 0
 307 59 349 157 349 343 c 0
 349 526 307 625 229 625 c 0
EndSplineSet
EndChar

StartChar: one
Encoding: 49 49 17
Width: 456
Flags: MW
HStem: 0 20
VStem: 217 77<0 499 499 499>
LayerCount: 2
Fore
SplineSet
294 703 m 1
 294 0 l 1
 217 0 l 1
 217 499 l 1
 83 499 l 1
 83 569 l 1
 190 577 215 599 238 703 c 1
 294 703 l 1
EndSplineSet
EndChar

StartChar: two
Encoding: 50 50 18
Width: 456
Flags: MW
HStem: 0 83<102 416 102 416 21 416> 625 78<196.5 259.5>
VStem: 339 77<476 533.5>
LayerCount: 2
Fore
SplineSet
108 451 m 1
 36 451 l 1
 38 532 47 572 72 615 c 0
 103 670 162 703 231 703 c 0
 342 703 416 618 416 492 c 0
 416 438 402 393 375 354 c 1
 353 325 324 300 262 258 c 2
 202 218 l 2
 144 179 108 131 102 83 c 1
 416 83 l 1
 416 0 l 1
 21 0 l 1
 26 131 66 214 156 279 c 1
 233 333 l 2
 281 367 300 384 313 403 c 0
 330 427 339 458 339 494 c 0
 339 573 294 625 225 625 c 0
 149 625 114 573 108 451 c 1
EndSplineSet
EndChar

StartChar: three
Encoding: 51 51 19
Width: 456
Flags: W
HStem: -19 78<201.5 261.5 201.5 285.5> 325 73<216.5 226 216 255> 625 78<192 257.5>
VStem: 331 75<481 546> 351 77<155.5 237>
LayerCount: 2
Fore
SplineSet
184 324 m 1xe8
 184 400 l 1
 198 399 213 398 220 398 c 0
 290 398 331 439 331 511 c 0
 331 581 290 625 225 625 c 0
 153 625 120 581 113 473 c 1
 42 473 l 1
 45 545 53 582 76 622 c 0
 107 675 158 703 226 703 c 0
 335 703 406 630 406 517 c 0xf0
 406 445 380 396 330 372 c 1
 400 340 428 293 428 207 c 0
 428 70 347 -19 224 -19 c 0
 171 -19 123 -1 90 31 c 0
 52 69 36 118 28 215 c 1
 103 215 l 1
 106 159 112 133 127 108 c 0
 147 76 180 59 223 59 c 0
 300 59 351 114 351 197 c 0
 351 277 304 325 226 325 c 2
 216 325 l 1
 206 324 199 324 184 324 c 1xe8
EndSplineSet
EndChar

StartChar: four
Encoding: 52 52 20
Width: 456
Flags: MW
HStem: 0 20 171 77<86 272 86 272 20 272 344 429 86 344>
VStem: 272 72<0 171 0 171 248 569 569 569>
LayerCount: 2
Fore
SplineSet
429 171 m 1
 344 171 l 1
 344 0 l 1
 272 0 l 1
 272 171 l 1
 20 171 l 1
 20 258 l 1
 284 703 l 1
 344 703 l 1
 344 248 l 1
 429 248 l 1
 429 171 l 1
272 569 m 1
 86 248 l 1
 272 248 l 1
 272 569 l 1
EndSplineSet
EndChar

StartChar: five
Encoding: 53 53 21
Width: 456
Flags: MW
HStem: -19 77<199 245.5> 374 78<209.5 255> 601 87<145 145 145 389>
VStem: 344 77<191.5 265>
LayerCount: 2
Fore
SplineSet
145 601 m 1
 120 408 l 1
 156 439 188 452 231 452 c 0
 340 452 421 356 421 226 c 0
 421 157 401 92 365 47 c 0
 331 5 277 -19 214 -19 c 0
 143 -19 89 10 57 66 c 0
 40 96 33 121 26 175 c 1
 101 175 l 1
 105 141 110 124 123 105 c 0
 143 75 179 58 219 58 c 0
 293 58 344 124 344 219 c 0
 344 311 293 374 217 374 c 0
 174 374 142 354 110 307 c 1
 47 311 l 1
 91 688 l 1
 389 688 l 1
 389 601 l 1
 145 601 l 1
EndSplineSet
EndChar

StartChar: six
Encoding: 54 54 22
Width: 456
Flags: MW
HStem: -19 79<200.5 262> 370 78<211 270.5> 625 78<222 271.5>
VStem: 31 85<212.5 264 170.5 441> 350 75<188 264>
LayerCount: 2
Fore
SplineSet
413 516 m 1
 342 516 l 1
 329 592 299 625 244 625 c 0
 200 625 167 600 142 546 c 0
 119 498 109 447 105 358 c 1
 137 420 180 448 242 448 c 0
 350 448 425 356 425 223 c 0
 425 153 408 98 370 49 c 0
 333 1 292 -19 232 -19 c 0
 103 -19 31 103 31 322 c 0
 31 560 111 703 243 703 c 0
 304 703 357 671 386 618 c 0
 402 589 408 565 413 516 c 1
236 370 m 0
 162 370 116 311 116 217 c 0
 116 124 165 60 236 60 c 0
 304 60 350 124 350 218 c 0
 350 310 305 370 236 370 c 0
EndSplineSet
EndChar

StartChar: seven
Encoding: 55 55 23
Width: 456
Flags: MW
HStem: 0 20 601 87<30 429 30 348>
LayerCount: 2
Fore
SplineSet
30 601 m 1
 30 688 l 1
 429 688 l 1
 429 610 l 1
 307 444 228 242 192 0 c 1
 112 0 l 1
 137 199 222 416 348 601 c 1
 30 601 l 1
EndSplineSet
EndChar

StartChar: eight
Encoding: 56 56 24
Width: 456
Flags: W
HStem: -19 78<193.5 268.5 193.5 289> 330 76<197.5 255.5 197.5 265> 625 78<194 256>
VStem: 31 77<154.5 237 154.5 240> 51 75<484 550 484 567.5> 328 75<485.5 550> 347 77<148.5 219.5 135.5 234>
LayerCount: 2
Fore
SplineSet
129 373 m 1xf2
 75 402 51 444 51 510 c 0
 51 625 122 703 226 703 c 0
 331 703 403 629 403 519 c 0xec
 403 450 382 408 330 374 c 1
 369 351 386 333 403 300 c 0
 417 272 424 238 424 201 c 0
 424 70 346 -19 232 -19 c 0
 111 -19 31 66 31 195 c 0
 31 285 57 333 129 373 c 1xf2
228 330 m 0
 156 330 108 277 108 197 c 0
 108 112 156 59 231 59 c 0
 306 59 347 106 347 191 c 0
 347 277 302 330 228 330 c 0
225 625 m 0xec
 163 625 126 584 126 516 c 0
 126 452 169 406 226 406 c 0
 285 406 328 453 328 518 c 0
 328 582 287 625 225 625 c 0xec
EndSplineSet
EndChar

StartChar: nine
Encoding: 57 57 25
Width: 456
Flags: MW
HStem: -19 73<181 229 181 242> 235 78<186 245.5> 625 78<188 258.5>
VStem: 34 75<413.5 513 413.5 534> 336 85<421 484.5 318 518.5>
LayerCount: 2
Fore
SplineSet
41 169 m 1
 113 169 l 1
 120 92 152 54 210 54 c 0
 248 54 277 72 300 113 c 0
 323 154 336 208 350 325 c 1
 324 266 277 235 214 235 c 0
 106 235 34 326 34 462 c 0
 34 606 109 703 222 703 c 0
 351 703 421 590 421 379 c 0
 421 257 399 146 360 78 c 0
 323 12 275 -19 209 -19 c 0
 109 -19 47 51 41 169 c 1
224 625 m 0
 152 625 109 564 109 462 c 0
 109 365 149 313 223 313 c 0
 294 313 336 371 336 471 c 0
 336 566 293 625 224 625 c 0
EndSplineSet
EndChar

StartChar: colon
Encoding: 58 58 26
Width: 228
Flags: MW
HStem: 0 107<71 157 71 157> 409 107<71 157 71 157>
VStem: 71 86<0 107 0 107 409 516>
LayerCount: 2
Fore
SplineSet
157 107 m 1
 157 0 l 1
 71 0 l 1
 71 107 l 1
 157 107 l 1
157 516 m 1
 157 409 l 1
 71 409 l 1
 71 516 l 1
 157 516 l 1
EndSplineSet
EndChar

StartChar: semicolon
Encoding: 59 59 27
Width: 228
Flags: MW
HStem: 0 107<71 157 71 115> 409 107<71 157 71 157>
VStem: 71 86<-147 8 -101 8 0 8 8 107 409 516>
LayerCount: 2
Fore
SplineSet
71 0 m 1
 71 107 l 1
 157 107 l 1
 157 8 l 2
 157 -82 128 -134 71 -147 c 1
 71 -101 l 1
 100 -97 114 -64 115 0 c 1
 71 0 l 1
157 409 m 1
 71 409 l 1
 71 516 l 1
 157 516 l 1
 157 409 l 1
EndSplineSet
EndChar

StartChar: less
Encoding: 60 60 28
Width: 479
Flags: W
LayerCount: 2
Fore
SplineSet
440 10 m 1
 39 217 l 1
 39 289 l 1
 440 496 l 1
 440 414 l 1
 121 253 l 1
 440 92 l 1
 440 10 l 1
EndSplineSet
EndChar

StartChar: equal
Encoding: 61 61 29
Width: 479
Flags: MW
HStem: 115 73<32 447 32 447> 317 73<32 447 32 447>
LayerCount: 2
Fore
SplineSet
447 390 m 1
 447 317 l 1
 32 317 l 1
 32 390 l 1
 447 390 l 1
447 188 m 1
 447 115 l 1
 32 115 l 1
 32 188 l 1
 447 188 l 1
EndSplineSet
EndChar

StartChar: greater
Encoding: 62 62 30
Width: 479
Flags: W
LayerCount: 2
Fore
SplineSet
39 10 m 1
 39 92 l 1
 358 253 l 1
 39 414 l 1
 39 496 l 1
 440 289 l 1
 440 217 l 1
 39 10 l 1
EndSplineSet
EndChar

StartChar: question
Encoding: 63 63 31
Width: 456
Flags: MW
HStem: 0 102<181 261 181 261> 650 77<201.5 257>
VStem: 181 80<0 102 0 102> 326 77<508 568>
LayerCount: 2
Fore
SplineSet
118 493 m 1
 46 493 l 1
 49 583 59 618 89 658 c 1
 124 702 174 727 229 727 c 0
 331 727 403 647 403 532 c 0
 403 471 389 439 326 366 c 0
 263 294 255 271 255 183 c 1
 183 183 l 1
 184 287 194 315 260 398 c 0
 319 471 326 485 326 531 c 0
 326 605 288 650 226 650 c 0
 154 650 120 600 118 493 c 1
261 102 m 1
 261 0 l 1
 181 0 l 1
 181 102 l 1
 261 102 l 1
EndSplineSet
EndChar

StartChar: at
Encoding: 64 64 32
Width: 832
Flags: W
HStem: -19 62<363 454 363 468> 136 65<499 571> 136 72<358.5 379> 500 72<401.5 451.5> 675 62<360 496.5>
VStem: 121 60<267.5 447 267.5 464.5> 243 67<275 352.5 275 374> 659 53<384 493>
LayerCount: 2
Fore
SplineSet
527 494 m 1x37
 543 556 l 1
 599 556 l 1
 581 477 574 446 560 392 c 0
 535 288 525 243 525 228 c 0
 525 210 530 201 542 201 c 0
 600 201 659 312 659 420 c 0
 659 566 562 675 431 675 c 0
 289 675 181 538 181 356 c 0
 181 179 291 43 435 43 c 0
 473 43 510 53 546 74 c 0
 582 94 602 112 635 157 c 1
 690 157 l 1
 664 109 650 90 624 64 c 0
 570 10 503 -19 433 -19 c 0
 259 -19 121 149 121 360 c 0
 121 569 259 737 431 737 c 0
 588 737 712 599 712 424 c 0
 712 344 686 268 639 210 c 0
 602 165 554 136 514 136 c 0xdf
 484 136 466 158 464 200 c 1
 427 155 397 136 361 136 c 0
 294 136 243 207 243 301 c 0
 243 447 330 572 432 572 c 0
 476 572 503 550 527 494 c 1x37
433 500 m 0
 370 500 310 403 310 302 c 0
 310 248 339 208 378 208 c 0x37
 413 208 446 237 472 290 c 0
 489 325 501 372 501 406 c 0
 501 458 470 500 433 500 c 0
EndSplineSet
EndChar

StartChar: B
Encoding: 66 66 34
Width: 547
Flags: W
HStem: 0 83<61 311 141 311 311 315> 336 78<141 284 141 284 284 297> 635 83<141 141 141 285>
VStem: 61 80<83 336 414 635> 406 80<502.5 564.5> 434 80<172.5 254.5>
LayerCount: 2
Fore
SplineSet
61 0 m 1xf4
 61 718 l 1
 320 718 l 2
 420 718 486 646 486 537 c 0xf8
 486 468 462 422 408 387 c 1
 485 349 514 302 514 214 c 0
 514 85 435 0 315 0 c 2
 61 0 l 1xf4
141 635 m 1
 141 414 l 1
 284 414 l 2
 367 414 406 450 406 528 c 0
 406 601 368 635 285 635 c 2
 141 635 l 1
141 336 m 1
 141 83 l 1
 311 83 l 2
 389 83 434 131 434 214 c 0xf4
 434 295 388 336 297 336 c 2
 141 336 l 1
EndSplineSet
EndChar

StartChar: D
Encoding: 68 68 36
Width: 592
Flags: MW
HStem: 0 83<66 300 146 300 300 302> 635 83<146 146 146 295>
VStem: 66 80<83 635 83 718> 471 82<307.5 448>
LayerCount: 2
Fore
SplineSet
66 0 m 1
 66 718 l 1
 305 718 l 2
 456 718 553 580 553 367 c 0
 553 248 523 146 469 77 c 0
 429 27 370 0 302 0 c 2
 66 0 l 1
146 635 m 1
 146 83 l 1
 300 83 l 2
 406 83 471 188 471 359 c 0
 471 537 408 635 295 635 c 2
 146 635 l 1
EndSplineSet
EndChar

StartChar: E
Encoding: 69 69 37
Width: 547
Flags: MW
HStem: 0 87<151 505 151 505 71 505> 325 87<151 472 151 472> 631 87<151 499 151 151>
VStem: 71 80<87 325 412 631>
LayerCount: 2
Fore
SplineSet
505 87 m 1
 505 0 l 1
 71 0 l 1
 71 718 l 1
 499 718 l 1
 499 631 l 1
 151 631 l 1
 151 412 l 1
 472 412 l 1
 472 325 l 1
 151 325 l 1
 151 87 l 1
 505 87 l 1
EndSplineSet
EndChar

StartChar: F
Encoding: 70 70 38
Width: 501
Flags: MW
HStem: 0 20 325 87<151 439 151 439> 631 87<151 478 151 151>
VStem: 71 80<0 325 412 631>
LayerCount: 2
Fore
SplineSet
151 325 m 1
 151 0 l 1
 71 0 l 1
 71 718 l 1
 478 718 l 1
 478 631 l 1
 151 631 l 1
 151 412 l 1
 439 412 l 1
 439 325 l 1
 151 325 l 1
EndSplineSet
EndChar

StartChar: H
Encoding: 72 72 40
Width: 592
Flags: MW
HStem: 0 20 334 87<143 450 143 450> 698 20<63 143 143 143 450 530 530 530>
VStem: 63 80<0 334 421 718> 450 80<0 334 334 334 421 718 0 718>
LayerCount: 2
Fore
SplineSet
450 421 m 1
 450 718 l 1
 530 718 l 1
 530 0 l 1
 450 0 l 1
 450 334 l 1
 143 334 l 1
 143 0 l 1
 63 0 l 1
 63 718 l 1
 143 718 l 1
 143 421 l 1
 450 421 l 1
EndSplineSet
EndChar

StartChar: I
Encoding: 73 73 41
Width: 228
Flags: MW
HStem: 0 20 698 20<75 154 154 154>
VStem: 75 79<0 718 0 718>
LayerCount: 2
Fore
SplineSet
154 718 m 1
 154 0 l 1
 75 0 l 1
 75 718 l 1
 154 718 l 1
EndSplineSet
EndChar

StartChar: K
Encoding: 75 75 43
Width: 547
Flags: MW
HStem: 0 20 698 20<62 142 142 142 428 538 538 538>
VStem: 62 80<0 252 370 718>
LayerCount: 2
Fore
SplineSet
142 252 m 1
 142 0 l 1
 62 0 l 1
 62 718 l 1
 142 718 l 1
 142 370 l 1
 428 718 l 1
 538 718 l 1
 292 428 l 1
 544 0 l 1
 441 0 l 1
 235 360 l 1
 142 252 l 1
EndSplineSet
EndChar

StartChar: L
Encoding: 76 76 44
Width: 456
Flags: MW
HStem: 0 87<142 440 142 440 62 440> 698 20<62 142 142 142>
VStem: 62 80<87 718 87 718 87 718>
LayerCount: 2
Fore
SplineSet
142 718 m 1
 142 87 l 1
 440 87 l 1
 440 0 l 1
 62 0 l 1
 62 718 l 1
 142 718 l 1
EndSplineSet
EndChar

StartChar: M
Encoding: 77 77 45
Width: 683
Flags: MW
HStem: 0 20 698 20<60 174 174 174 511 624 624 624>
VStem: 60 77<0 424 0 718> 547 77<0 424 424 469 469 469>
LayerCount: 2
Fore
SplineSet
624 0 m 1
 547 0 l 1
 547 424 l 1
 547 469 l 1
 548 493 548 540 549 609 c 1
 381 0 l 1
 303 0 l 1
 135 608 l 1
 136 544 136 490 136 470 c 0
 137 447 137 432 137 424 c 2
 137 0 l 1
 60 0 l 1
 60 718 l 1
 174 718 l 1
 343 108 l 1
 511 718 l 1
 624 718 l 1
 624 0 l 1
EndSplineSet
EndChar

StartChar: N
Encoding: 78 78 46
Width: 592
Flags: MW
HStem: 0 20 698 20<62 156 156 156 453 530 530 530>
VStem: 62 77<0 583 0 718> 453 77<135 718 0 718>
LayerCount: 2
Fore
SplineSet
453 135 m 1
 453 718 l 1
 530 718 l 1
 530 0 l 1
 441 0 l 1
 139 583 l 1
 139 0 l 1
 62 0 l 1
 62 718 l 1
 156 718 l 1
 453 135 l 1
EndSplineSet
EndChar

StartChar: O
Encoding: 79 79 47
Width: 638
Flags: MW
HStem: -19 87<278.5 359.5> 650 87<280.5 375 280.5 382>
VStem: 32 82<302 415> 524 82<302 397.5 302 445.5>
LayerCount: 2
Fore
SplineSet
323 737 m 0
 427 737 508 682 559 580 c 0
 589 518 606 437 606 358 c 0
 606 246 574 144 517 72 c 0
 470 13 400 -19 319 -19 c 0
 238 -19 168 13 121 72 c 0
 64 144 32 246 32 358 c 0
 32 472 64 576 121 646 c 0
 170 706 238 737 323 737 c 0
322 650 m 0
 195 650 114 536 114 358 c 0
 114 184 196 68 319 68 c 0
 442 68 524 184 524 359 c 0
 524 532 442 650 322 650 c 0
EndSplineSet
EndChar

StartChar: P
Encoding: 80 80 48
Width: 547
Flags: MW
HStem: 0 20 303 83<151 308 151 308 308 335> 635 83<151 151 151 311>
VStem: 71 80<0 303 386 635> 428 82<470 553.5>
LayerCount: 2
Fore
SplineSet
151 303 m 1
 151 0 l 1
 71 0 l 1
 71 718 l 1
 335 718 l 2
 440 718 510 637 510 515 c 0
 510 387 441 303 335 303 c 2
 151 303 l 1
151 635 m 1
 151 386 l 1
 308 386 l 2
 388 386 428 428 428 512 c 0
 428 595 390 635 311 635 c 2
 151 635 l 1
EndSplineSet
EndChar

StartChar: Q
Encoding: 81 81 49
Width: 638
Flags: MW
HStem: -19 87<278.5 335 257.5 349> 650 87<278.5 359.5 278.5 380.5>
VStem: 32 82<302.5 415.5> 524 82<330.5 416 330.5 446.5>
LayerCount: 2
Fore
SplineSet
601 2 m 1
 561 -56 l 1
 471 29 l 1
 423 -5 379 -19 319 -19 c 0
 238 -19 168 13 121 72 c 0
 64 144 32 246 32 359 c 0
 32 472 64 574 121 646 c 0
 168 705 238 737 319 737 c 0
 400 737 470 705 517 646 c 0
 574 574 606 472 606 360 c 0
 606 301 597 242 579 188 c 0
 565 146 554 124 521 78 c 1
 601 2 l 1
344 148 m 1
 385 208 l 1
 459 137 l 1
 505 200 524 265 524 359 c 0
 524 534 442 650 319 650 c 0
 196 650 114 534 114 359 c 0
 114 184 196 68 319 68 c 0
 351 68 377 75 406 90 c 1
 344 148 l 1
EndSplineSet
EndChar

StartChar: R
Encoding: 82 82 50
Width: 592
Flags: MW
HStem: 0 20 308 83<152 336 152 336 336 345> 635 83<152 152 152 345 345 350>
VStem: 72 80<0 308 391 635> 456 82<483.5 556>
LayerCount: 2
Fore
SplineSet
152 308 m 1
 152 0 l 1
 72 0 l 1
 72 718 l 1
 345 718 l 2
 470 718 538 650 538 524 c 0
 538 443 517 399 456 353 c 1
 507 329 522 300 527 218 c 1
 531 88 l 2
 533 44 537 33 561 16 c 1
 561 0 l 1
 463 0 l 1
 456 29 450 104 450 180 c 1
 448 272 419 308 345 308 c 2
 152 308 l 1
152 635 m 1
 152 391 l 1
 336 391 l 2
 418 391 456 431 456 516 c 0
 456 596 421 635 350 635 c 2
 152 635 l 1
EndSplineSet
EndChar

StartChar: S
Encoding: 83 83 51
Width: 547
Flags: MW
HStem: -19 83<247 327.5 247 348> 654 83<234.5 297.5>
VStem: 60 77<504.5 547> 431 77<148.5 222.5>
LayerCount: 2
Fore
SplineSet
492 508 m 1
 417 508 l 1
 414 548 408 569 394 593 c 1
 369 632 325 654 270 654 c 0
 186 654 137 608 137 530 c 0
 137 479 159 450 206 437 c 2
 374 390 l 2
 462 366 508 299 508 197 c 0
 508 63 420 -19 276 -19 c 0
 186 -19 128 8 83 71 c 0
 52 114 41 155 40 232 c 1
 115 232 l 1
 116 185 122 161 138 134 c 0
 165 89 214 64 280 64 c 0
 375 64 431 109 431 188 c 0
 431 257 403 284 306 312 c 2
 185 346 l 2
 102 369 60 427 60 518 c 0
 60 576 78 630 109 670 c 0
 145 715 199 737 270 737 c 0
 359 737 427 701 462 637 c 1
 480 602 487 572 492 508 c 1
EndSplineSet
EndChar

StartChar: T
Encoding: 84 84 52
Width: 501
Flags: MW
HStem: 0 20 631 87<11 490 11 211 291 291 291 490>
VStem: 211 80<0 631 0 631>
LayerCount: 2
Fore
SplineSet
11 631 m 1
 11 718 l 1
 490 718 l 1
 490 631 l 1
 291 631 l 1
 291 0 l 1
 211 0 l 1
 211 631 l 1
 11 631 l 1
EndSplineSet
EndChar

StartChar: V
Encoding: 86 86 54
Width: 547
Flags: MW
HStem: 0 20 698 20<16 105 105 105 441 531 531 531>
LayerCount: 2
Fore
SplineSet
274 103 m 1
 441 718 l 1
 531 718 l 1
 316 0 l 1
 231 0 l 1
 16 718 l 1
 105 718 l 1
 274 103 l 1
EndSplineSet
EndChar

StartChar: W
Encoding: 87 87 55
Width: 774
Flags: MW
HStem: 0 20 698 20<13 99 99 99 343 430 430 430 673 761 761 761>
LayerCount: 2
Fore
SplineSet
387 599 m 1
 250 0 l 1
 166 0 l 1
 13 718 l 1
 99 718 l 1
 210 130 l 1
 343 718 l 1
 430 718 l 1
 563 130 l 1
 673 718 l 1
 761 718 l 1
 606 0 l 1
 522 0 l 1
 387 599 l 1
EndSplineSet
EndChar

StartChar: X
Encoding: 88 88 56
Width: 547
Flags: MW
HStem: 0 20 698 20<29 129 129 129 427 522 522 522>
LayerCount: 2
Fore
SplineSet
325 368 m 1
 531 0 l 1
 433 0 l 1
 275 295 l 1
 112 0 l 1
 16 0 l 1
 226 368 l 1
 29 718 l 1
 129 718 l 1
 278 443 l 1
 427 718 l 1
 522 718 l 1
 325 368 l 1
EndSplineSet
EndChar

StartChar: Y
Encoding: 89 89 57
Width: 547
Flags: MW
HStem: 0 20 698 20<11 104 104 104 442 535 535 535>
VStem: 233 80<0 289 0 289>
LayerCount: 2
Fore
SplineSet
313 289 m 1
 313 0 l 1
 233 0 l 1
 233 289 l 1
 11 718 l 1
 104 718 l 1
 273 373 l 1
 442 718 l 1
 535 718 l 1
 313 289 l 1
EndSplineSet
EndChar

StartChar: Z
Encoding: 90 90 58
Width: 501
Flags: MW
HStem: 0 87<120 482 120 482> 631 87<46 380 46 482>
LayerCount: 2
Fore
SplineSet
482 87 m 1
 482 0 l 1
 19 0 l 1
 19 82 l 1
 380 631 l 1
 46 631 l 1
 46 718 l 1
 482 718 l 1
 482 633 l 1
 120 87 l 1
 482 87 l 1
EndSplineSet
EndChar

StartChar: bracketleft
Encoding: 91 91 59
Width: 228
Flags: MW
HStem: -196 72<117 205 117 205 52 205> 650 72<117 117 117 205>
VStem: 52 65<-124 650 -124 722>
LayerCount: 2
Fore
SplineSet
117 650 m 1
 117 -124 l 1
 205 -124 l 1
 205 -196 l 1
 52 -196 l 1
 52 722 l 1
 205 722 l 1
 205 650 l 1
 117 650 l 1
EndSplineSet
EndChar

StartChar: backslash
Encoding: 92 92 60
Width: 228
Flags: MW
HStem: -19 20 717 20<-14 40 40 40>
LayerCount: 2
Fore
SplineSet
187 -19 m 1
 -14 737 l 1
 40 737 l 1
 242 -19 l 1
 187 -19 l 1
EndSplineSet
EndChar

StartChar: bracketright
Encoding: 93 93 61
Width: 228
Flags: MW
HStem: -196 72<23 111 23 176 23 111> 650 72<23 111 23 176>
VStem: 111 65<-124 650 650 650>
LayerCount: 2
Fore
SplineSet
111 -124 m 1
 111 650 l 1
 23 650 l 1
 23 722 l 1
 176 722 l 1
 176 -196 l 1
 23 -196 l 1
 23 -124 l 1
 111 -124 l 1
EndSplineSet
EndChar

StartChar: asciicircum
Encoding: 94 94 62
Width: 385
Flags: W
LayerCount: 2
Fore
SplineSet
396 264 m 1
 333 264 l 1
 193 608 l 1
 53 264 l 1
 -11 264 l 1
 163 688 l 1
 222 688 l 1
 396 264 l 1
EndSplineSet
EndChar

StartChar: underscore
Encoding: 95 95 63
Width: 456
Flags: MW
HStem: -125 50<0 456 0 456>
LayerCount: 2
Fore
SplineSet
456 -125 m 1
 0 -125 l 1
 0 -75 l 1
 456 -75 l 1
 456 -125 l 1
EndSplineSet
EndChar

StartChar: grave
Encoding: 193 96 123
Width: 273
Flags: MW
HStem: 714 20<11 100 100 100>
LayerCount: 2
Fore
SplineSet
118 593 m 1
 11 734 l 1
 100 734 l 1
 173 593 l 1
 118 593 l 1
EndSplineSet
EndChar

StartChar: b
Encoding: 98 98 66
Width: 456
Flags: MW
HStem: -15 77<219 270.5 219 293.5> 460 78<221 272.5> 698 20<48 120 120 120>
VStem: 48 72<455 718 455 718 455 718> 349 75<203 331.5>
LayerCount: 2
Fore
SplineSet
116 0 m 1
 48 0 l 1
 48 718 l 1
 120 718 l 1
 120 455 l 1
 157 514 194 538 248 538 c 0
 353 538 424 432 424 274 c 0
 424 99 350 -15 237 -15 c 0
 181 -15 147 8 116 68 c 1
 116 0 l 1
235 460 m 0
 158 460 117 387 117 249 c 0
 117 180 129 135 155 102 c 0
 175 77 204 62 234 62 c 0
 307 62 349 138 349 268 c 0
 349 395 310 460 235 460 c 0
EndSplineSet
EndChar

StartChar: c
Encoding: 99 99 67
Width: 410
Flags: MW
HStem: -15 77<179.5 243.5 179.5 266> 460 78<183.5 249.5>
VStem: 25 77<196 322.5 196 339.5>
LayerCount: 2
Fore
SplineSet
391 347 m 1
 321 347 l 1
 309 426 278 460 221 460 c 0
 146 460 102 386 102 259 c 0
 102 133 143 62 216 62 c 0
 271 62 306 103 321 185 c 1
 391 185 l 1
 374 52 315 -15 217 -15 c 0
 100 -15 25 89 25 252 c 0
 25 427 104 538 228 538 c 0
 324 538 378 475 391 347 c 1
EndSplineSet
EndChar

StartChar: d
Encoding: 100 100 68
Width: 456
Flags: W
HStem: -15 77<182 233.5 182 246> 460 78<182 235.5 153 258> 698 20<337 409 409 409>
VStem: 29 75<203.5 333 203.5 353> 337 72<444 718 0 718> 341 68<0 75 75 75>
LayerCount: 2
Fore
SplineSet
409 718 m 1xf8
 409 0 l 1xf8
 341 0 l 1
 341 75 l 1xe4
 310 10 275 -15 217 -15 c 0
 103 -15 29 99 29 274 c 0
 29 432 100 538 206 538 c 0
 265 538 303 511 337 444 c 1
 337 718 l 1
 409 718 l 1xf8
221 460 m 0
 143 460 104 397 104 269 c 0
 104 138 146 62 218 62 c 0
 249 62 278 77 298 102 c 0
 324 135 336 180 336 248 c 0
 336 385 295 460 221 460 c 0
EndSplineSet
EndChar

StartChar: f
Encoding: 102 102 70
Width: 228
Flags: MW
HStem: 0 20 450 73<11 71 11 71 143 215 11 143> 649 79<170.5 184 144.5 188.5>
VStem: 71 72<0 450 0 450 523 588>
LayerCount: 2
Fore
SplineSet
215 450 m 1
 143 450 l 1
 143 0 l 1
 71 0 l 1
 71 450 l 1
 11 450 l 1
 11 523 l 1
 71 523 l 1
 71 613 l 2
 71 688 109 728 180 728 c 0
 188 728 193 728 215 726 c 1
 215 647 l 1
 203 648 192 649 185 649 c 0
 156 649 143 631 143 588 c 2
 143 523 l 1
 215 523 l 1
 215 450 l 1
EndSplineSet
EndChar

StartChar: g
Encoding: 103 103 71
Width: 456
Flags: MW
HStem: -220 73<190 239.5 186.5 248.5> -15 77<186 246.5> 460 78<186 239 157 262>
VStem: 33 75<203.5 333 203.5 353> 341 68<446 523>
LayerCount: 2
Fore
SplineSet
409 523 m 1
 409 43 l 2
 409 -41 399 -93 374 -136 c 0
 342 -191 286 -220 211 -220 c 0
 169 -220 133 -209 105 -188 c 0
 71 -161 57 -131 46 -64 c 1
 118 -64 l 1
 131 -123 159 -147 214 -147 c 0
 265 -147 299 -128 318 -88 c 0
 332 -60 337 -27 337 37 c 2
 337 58 l 1
 309 7 273 -15 220 -15 c 0
 107 -15 33 100 33 274 c 0
 33 432 104 538 210 538 c 0
 268 538 302 514 341 446 c 1
 341 523 l 1
 409 523 l 1
225 460 m 0
 147 460 108 397 108 269 c 0
 108 138 150 62 222 62 c 0
 296 62 340 132 340 247 c 0
 340 385 299 460 225 460 c 0
EndSplineSet
EndChar

StartChar: h
Encoding: 104 104 72
Width: 456
Flags: MW
HStem: 0 20 460 78<229.5 276.5> 698 20<53 125 125 125>
VStem: 53 72<0 285 451 718> 331 72<0 342 342 356 0 383.5>
LayerCount: 2
Fore
SplineSet
125 718 m 1
 125 451 l 1
 167 516 201 538 258 538 c 0
 349 538 403 471 403 356 c 2
 403 0 l 1
 331 0 l 1
 331 342 l 2
 331 425 306 460 247 460 c 0
 169 460 125 396 125 285 c 2
 125 0 l 1
 53 0 l 1
 53 718 l 1
 125 718 l 1
EndSplineSet
EndChar

StartChar: i
Encoding: 105 105 73
Width: 182
Flags: MW
HStem: 0 20 618 100<55 127 55 127>
VStem: 55 72<0 523 0 523 618 718>
LayerCount: 2
Fore
SplineSet
127 523 m 1
 127 0 l 1
 55 0 l 1
 55 523 l 1
 127 523 l 1
127 618 m 1
 55 618 l 1
 55 718 l 1
 127 718 l 1
 127 618 l 1
EndSplineSet
EndChar

StartChar: k
Encoding: 107 107 75
Width: 410
Flags: MW
HStem: 0 20 698 20<55 125 125 125>
VStem: 55 70<0 198 302 718>
LayerCount: 2
Fore
SplineSet
237 328 m 1
 411 0 l 1
 318 0 l 1
 185 264 l 1
 125 198 l 1
 125 0 l 1
 55 0 l 1
 55 718 l 1
 125 718 l 1
 125 302 l 1
 310 523 l 1
 401 523 l 1
 237 328 l 1
EndSplineSet
EndChar

StartChar: l
Encoding: 108 108 76
Width: 182
Flags: MW
HStem: 0 20 698 20<55 127 127 127>
VStem: 55 72<0 718 0 718>
LayerCount: 2
Fore
SplineSet
127 718 m 1
 127 0 l 1
 55 0 l 1
 55 718 l 1
 127 718 l 1
EndSplineSet
EndChar

StartChar: m
Encoding: 109 109 77
Width: 683
Flags: W
HStem: 0 20 460 78<225.5 260 470 507.5> 503 20<53 121 121 121>
VStem: 53 68<446 523 446 523 446 523> 53 72<0 285 0 523> 306 72<0 319 0 362 0 393> 559 72<0 338 338 362 0 379>
LayerCount: 2
Fore
SplineSet
53 0 m 1xce
 53 523 l 1xa8
 121 523 l 1
 121 446 l 1xb0
 158 511 197 538 254 538 c 0
 307 538 340 514 367 453 c 1
 416 520 444 538 496 538 c 0
 579 538 631 471 631 362 c 2
 631 0 l 1
 559 0 l 1
 559 338 l 2
 559 420 534 460 481 460 c 0
 423 460 378 398 378 319 c 2
 378 0 l 1
 306 0 l 1
 306 362 l 2
 306 424 281 460 239 460 c 0
 170 460 125 391 125 285 c 2
 125 0 l 1
 53 0 l 1xce
EndSplineSet
EndChar

StartChar: n
Encoding: 110 110 78
Width: 456
Flags: W
HStem: 0 20 460 78<228.5 273.5> 503 20<53 121 121 121>
VStem: 53 68<446 523 446 523 446 523> 53 72<0 285 0 523> 331 72<0 322 322 356 0 370>
LayerCount: 2
Fore
SplineSet
121 523 m 1xb0
 121 446 l 1x30
 158 511 199 538 258 538 c 0
 349 538 403 471 403 356 c 2
 403 0 l 1
 331 0 l 1
 331 322 l 2
 331 418 304 460 243 460 c 0xcc
 170 460 125 394 125 285 c 2
 125 0 l 1
 53 0 l 1
 53 523 l 1xac
 121 523 l 1xb0
EndSplineSet
EndChar

StartChar: p
Encoding: 112 112 80
Width: 456
Flags: W
HStem: -207 20 -15 77<210.5 270.5 198 293.5> 460 78<218 272>
VStem: 48 68<446 523 446 523 446 523> 48 72<-207 58 -207 523> 349 75<205 332.5>
LayerCount: 2
Fore
SplineSet
48 -207 m 1xec
 48 523 l 1xec
 116 523 l 1
 116 446 l 1xf0
 154 514 189 538 247 538 c 0
 353 538 424 432 424 274 c 0
 424 100 350 -15 237 -15 c 0
 184 -15 149 7 120 58 c 1
 120 -207 l 1
 48 -207 l 1xec
235 460 m 0
 157 460 117 387 117 245 c 0
 117 131 162 62 234 62 c 0
 307 62 349 139 349 271 c 0
 349 394 309 460 235 460 c 0
EndSplineSet
EndChar

StartChar: q
Encoding: 113 113 81
Width: 456
Flags: W
HStem: -207 20 -15 77<182 242.5> 460 78<182 235 153 258.5>
VStem: 29 75<204.5 333.5 204.5 353> 333 72<-207 58 58 58> 337 68<446 523 -207 523>
LayerCount: 2
Fore
SplineSet
405 523 m 1xf8
 405 -207 l 1
 333 -207 l 1
 333 58 l 1xf8
 304 7 269 -15 216 -15 c 0
 103 -15 29 100 29 274 c 0
 29 432 100 538 206 538 c 0
 264 538 298 514 337 446 c 1
 337 523 l 1xf4
 405 523 l 1xf8
221 460 m 0
 143 460 104 397 104 270 c 0
 104 139 146 62 218 62 c 0
 292 62 336 131 336 245 c 0
 336 385 296 460 221 460 c 0
EndSplineSet
EndChar

StartChar: r
Encoding: 114 114 82
Width: 273
Flags: W
HStem: 0 20 445 93<228 245 245 256.5 228 272> 503 20<63 131 131 131>
VStem: 63 68<434 523 434 523 434 523> 63 72<0 305 0 523>
LayerCount: 2
Fore
SplineSet
272 445 m 1x50
 245 445 l 2x48
 181 445 135 386 135 305 c 2
 135 0 l 1
 63 0 l 1
 63 523 l 1xa8
 131 523 l 1xb0
 131 434 l 1
 169 509 203 538 253 538 c 0
 260 538 265 537 272 535 c 1
 272 445 l 1x50
EndSplineSet
EndChar

StartChar: t
Encoding: 116 116 84
Width: 228
Flags: MW
HStem: -7 20 450 73<11 69 11 69 141 211 11 141>
VStem: 69 72<105 110 110 450 523 669>
LayerCount: 2
Fore
SplineSet
211 450 m 1
 141 450 l 1
 141 110 l 2
 141 81 153 69 185 69 c 2
 210 69 l 1
 210 0 l 1
 194 -2 184 -3 178 -4 c 0
 162 -7 158 -7 153 -7 c 0
 96 -7 69 29 69 105 c 2
 69 450 l 1
 11 450 l 1
 11 523 l 1
 69 523 l 1
 69 669 l 1
 141 669 l 1
 141 523 l 1
 211 523 l 1
 211 450 l 1
EndSplineSet
EndChar

StartChar: u
Encoding: 117 117 85
Width: 456
Flags: W
HStem: -15 77<183.5 229> 503 20<56 128 128 128 329 401 401 401>
VStem: 56 72<147 176 176 523> 329 72<235 523> 333 68<0 81 81 81>
LayerCount: 2
Fore
SplineSet
401 0 m 1xe8
 333 0 l 1
 333 81 l 1xe8
 295 9 261 -15 197 -15 c 0
 109 -15 56 45 56 147 c 2
 56 523 l 1
 128 523 l 1
 128 176 l 2
 128 101 156 62 211 62 c 0
 283 62 329 129 329 235 c 2
 329 523 l 1
 401 523 l 1xf0
 401 0 l 1xe8
EndSplineSet
EndChar

StartChar: v
Encoding: 118 118 86
Width: 410
Flags: MW
HStem: 0 20 503 20<7 90 90 90 324 403 403 403>
LayerCount: 2
Fore
SplineSet
202 94 m 1
 324 523 l 1
 403 523 l 1
 240 0 l 1
 163 0 l 1
 7 523 l 1
 90 523 l 1
 202 94 l 1
EndSplineSet
EndChar

StartChar: w
Encoding: 119 119 87
Width: 592
Flags: MW
HStem: 0 20 503 20<11 90 90 90 256 337 337 337 509 581 581 581>
LayerCount: 2
Fore
SplineSet
294 409 m 1
 209 0 l 1
 135 0 l 1
 11 523 l 1
 90 523 l 1
 173 108 l 1
 256 523 l 1
 337 523 l 1
 421 108 l 1
 509 523 l 1
 581 523 l 1
 456 0 l 1
 382 0 l 1
 294 409 l 1
EndSplineSet
EndChar

StartChar: x
Encoding: 120 120 88
Width: 410
Flags: MW
HStem: 0 20 503 20<16 109 109 109 308 396 396 396>
LayerCount: 2
Fore
SplineSet
251 269 m 1
 402 0 l 1
 310 0 l 1
 203 197 l 1
 100 0 l 1
 9 0 l 1
 160 269 l 1
 16 523 l 1
 109 523 l 1
 208 339 l 1
 308 523 l 1
 396 523 l 1
 251 269 l 1
EndSplineSet
EndChar

StartChar: y
Encoding: 121 121 89
Width: 410
Flags: MW
HStem: -214 79<84.5 107 84.5 126> 503 20<9 90 90 90 321 401 401 401>
LayerCount: 2
Fore
SplineSet
205 94 m 1
 321 523 l 1
 401 523 l 1
 246 10 l 1
 182 -197 169 -214 83 -214 c 0
 73 -214 67 -213 54 -208 c 2
 48 -206 l 1
 48 -126 l 1
 62 -132 77 -135 92 -135 c 0
 122 -135 134 -121 150 -68 c 0
 153 -60 160 -38 168 -14 c 1
 9 523 l 1
 90 523 l 1
 205 94 l 1
EndSplineSet
EndChar

StartChar: z
Encoding: 122 122 90
Width: 410
Flags: MW
HStem: 0 73<121 385 121 385> 450 73<45 284 45 378>
LayerCount: 2
Fore
SplineSet
378 451 m 1
 121 73 l 1
 385 73 l 1
 385 0 l 1
 25 0 l 1
 25 69 l 1
 284 450 l 1
 45 450 l 1
 45 523 l 1
 378 523 l 1
 378 451 l 1
EndSplineSet
EndChar

StartChar: braceleft
Encoding: 123 123 91
Width: 274
Flags: MW
HStem: -196 65<160 239 203 239 203 239> 657 65<190.5 203 203 239>
VStem: 100 65<-67 -49 -49 104 104 120 421 575>
LayerCount: 2
Fore
SplineSet
34 234 m 1
 34 294 l 1
 53 297 61 301 71 314 c 0
 90 339 100 377 100 421 c 2
 100 593 l 2
 100 666 136 722 184 722 c 2
 239 722 l 1
 239 657 l 1
 203 657 l 2
 178 657 165 629 165 575 c 2
 165 405 l 2
 165 341 134 283 91 264 c 1
 137 242 165 187 165 120 c 2
 165 -49 l 2
 165 -103 178 -131 203 -131 c 2
 239 -131 l 1
 239 -196 l 1
 184 -196 l 2
 136 -196 100 -140 100 -67 c 2
 100 104 l 2
 100 150 89 189 70 214 c 0
 60 227 53 231 34 234 c 1
EndSplineSet
EndChar

StartChar: bar
Encoding: 124 124 92
Width: 213
Flags: MW
HStem: -19 20 717 20<77 137 137 137>
VStem: 77 60<-19 737 -19 737>
LayerCount: 2
Fore
SplineSet
77 -19 m 1
 77 737 l 1
 137 737 l 1
 137 -19 l 1
 77 -19 l 1
EndSplineSet
EndChar

StartChar: braceright
Encoding: 125 125 93
Width: 274
Flags: MW
HStem: -196 65<34 70 70 82.5 34 89 34 70> 657 65<34 70 34 89>
VStem: 108 65<-49 104 405 421 421 575 575 593>
LayerCount: 2
Fore
SplineSet
239 294 m 1
 239 234 l 1
 220 231 213 227 203 214 c 0
 183 189 173 151 173 104 c 2
 173 -67 l 2
 173 -140 137 -196 89 -196 c 2
 34 -196 l 1
 34 -131 l 1
 70 -131 l 2
 95 -131 108 -102 108 -49 c 2
 108 120 l 2
 108 187 136 242 182 264 c 1
 139 283 108 341 108 405 c 2
 108 575 l 2
 108 629 95 657 70 657 c 2
 34 657 l 1
 34 722 l 1
 89 722 l 2
 137 722 173 666 173 593 c 2
 173 421 l 2
 173 376 183 339 202 314 c 0
 212 301 220 297 239 294 c 1
EndSplineSet
EndChar

StartChar: asciitilde
Encoding: 126 126 94
Width: 479
Flags: W
HStem: 181 73<322.5 339 322.5 346> 249 73<137 164.5>
LayerCount: 2
Fore
SplineSet
388 305 m 1x80
 429 267 l 1
 395 206 366 181 326 181 c 0x80
 301 181 279 190 243 214 c 0
 205 239 179 249 150 249 c 0
 124 249 107 235 89 200 c 1
 50 236 l 1
 78 297 108 322 151 322 c 0x40
 179 322 199 314 267 277 c 0
 294 262 316 254 329 254 c 0
 349 254 366 268 388 305 c 1x80
EndSplineSet
EndChar

StartChar: exclamdown
Encoding: 161 161 95
Width: 273
Flags: MW
HStem: 421 102<97 176 97 176>
VStem: 97 79<-195 42 -195 42 421 523>
LayerCount: 2
Fore
SplineSet
97 421 m 1
 97 523 l 1
 176 523 l 1
 176 421 l 1
 97 421 l 1
117 352 m 1
 156 352 l 1
 176 42 l 1
 176 -195 l 1
 97 -195 l 1
 97 42 l 1
 117 352 l 1
EndSplineSet
EndChar

StartChar: cent
Encoding: 162 162 96
Width: 456
Flags: W
HStem: -19 77<232 265.5 226 287.5> -12 20 461 77<203.5 248.5> 512 20<279 279>
VStem: 42 72<212 318.5 212 340.5>
LayerCount: 2
Fore
SplineSet
418 345 m 1x18
 350 345 l 1
 339 404 324 432 295 447 c 1
 204 61 l 1
 213 59 220 58 232 58 c 0
 299 58 331 91 351 183 c 1
 421 183 l 1
 402 52 337 -19 238 -19 c 0xa8
 226 -19 216 -18 186 -12 c 1
 161 -115 l 1
 127 -115 l 1
 155 -1 l 1
 76 52 42 128 42 251 c 0
 42 430 118 538 243 538 c 0x68
 259 538 269 536 279 532 c 1
 300 623 l 1
 332 623 l 1
 312 523 l 1
 371 499 410 434 418 345 c 1x18
174 78 m 1
 263 459 l 1
 258 460 252 461 245 461 c 0
 162 461 114 385 114 252 c 0
 114 172 135 112 174 78 c 1
EndSplineSet
EndChar

StartChar: sterling
Encoding: 163 163 97
Width: 456
Flags: W
HStem: -16 83<340 356 340 357> -11 20 29 73<153 217.5> 317 63<27 84 27 115 27 84 191 304 191 191> 641 77<208 274 187 274.5>
VStem: 48 77<500 551 500 575.5> 130 68<239.5 253>
LayerCount: 2
Fore
SplineSet
167 380 m 1x7e
 304 380 l 1
 304 317 l 1
 191 317 l 1
 196 292 198 273 198 253 c 0
 198 226 192 198 180 170 c 0
 161 128 143 104 95 61 c 1
 139 90 171 102 207 102 c 0x36
 228 102 253 96 290 82 c 0
 317 72 335 67 345 67 c 0
 367 67 389 78 408 98 c 1
 442 32 l 1
 403 -3 375 -16 339 -16 c 0x86
 321 -16 299 -10 261 5 c 0
 218 22 189 29 168 29 c 0
 138 29 109 17 70 -11 c 1
 30 58 l 1
 64 88 78 103 93 128 c 0
 116 165 130 209 130 243 c 0
 130 263 125 286 115 317 c 1
 27 317 l 1
 27 380 l 1
 84 380 l 1
 55 451 48 477 48 516 c 0
 48 635 129 718 245 718 c 0
 303 718 347 699 378 660 c 0
 410 621 427 566 427 505 c 2
 427 490 l 1
 355 490 l 1
 355 499 l 2
 355 583 309 641 240 641 c 0
 176 641 125 586 125 516 c 0
 125 484 135 451 167 380 c 1x7e
EndSplineSet
EndChar

StartChar: currency
Encoding: 168 164 102
Width: 456
Flags: MW
HStem: 102 70<204 251.5> 528 70<205.5 250.5 205.5 267>
VStem: 27 60<321.5 381> 369 60<322 381 322 398>
LayerCount: 2
Fore
SplineSet
394 603 m 1
 433 555 l 1
 388 501 l 1
 417 455 429 411 429 351 c 0
 429 293 417 249 388 200 c 1
 432 144 l 1
 395 99 l 1
 350 157 l 1
 312 118 275 102 228 102 c 0
 180 102 144 118 106 157 c 1
 61 99 l 1
 24 144 l 1
 68 200 l 1
 39 248 27 292 27 351 c 0
 27 411 39 456 68 501 c 1
 23 555 l 1
 62 603 l 1
 109 547 l 1
 146 582 183 598 228 598 c 0
 273 598 310 582 347 547 c 1
 394 603 l 1
230 528 m 0
 152 528 87 448 87 351 c 0
 87 253 151 172 228 172 c 0
 305 172 369 253 369 350 c 0
 369 446 304 528 230 528 c 0
EndSplineSet
EndChar

StartChar: yen
Encoding: 165 165 99
Width: 456
Flags: MW
HStem: 0 20 185 57<34 191 34 191 263 422> 327 57<34 160 34 160 34 191 294 422>
VStem: 191 72<0 185 0 185 242 327>
LayerCount: 2
Fore
SplineSet
34 327 m 1
 34 384 l 1
 160 384 l 1
 2 688 l 1
 84 688 l 1
 227 393 l 1
 371 688 l 1
 453 688 l 1
 294 384 l 1
 422 384 l 1
 422 327 l 1
 263 327 l 1
 263 242 l 1
 422 242 l 1
 422 185 l 1
 263 185 l 1
 263 0 l 1
 191 0 l 1
 191 185 l 1
 34 185 l 1
 34 242 l 1
 191 242 l 1
 191 327 l 1
 34 327 l 1
EndSplineSet
EndChar

StartChar: brokenbar
Encoding: 420 166 313
Width: 213
Flags: MW
HStem: -19 20 717 20<77 137 137 137>
VStem: 77 60<-19 275 -19 275 460 737>
LayerCount: 2
Fore
SplineSet
77 -19 m 1
 77 275 l 1
 137 275 l 1
 137 -19 l 1
 77 -19 l 1
77 460 m 1
 77 737 l 1
 137 737 l 1
 137 460 l 1
 77 460 l 1
EndSplineSet
EndChar

StartChar: section
Encoding: 167 167 101
Width: 456
Flags: W
HStem: -191 77<194.5 247 194.5 267.5> 660 77<205.5 253.5>
VStem: 35 68<312 347.5> 79 72<564 604.5 564 617> 306 72<-58 -17> 352 68<210 243.5>
LayerCount: 2
Fore
SplineSet
377 554 m 1xd4
 308 554 l 1
 303 628 279 660 228 660 c 0
 183 660 151 628 151 581 c 0
 151 547 168 520 211 490 c 2
 331 404 l 2
 394 358 420 312 420 244 c 0xd4
 420 176 397 133 335 84 c 1
 367 41 378 13 378 -30 c 0
 378 -122 312 -191 223 -191 c 0
 164 -191 114 -161 89 -110 c 0
 75 -80 70 -55 68 -3 c 1
 140 -3 l 1
 142 -79 168 -114 221 -114 c 0
 273 -114 306 -83 306 -33 c 0
 306 -1 294 20 261 47 c 2
 88 187 l 2
 54 215 35 260 35 313 c 0xe8
 35 382 56 422 117 467 c 1
 87 508 79 530 79 567 c 0
 79 667 140 737 228 737 c 0
 286 737 332 709 356 661 c 0
 370 631 375 606 377 554 c 1xd4
140 246 m 2xe4
 295 124 l 1
 338 159 352 184 352 224 c 0
 352 263 334 296 301 321 c 2
 158 428 l 1
 119 401 103 374 103 330 c 0
 103 294 115 265 140 246 c 2xe4
EndSplineSet
EndChar

StartChar: dieresis
Encoding: 200 168 130
Width: 273
Flags: MW
HStem: 604 102<33 108 33 108 33 165 165 240>
VStem: 33 75<604 706 604 706> 165 75<604 706 604 706>
LayerCount: 2
Fore
SplineSet
108 706 m 1
 108 604 l 1
 33 604 l 1
 33 706 l 1
 108 706 l 1
240 706 m 1
 240 604 l 1
 165 604 l 1
 165 706 l 1
 240 706 l 1
EndSplineSet
EndChar

StartChar: copyright
Encoding: 409 169 302
Width: 604
Flags: MW
HStem: -19 63<231.5 374.5 231.5 391> 128 67<279.5 340.5 279.5 352.5> 525 67<276 337.5> 674 63<234 376.5>
VStem: -11 62<270 449.5 270 465.5> 132 62<315 412.5 315 430.5> 555 62<269.5 447>
LayerCount: 2
Fore
SplineSet
411 289 m 1
 467 289 l 1
 446 184 393 128 312 128 c 0
 207 128 132 226 132 362 c 0
 132 499 205 592 310 592 c 0
 365 592 411 566 439 520 c 0
 454 495 460 476 466 435 c 1
 411 435 l 1
 397 495 364 525 311 525 c 0
 241 525 194 461 194 364 c 0
 194 266 244 195 315 195 c 0
 366 195 401 229 411 289 c 1
307 737 m 0
 478 737 617 568 617 359 c 0
 617 149 478 -19 304 -19 c 0
 128 -19 -11 148 -11 359 c 0
 -11 572 127 737 307 737 c 0
307 674 m 0
 161 674 51 539 51 360 c 0
 51 180 160 44 303 44 c 0
 446 44 555 180 555 359 c 0
 555 535 446 674 307 674 c 0
EndSplineSet
EndChar

StartChar: ordfeminine
Encoding: 227 170 138
Width: 303
Flags: W
HStem: 304 48<29 272 29 272> 405 47<240.5 270.5> 405 52<103.5 129.5> 685 52<122 162>
VStem: 20 52<489.5 518 489.5 526> 29 243<304 352 304 352> 204 50<531 570 570 570 632.5 649>
LayerCount: 2
Fore
SplineSet
284 454 m 1x5a
 284 410 l 1
 278 408 l 2
 269 406 263 405 257 405 c 0x4a
 224 405 212 418 209 456 c 1
 178 420 149 405 110 405 c 0xaa
 56 405 20 442 20 498 c 0
 20 554 53 590 112 598 c 2
 184 608 l 2
 197 610 204 622 204 643 c 0
 204 670 182 685 142 685 c 0
 102 685 83 669 79 632 c 1
 34 632 l 1
 39 704 74 737 147 737 c 0
 213 737 254 704 254 649 c 2
 254 471 l 2
 254 458 258 452 269 452 c 0
 272 452 276 453 284 454 c 1x5a
204 531 m 2
 204 570 l 1
 198 563 181 558 129 550 c 0
 87 543 72 531 72 505 c 0
 72 474 88 457 119 457 c 0xaa
 168 457 204 489 204 531 c 2
29 352 m 1xa4
 272 352 l 1
 272 304 l 1
 29 304 l 1
 29 352 l 1xa4
EndSplineSet
EndChar

StartChar: guillemotleft
Encoding: 171 171 105
Width: 456
Flags: W
LayerCount: 2
Fore
SplineSet
208 196 m 1
 208 108 l 1
 80 231 l 1
 80 323 l 1
 208 446 l 1
 208 358 l 1
 122 277 l 1
 208 196 l 1
376 196 m 1
 376 108 l 1
 248 231 l 1
 248 323 l 1
 376 446 l 1
 376 358 l 1
 290 277 l 1
 376 196 l 1
EndSplineSet
EndChar

StartChar: logicalnot
Encoding: 417 172 310
Width: 479
Flags: MW
HStem: 317 73<32 387 32 447>
VStem: 387 60<108 317 317 317>
LayerCount: 2
Fore
SplineSet
387 108 m 1
 387 317 l 1
 32 317 l 1
 32 390 l 1
 447 390 l 1
 447 108 l 1
 387 108 l 1
EndSplineSet
EndChar

StartChar: registered
Encoding: 410 174 303
Width: 604
Flags: MW
HStem: -19 63<231.5 374.5 231.5 391> 329 57<237 302 237 299> 520 57<237 311 237 237> 674 63<234 376.5>
VStem: -11 62<270 449.5 270 465.5> 184 53<141 329 386 520> 388 57<429 476.5> 555 62<269.5 447>
LayerCount: 2
Fore
SplineSet
237 329 m 1
 237 141 l 1
 184 141 l 1
 184 577 l 1
 319 577 l 2
 403 577 445 536 445 454 c 0
 445 383 416 345 353 332 c 1
 454 141 l 1
 394 141 l 1
 299 329 l 1
 237 329 l 1
237 386 m 1
 302 386 l 2
 366 386 388 404 388 454 c 0
 388 499 364 520 311 520 c 2
 237 520 l 1
 237 386 l 1
307 737 m 0
 478 737 617 568 617 359 c 0
 617 149 478 -19 304 -19 c 0
 128 -19 -11 148 -11 359 c 0
 -11 572 127 737 307 737 c 0
307 674 m 0
 161 674 51 539 51 360 c 0
 51 180 160 44 303 44 c 0
 446 44 555 180 555 359 c 0
 555 535 446 674 307 674 c 0
EndSplineSet
EndChar

StartChar: macron
Encoding: 197 175 127
Width: 273
Flags: MW
HStem: 627 57<8 265 8 265>
VStem: 8 257<627 684 627 684>
LayerCount: 2
Fore
SplineSet
265 684 m 1
 265 627 l 1
 8 627 l 1
 8 684 l 1
 265 684 l 1
EndSplineSet
EndChar

StartChar: degree
Encoding: 399 176 292
Width: 328
Flags: MW
HStem: 411 43<143 185 143 198> 660 43<143 185>
VStem: 44 40<530 584 530 599> 244 40<530 583.5>
LayerCount: 2
Fore
SplineSet
166 703 m 0
 232 703 284 639 284 557 c 0
 284 474 232 411 164 411 c 0
 96 411 44 474 44 557 c 0
 44 641 96 703 166 703 c 0
164 660 m 0
 122 660 84 611 84 557 c 0
 84 503 122 454 164 454 c 0
 206 454 244 503 244 557 c 0
 244 610 206 660 164 660 c 0
EndSplineSet
EndChar

StartChar: plusminus
Encoding: 404 177 297
Width: 479
Flags: MW
HStem: 0 73<32 447 32 447> 272 73<32 210 32 210 270 447 32 270>
VStem: 210 60<111 272 111 272 345 561>
LayerCount: 2
Fore
SplineSet
210 345 m 1
 210 561 l 1
 270 561 l 1
 270 345 l 1
 447 345 l 1
 447 272 l 1
 270 272 l 1
 270 111 l 1
 210 111 l 1
 210 272 l 1
 32 272 l 1
 32 345 l 1
 210 345 l 1
32 0 m 1
 32 73 l 1
 447 73 l 1
 447 0 l 1
 32 0 l 1
EndSplineSet
EndChar

StartChar: twosuperior
Encoding: 397 178 290
Width: 273
Flags: MW
HStem: 280 62<65 265 65 265> 656 58<123.5 161>
VStem: 208 57<558.5 606>
LayerCount: 2
Fore
SplineSet
65 552 m 1
 15 552 l 1
 17 611 25 640 47 669 c 0
 68 697 104 714 143 714 c 0
 215 714 265 658 265 577 c 0
 265 515 242 481 167 435 c 2
 130 412 l 2
 98 391 79 371 65 342 c 1
 265 342 l 1
 265 280 l 1
 3 280 l 1
 6 359 32 409 88 448 c 1
 138 481 l 2
 200 523 208 534 208 583 c 0
 208 629 183 656 139 656 c 0
 91 656 69 625 65 552 c 1
EndSplineSet
EndChar

StartChar: threesuperior
Encoding: 398 179 291
Width: 273
Flags: W
HStem: 270 58<114 156.5 107.5 171.5> 481 52<106 125 106 128> 656 58<109 152>
VStem: 196 57<580 616.5> 209 57<384 435.5>
LayerCount: 2
Fore
SplineSet
4 421 m 1xe8
 60 421 l 1
 64 353 83 328 132 328 c 0
 181 328 209 358 209 410 c 0xe8
 209 461 185 481 125 481 c 2
 106 481 l 1
 106 533 l 1
 128 533 l 2
 172 533 196 556 196 598 c 0
 196 635 173 656 131 656 c 0
 87 656 67 633 63 576 c 1
 13 576 l 1
 17 668 58 714 136 714 c 0
 207 714 253 670 253 602 c 0xf0
 253 558 236 529 202 515 c 1
 248 497 266 469 266 416 c 0
 266 328 212 270 131 270 c 0
 97 270 67 282 45 303 c 0
 20 327 9 358 4 421 c 1xe8
EndSplineSet
EndChar

StartChar: acute
Encoding: 194 180 124
Width: 273
Flags: MW
HStem: 714 20<173 262 262 262>
LayerCount: 2
Fore
SplineSet
262 734 m 1
 155 593 l 1
 100 593 l 1
 173 734 l 1
 262 734 l 1
EndSplineSet
EndChar

StartChar: paragraph
Encoding: 182 182 114
Width: 440
Flags: MW
HStem: 658 60<251 348 251 251>
VStem: 191 60<-173 344 344 344> 348 60<-173 658 658 658>
LayerCount: 2
Fore
SplineSet
191 -173 m 1
 191 344 l 1
 136 347 108 357 76 385 c 0
 36 420 15 470 15 533 c 0
 15 651 83 718 205 718 c 2
 408 718 l 1
 408 -173 l 1
 348 -173 l 1
 348 658 l 1
 251 658 l 1
 251 -173 l 1
 191 -173 l 1
EndSplineSet
EndChar

StartChar: periodcentered
Encoding: 180 183 113
Width: 228
Flags: W
LayerCount: 2
Fore
SplineSet
115 315 m 0
 142 315 166 285 166 252 c 0
 166 219 142 190 114 190 c 0
 86 190 63 219 63 253 c 0
 63 287 86 315 115 315 c 0
EndSplineSet
EndChar

StartChar: cedilla
Encoding: 203 184 132
Width: 273
Flags: MW
HStem: -225 47<103.5 118 95 144.5>
VStem: 150 62<-149 -124.5>
LayerCount: 2
Fore
SplineSet
65 -86 m 1
 117 0 l 1
 156 0 l 1
 118 -62 l 1
 121 -61 l 1
 123 -61 l 1
 132 -59 137 -58 144 -58 c 0
 185 -58 212 -88 212 -133 c 0
 212 -187 173 -225 116 -225 c 0
 91 -225 69 -219 37 -203 c 1
 51 -163 l 1
 74 -175 87 -178 103 -178 c 0
 133 -178 150 -162 150 -136 c 0
 150 -113 133 -96 110 -96 c 0
 103 -96 95 -98 79 -105 c 1
 65 -86 l 1
EndSplineSet
EndChar

StartChar: onesuperior
Encoding: 396 185 289
Width: 273
Flags: MW
VStem: 124 58<281 577 577 577>
LayerCount: 2
Fore
SplineSet
124 577 m 1
 35 577 l 1
 35 623 l 1
 105 628 122 641 136 703 c 1
 182 703 l 1
 182 281 l 1
 124 281 l 1
 124 577 l 1
EndSplineSet
EndChar

StartChar: ordmasculine
Encoding: 235 186 142
Width: 299
Flags: W
HStem: 304 48<28 271 28 271> 405 52<126 174 126 191> 685 52<126.5 174>
VStem: 20 55<535 607.5 535 623.5> 28 243<304 352 304 352> 225 55<535 607>
LayerCount: 2
Fore
SplineSet
152 737 m 0xf4
 232 737 280 675 280 571 c 0
 280 466 232 405 150 405 c 0
 68 405 20 466 20 570 c 0
 20 677 67 737 152 737 c 0xf4
151 685 m 0
 102 685 75 644 75 571 c 0
 75 499 102 457 150 457 c 0
 198 457 225 499 225 571 c 0
 225 643 197 685 151 685 c 0
28 352 m 1xe8
 271 352 l 1
 271 304 l 1
 28 304 l 1
 28 352 l 1xe8
EndSplineSet
EndChar

StartChar: guillemotright
Encoding: 187 187 119
Width: 456
Flags: W
LayerCount: 2
Fore
SplineSet
208 231 m 1
 80 108 l 1
 80 196 l 1
 166 277 l 1
 80 358 l 1
 80 446 l 1
 208 323 l 1
 208 231 l 1
376 231 m 1
 248 108 l 1
 248 196 l 1
 334 277 l 1
 248 358 l 1
 248 446 l 1
 376 323 l 1
 376 231 l 1
EndSplineSet
EndChar

StartChar: onequarter
Encoding: 406 188 299
Width: 684
Flags: MW
HStem: -19 20 94 58<344 513 395 513 395 513 395 565 565 620>
VStem: 149 56<281 580 580 580> 513 52<0 94 0 94 152 342 342 342>
LayerCount: 2
Fore
SplineSet
344 94 m 1
 344 154 l 1
 513 422 l 1
 565 422 l 1
 565 152 l 1
 620 152 l 1
 620 94 l 1
 565 94 l 1
 565 0 l 1
 513 0 l 1
 513 94 l 1
 344 94 l 1
513 152 m 1
 513 342 l 1
 395 152 l 1
 513 152 l 1
536 703 m 1
 173 -19 l 1
 126 -19 l 1
 489 703 l 1
 536 703 l 1
149 580 m 1
 60 580 l 1
 60 623 l 1
 130 628 147 641 161 703 c 1
 205 703 l 1
 205 281 l 1
 149 281 l 1
 149 580 l 1
EndSplineSet
EndChar

StartChar: onehalf
Encoding: 405 189 298
Width: 684
Flags: W
HStem: -19 20 0 62<434 634 434 634> 375 58<492.5 530>
VStem: 124 58<281 577 577 577> 577 57<277.5 325>
LayerCount: 2
Fore
SplineSet
506 703 m 1xb8
 143 -19 l 1
 97 -19 l 1
 459 703 l 1
 506 703 l 1xb8
124 577 m 1
 35 577 l 1
 35 623 l 1
 105 628 122 641 136 703 c 1
 182 703 l 1
 182 281 l 1
 124 281 l 1
 124 577 l 1
434 271 m 1
 385 271 l 1
 386 330 394 359 416 388 c 0
 437 416 473 433 512 433 c 0
 585 433 634 377 634 296 c 0
 634 234 611 201 536 155 c 2
 499 132 l 2
 468 112 447 90 434 62 c 1
 634 62 l 1
 634 0 l 1
 372 0 l 1x78
 376 79 401 129 458 167 c 2
 507 200 l 2
 569 242 577 253 577 302 c 0
 577 348 552 375 508 375 c 0
 461 375 438 343 434 271 c 1
EndSplineSet
EndChar

StartChar: threequarters
Encoding: 407 190 300
Width: 684
Flags: W
HStem: -19 20 94 58<388 557 439 557 439 557 439 609 609 664> 270 58<148 190.5 141.5 205.5> 481 52<139 158 139 161> 656 58<142.5 185.5>
VStem: 229 57<580.5 616.5> 243 57<384 435.5> 557 52<0 94 0 94 152 342 342 342>
LayerCount: 2
Fore
SplineSet
388 94 m 1xfb
 388 154 l 1
 557 422 l 1
 609 422 l 1
 609 152 l 1
 664 152 l 1
 664 94 l 1
 609 94 l 1
 609 0 l 1
 557 0 l 1
 557 94 l 1
 388 94 l 1xfb
557 342 m 1
 439 152 l 1
 557 152 l 1
 557 342 l 1
584 703 m 1
 221 -19 l 1
 175 -19 l 1
 537 703 l 1
 584 703 l 1
37 421 m 1
 93 421 l 1
 97 353 117 328 166 328 c 0
 215 328 243 358 243 410 c 0xfa
 243 461 219 481 158 481 c 2
 139 481 l 1
 139 533 l 1
 161 533 l 2
 205 533 229 556 229 598 c 0
 229 635 206 656 165 656 c 0
 120 656 100 633 96 576 c 1
 46 576 l 1
 50 668 91 714 169 714 c 0
 240 714 286 670 286 602 c 0xfc
 286 559 269 529 235 515 c 1
 282 496 300 468 300 415 c 0
 300 328 246 270 165 270 c 0
 131 270 100 282 78 303 c 0
 53 327 43 358 37 421 c 1
EndSplineSet
EndChar

StartChar: questiondown
Encoding: 191 191 122
Width: 501
Flags: MW
HStem: -201 77<221 276.5> 423 102<217 297 217 297>
VStem: 75 77<-42 18 -42 25> 217 80<423 525 423 525>
LayerCount: 2
Fore
SplineSet
360 33 m 1
 432 33 l 1
 429 -56 419 -92 388 -132 c 0
 354 -176 304 -201 249 -201 c 0
 147 -201 75 -121 75 -6 c 0
 75 56 89 87 152 160 c 0
 214 232 223 255 223 343 c 1
 295 343 l 1
 294 239 284 211 218 128 c 0
 159 54 152 41 152 -5 c 0
 152 -79 190 -124 252 -124 c 0
 323 -124 358 -74 360 33 c 1
217 423 m 1
 217 525 l 1
 297 525 l 1
 297 423 l 1
 217 423 l 1
EndSplineSet
EndChar

StartChar: Agrave
Encoding: 258 192 151
Width: 547
Flags: MW
HStem: 0 20 209 87<179 362 179 391 155 362> 698 20<232 323 323 323>
LayerCount: 2
Fore
SplineSet
391 209 m 1
 155 209 l 1
 93 0 l 1
 11 0 l 1
 232 718 l 1
 323 718 l 1
 536 0 l 1
 449 0 l 1
 391 209 l 1
179 296 m 1
 362 296 l 1
 274 614 l 1
 179 296 l 1
255 788 m 1
 148 929 l 1
 237 929 l 1
 310 788 l 1
 255 788 l 1
EndSplineSet
EndChar

StartChar: Aacute
Encoding: 257 193 150
Width: 547
Flags: MW
HStem: 0 20 209 87<179 362 179 391 155 362> 698 20<232 323 323 323>
LayerCount: 2
Fore
SplineSet
391 209 m 1
 155 209 l 1
 93 0 l 1
 11 0 l 1
 232 718 l 1
 323 718 l 1
 536 0 l 1
 449 0 l 1
 391 209 l 1
179 296 m 1
 362 296 l 1
 274 614 l 1
 179 296 l 1
399 929 m 1
 292 788 l 1
 237 788 l 1
 310 929 l 1
 399 929 l 1
EndSplineSet
EndChar

StartChar: Acircumflex
Encoding: 259 194 152
Width: 547
Flags: MW
HStem: 0 20 209 87<179 362 179 391 155 362> 698 20<232 323 323 323>
LayerCount: 2
Fore
SplineSet
391 209 m 1
 155 209 l 1
 93 0 l 1
 11 0 l 1
 232 718 l 1
 323 718 l 1
 536 0 l 1
 449 0 l 1
 391 209 l 1
179 296 m 1
 362 296 l 1
 274 614 l 1
 179 296 l 1
273 881 m 1
 219 788 l 1
 154 788 l 1
 235 929 l 1
 312 929 l 1
 393 788 l 1
 327 788 l 1
 273 881 l 1
EndSplineSet
EndChar

StartChar: Atilde
Encoding: 261 195 154
Width: 547
Flags: W
HStem: 0 20 209 87<179 362 179 391 155 362> 698 20<232 323 323 323> 808 63<328 343.5 328 351.5> 845 63<200.5 215.5>
LayerCount: 2
Fore
SplineSet
391 209 m 1xe0
 155 209 l 1
 93 0 l 1
 11 0 l 1
 232 718 l 1
 323 718 l 1
 536 0 l 1
 449 0 l 1
 391 209 l 1xe0
179 296 m 1
 362 296 l 1
 274 614 l 1
 179 296 l 1
371 917 m 1x10
 412 917 l 1
 402 845 374 808 329 808 c 0x10
 317 808 304 812 282 821 c 2
 261 830 l 2
 236 841 221 845 210 845 c 0
 191 845 181 833 172 801 c 1
 133 801 l 1
 143 875 170 908 218 908 c 0x08
 235 908 255 903 274 893 c 2
 292 884 l 2
 308 876 323 871 333 871 c 0
 354 871 365 884 371 917 c 1x10
EndSplineSet
EndChar

StartChar: Aring
Encoding: 262 197 155
Width: 547
Flags: MW
HStem: 0 20 209 87<179 362 179 391 155 362> 698 20<232 323 323 323> 767 40 911 40
VStem: 11 33 129 33
LayerCount: 2
Fore
SplineSet
391 209 m 1
 155 209 l 1
 93 0 l 1
 11 0 l 1
 232 718 l 1
 323 718 l 1
 536 0 l 1
 449 0 l 1
 391 209 l 1
179 296 m 1
 362 296 l 1
 274 614 l 1
 179 296 l 1
274 944 m 0
 317 944 349 904 349 852 c 0
 349 799 317 760 273 760 c 0
 230 760 198 799 198 852 c 0
 198 905 230 944 274 944 c 0
274 904 m 0
 250 904 231 881 231 852 c 0
 231 823 250 800 273 800 c 0
 297 800 316 823 316 852 c 0
 316 880 297 904 274 904 c 0
EndSplineSet
EndChar

StartChar: Ccedilla
Encoding: 264 199 157
Width: 592
Flags: MW
HStem: -225 47<263.5 278 254.5 304> 650 87<252 333.5>
VStem: 36 82<263.5 446.5 263.5 474> 310 62<-149.5 -124.5>
LayerCount: 2
Fore
SplineSet
304 -19 m 1
 278 -62 l 1
 291 -59 297 -58 304 -58 c 0
 345 -58 372 -88 372 -133 c 0
 372 -187 332 -225 276 -225 c 0
 251 -225 229 -219 197 -203 c 1
 211 -163 l 1
 234 -175 246 -178 263 -178 c 0
 293 -178 310 -163 310 -136 c 0
 310 -113 293 -96 270 -96 c 0
 263 -96 255 -98 238 -105 c 1
 224 -86 l 1
 267 -17 l 1
 122 5 36 145 36 358 c 0
 36 590 143 737 311 737 c 0
 399 737 472 696 514 623 c 0
 536 586 545 558 552 502 c 1
 475 502 l 1
 462 559 449 586 420 612 c 0
 392 636 354 650 313 650 c 0
 191 650 118 539 118 354 c 0
 118 173 188 67 308 67 c 0
 363 67 405 91 438 140 c 1
 459 173 469 202 481 264 c 1
 558 264 l 1
 532 123 505 72 431 19 c 1
 394 -5 351 -18 304 -19 c 1
EndSplineSet
EndChar

StartChar: Ecircumflex
Encoding: 271 202 164
Width: 547
Flags: MW
HStem: 0 87<151 505 151 505 71 505> 325 87<151 472 151 472> 631 87<151 499 151 151>
VStem: 71 80<87 325 412 631>
LayerCount: 2
Fore
SplineSet
505 87 m 1
 505 0 l 1
 71 0 l 1
 71 718 l 1
 499 718 l 1
 499 631 l 1
 151 631 l 1
 151 412 l 1
 472 412 l 1
 472 325 l 1
 151 325 l 1
 151 87 l 1
 505 87 l 1
274 881 m 1
 220 788 l 1
 155 788 l 1
 236 929 l 1
 313 929 l 1
 394 788 l 1
 328 788 l 1
 274 881 l 1
EndSplineSet
EndChar

StartChar: Edieresis
Encoding: 268 203 161
Width: 547
Flags: W
HStem: 0 87<151 505 151 505 71 505> 325 87<151 472 151 472> 631 87<151 499 151 151> 799 102<170 245 170 245 170 302 302 377>
VStem: 71 75 71 80<87 325 412 631> 203 75
LayerCount: 2
Fore
SplineSet
505 87 m 1xf4
 505 0 l 1
 71 0 l 1
 71 718 l 1
 499 718 l 1
 499 631 l 1
 151 631 l 1
 151 412 l 1
 472 412 l 1
 472 325 l 1
 151 325 l 1
 151 87 l 1
 505 87 l 1xf4
245 901 m 1xfa
 245 799 l 1
 170 799 l 1
 170 901 l 1
 245 901 l 1xfa
377 901 m 1
 377 799 l 1
 302 799 l 1
 302 901 l 1
 377 901 l 1
EndSplineSet
EndChar

StartChar: Igrave
Encoding: 278 204 171
Width: 228
Flags: MW
HStem: 0 20 698 20<74 154 154 154>
VStem: 74 80<0 718 0 718>
LayerCount: 2
Fore
SplineSet
154 718 m 1
 154 0 l 1
 74 0 l 1
 74 718 l 1
 154 718 l 1
96 788 m 1
 -11 929 l 1
 78 929 l 1
 151 788 l 1
 96 788 l 1
EndSplineSet
EndChar

StartChar: Iacute
Encoding: 277 205 170
Width: 228
Flags: MW
HStem: 0 20 698 20<75 154 154 154>
VStem: 75 79<0 718 0 718>
LayerCount: 2
Fore
SplineSet
154 718 m 1
 154 0 l 1
 75 0 l 1
 75 718 l 1
 154 718 l 1
240 903 m 1
 133 762 l 1
 78 762 l 1
 151 903 l 1
 240 903 l 1
EndSplineSet
EndChar

StartChar: Icircumflex
Encoding: 279 206 172
Width: 228
Flags: MW
HStem: 0 20 698 20<75 155 155 155>
VStem: 75 80<0 718 0 718>
LayerCount: 2
Fore
SplineSet
155 718 m 1
 155 0 l 1
 75 0 l 1
 75 718 l 1
 155 718 l 1
114 881 m 1
 60 788 l 1
 -5 788 l 1
 76 929 l 1
 153 929 l 1
 234 788 l 1
 168 788 l 1
 114 881 l 1
EndSplineSet
EndChar

StartChar: Idieresis
Encoding: 276 207 169
Width: 228
Flags: W
HStem: 0 20 698 20<75 155 155 155> 799 102<11 86 11 86 11 143 143 218>
VStem: 11 75<799 901 799 901> 75 80<0 718 0 718> 143 75<799 901 799 901>
LayerCount: 2
Fore
SplineSet
155 718 m 1xe8
 155 0 l 1
 75 0 l 1
 75 718 l 1
 155 718 l 1xe8
86 901 m 1xf4
 86 799 l 1
 11 799 l 1
 11 901 l 1
 86 901 l 1xf4
218 901 m 1
 218 799 l 1
 143 799 l 1
 143 901 l 1
 218 901 l 1
EndSplineSet
EndChar

StartChar: Eth
Encoding: 389 208 282
Width: 592
Flags: MW
HStem: 0 83<146 301 301 302 66 301> 325 87<0 66 0 66 0 146 146 304> 635 83<146 295 146 146>
VStem: 66 80<83 325 83 325 83 325 412 635> 471 82<322.5 448>
LayerCount: 2
Fore
SplineSet
0 325 m 1
 0 412 l 1
 66 412 l 1
 66 718 l 1
 306 718 l 2
 455 718 553 580 553 372 c 0
 553 273 531 178 495 114 c 1
 450 38 387 0 302 0 c 2
 66 0 l 1
 66 325 l 1
 0 325 l 1
304 412 m 1
 304 325 l 1
 146 325 l 1
 146 83 l 1
 301 83 l 2
 406 83 471 188 471 359 c 0
 471 537 408 635 295 635 c 2
 146 635 l 1
 146 412 l 1
 304 412 l 1
EndSplineSet
EndChar

StartChar: Ntilde
Encoding: 285 209 178
Width: 592
Flags: W
HStem: 0 20 698 20<62 156 156 156 453 530 530 530> 808 63<360 375.5 360 383.5> 845 63<232.5 247.5>
VStem: 62 77<0 583 0 718> 453 77<135 718 0 718>
LayerCount: 2
Fore
SplineSet
453 135 m 1xcc
 453 718 l 1
 530 718 l 1
 530 0 l 1
 441 0 l 1
 139 583 l 1
 139 0 l 1
 62 0 l 1
 62 718 l 1
 156 718 l 1
 453 135 l 1xcc
403 917 m 1x2c
 444 917 l 1
 434 845 406 808 361 808 c 0x2c
 349 808 336 812 314 821 c 2
 293 830 l 2
 268 841 253 845 242 845 c 0
 223 845 213 833 204 801 c 1
 165 801 l 1
 175 875 202 908 250 908 c 0x1c
 267 908 287 903 306 893 c 2
 324 884 l 2
 340 876 355 871 365 871 c 0
 386 871 397 884 403 917 c 1x2c
EndSplineSet
EndChar

StartChar: Otilde
Encoding: 290 213 183
Width: 638
Flags: W
HStem: -19 87<278.5 359.5> 650 87<280.5 375 280.5 382> 808 63<375 390.5 375 398.5> 845 63<247.5 262.5>
VStem: 32 82<302 415> 524 82<302 397.5 302 445.5>
LayerCount: 2
Fore
SplineSet
323 737 m 0xcc
 427 737 508 682 559 580 c 0
 589 518 606 437 606 358 c 0
 606 246 574 144 517 72 c 0
 470 13 400 -19 319 -19 c 0
 238 -19 168 13 121 72 c 0
 64 144 32 246 32 358 c 0
 32 472 64 576 121 646 c 0
 170 706 238 737 323 737 c 0xcc
322 650 m 0
 195 650 114 536 114 358 c 0
 114 184 196 68 319 68 c 0
 442 68 524 184 524 359 c 0
 524 532 442 650 322 650 c 0
418 917 m 1x2c
 459 917 l 1
 449 845 421 808 376 808 c 0x2c
 364 808 351 812 329 821 c 2
 308 830 l 2
 283 841 268 845 257 845 c 0
 238 845 228 833 219 801 c 1
 180 801 l 1
 190 875 217 908 265 908 c 0x1c
 282 908 302 903 321 893 c 2
 339 884 l 2
 355 876 370 871 380 871 c 0
 401 871 412 884 418 917 c 1x2c
EndSplineSet
EndChar

StartChar: multiply
Encoding: 401 215 294
Width: 479
Flags: MW
HStem: 0 20
LayerCount: 2
Fore
SplineSet
198 253 m 1
 32 455 l 1
 75 506 l 1
 239 305 l 1
 405 506 l 1
 447 455 l 1
 282 253 l 1
 447 51 l 1
 405 0 l 1
 239 201 l 1
 74 0 l 1
 32 51 l 1
 198 253 l 1
EndSplineSet
EndChar

StartChar: Oslash
Encoding: 233 216 140
Width: 638
Flags: MW
HStem: -19 87<60 126 289.5 359> 523 20<484 484> 650 87<279 349>
VStem: 32 82<322.5 416> 524 82<302 396>
LayerCount: 2
Fore
SplineSet
607 707 m 1
 539 616 l 1
 586 533 606 457 606 358 c 0
 606 246 574 144 517 72 c 0
 470 13 400 -19 318 -19 c 0
 239 -19 183 6 126 68 c 1
 60 -19 l 1
 34 9 l 1
 102 99 l 1
 53 183 32 259 32 360 c 0
 32 472 64 574 121 646 c 0
 168 705 238 737 320 737 c 0
 401 737 458 711 515 648 c 1
 582 737 l 1
 607 707 l 1
484 543 m 1
 178 138 l 1
 220 89 261 68 318 68 c 0
 442 68 524 184 524 359 c 0
 524 433 513 485 484 543 c 1
156 171 m 1
 463 578 l 1
 420 629 378 650 320 650 c 0
 196 650 114 534 114 359 c 0
 114 286 126 232 156 171 c 1
EndSplineSet
EndChar

StartChar: Uacute
Encoding: 299 218 192
Width: 592
Flags: MW
HStem: -19 87<247 343.5 247 364> 698 20<65 145 145 145 448 528 528 528>
VStem: 65 80<239 266 266 718> 448 80<264 718>
LayerCount: 2
Fore
SplineSet
448 718 m 1
 528 718 l 1
 528 252 l 2
 528 87 436 -19 292 -19 c 0
 153 -19 65 81 65 239 c 2
 65 718 l 1
 145 718 l 1
 145 266 l 2
 145 139 199 68 295 68 c 0
 392 68 448 139 448 264 c 2
 448 718 l 1
422 929 m 1
 315 788 l 1
 260 788 l 1
 333 929 l 1
 422 929 l 1
EndSplineSet
EndChar

StartChar: Udieresis
Encoding: 298 220 191
Width: 592
Flags: W
HStem: -19 87<247 343.5 247 364> 698 20<65 145 145 145 448 528 528 528> 799 102<193 268 193 268 193 325 325 400>
VStem: 65 75 65 80<239 266 266 718> 197 75 448 80<264 718>
LayerCount: 2
Fore
SplineSet
448 718 m 1xea
 528 718 l 1
 528 252 l 2
 528 87 436 -19 292 -19 c 0
 153 -19 65 81 65 239 c 2
 65 718 l 1
 145 718 l 1
 145 266 l 2
 145 139 199 68 295 68 c 0
 392 68 448 139 448 264 c 2
 448 718 l 1xea
268 901 m 1xf4
 268 799 l 1
 193 799 l 1
 193 901 l 1
 268 901 l 1xf4
400 901 m 1
 400 799 l 1
 325 799 l 1
 325 901 l 1
 400 901 l 1
EndSplineSet
EndChar

StartChar: Yacute
Encoding: 304 221 197
Width: 547
Flags: MW
HStem: 0 20 698 20<11 104 104 104 442 535 535 535>
VStem: 233 80<0 289 0 289>
LayerCount: 2
Fore
SplineSet
313 289 m 1
 313 0 l 1
 233 0 l 1
 233 289 l 1
 11 718 l 1
 104 718 l 1
 273 373 l 1
 442 718 l 1
 535 718 l 1
 313 289 l 1
398 929 m 1
 291 788 l 1
 236 788 l 1
 309 929 l 1
 398 929 l 1
EndSplineSet
EndChar

StartChar: Thorn
Encoding: 391 222 284
Width: 547
Flags: MW
HStem: 0 20 184 83<151 308 308 335 151 308> 516 83<151 335 151 311> 698 20<71 151 151 151>
VStem: 71 80<0 184 267 516 599 718> 428 82<351 434.5>
LayerCount: 2
Fore
SplineSet
71 0 m 1
 71 718 l 1
 151 718 l 1
 151 599 l 1
 335 599 l 2
 440 599 510 518 510 396 c 0
 510 268 441 184 335 184 c 2
 151 184 l 1
 151 0 l 1
 71 0 l 1
151 516 m 1
 151 267 l 1
 308 267 l 2
 388 267 428 309 428 393 c 0
 428 476 390 516 311 516 c 2
 151 516 l 1
EndSplineSet
EndChar

StartChar: germandbls
Encoding: 251 223 148
Width: 501
Flags: W
HStem: -15 78<254 293.5> 354 73<247 284 241.5 300.5> 651 77<203 282.5>
VStem: 55 72<0 510 0 532 0 593.5> 368 72<513.5 573> 393 75<191 261.5>
LayerCount: 2
Fore
SplineSet
218 -8 m 1xe4
 218 67 l 1
 228 65 242 63 253 63 c 0
 345 63 393 115 393 214 c 0xe4
 393 309 348 354 253 354 c 0
 241 354 232 353 222 350 c 1
 222 429 l 1
 227 428 238 427 245 427 c 0
 323 427 368 468 368 538 c 0
 368 608 321 651 244 651 c 0
 162 651 127 609 127 510 c 2
 127 0 l 1
 55 0 l 1
 55 532 l 2
 55 655 127 728 247 728 c 0
 365 728 440 657 440 546 c 0xf8
 440 481 420 437 373 400 c 1
 434 374 468 311 468 223 c 0
 468 159 448 95 413 51 c 0
 380 9 325 -15 262 -15 c 0
 246 -15 237 -14 221 -9 c 2
 218 -8 l 1xe4
EndSplineSet
EndChar

StartChar: aring
Encoding: 328 229 221
Width: 456
Flags: W
HStem: -15 73<157.5 197.5> -10 70<368.5 413> 465 73<189.5 250.5> 572 40 716 40
VStem: 30 33 30 75<118 172 118 183.5> 148 33 315 72<181 267 267 267>
LayerCount: 2
Fore
SplineSet
117 364 m 1xa280
 51 364 l 1
 54 416 60 441 77 469 c 0
 105 514 156 538 223 538 c 0
 325 538 387 483 387 392 c 2
 387 91 l 2
 387 71 395 60 410 60 c 0
 416 60 420 61 435 64 c 1
 435 0 l 1
 432 -1 431 -1 426 -3 c 0
 412 -8 404 -10 393 -10 c 0x6280
 344 -10 324 13 319 70 c 1
 272 10 228 -15 167 -15 c 0
 84 -15 30 46 30 138 c 0
 30 229 77 287 160 300 c 2
 279 318 l 2
 306 322 317 340 317 378 c 0
 317 435 283 465 218 465 c 0
 155 465 127 437 117 364 c 1xa280
315 181 m 2x8280
 315 267 l 1
 300 253 279 248 197 234 c 0
 131 223 105 198 105 146 c 0
 105 90 133 58 182 58 c 0
 254 58 315 115 315 181 c 2x8280
230 769 m 0x1d
 273 769 305 729 305 677 c 0
 305 624 273 585 229 585 c 0
 186 585 154 624 154 677 c 0
 154 730 186 769 230 769 c 0x1d
230 729 m 0
 206 729 187 706 187 677 c 0
 187 648 206 625 229 625 c 0
 253 625 272 648 272 677 c 0
 272 705 253 729 230 729 c 0
EndSplineSet
EndChar

StartChar: ae
Encoding: 241 230 143
Width: 729
Flags: W
HStem: -15 73<157.5 194> -15 77<482 526.5> 233 70<381 620 381 695 381 620> 460 78<478 522.5> 465 73<192 250.5>
VStem: 30 75<118 171.5 118 183.5>
LayerCount: 2
Fore
SplineSet
617 164 m 1x74
 689 164 l 1
 680 109 658 64 624 31 c 0
 591 -1 553 -15 500 -15 c 0x74
 423 -15 376 17 339 94 c 1
 320 62 309 48 293 32 c 1
 260 2 217 -15 171 -15 c 0
 85 -15 30 44 30 138 c 0
 30 229 77 287 160 300 c 2
 279 318 l 2
 306 322 317 340 317 378 c 0
 317 435 283 465 218 465 c 0
 155 465 128 438 117 364 c 1
 51 364 l 1
 54 416 60 441 77 469 c 0
 105 515 156 538 228 538 c 0x8c
 292 538 323 522 367 464 c 1
 414 520 448 538 508 538 c 0
 577 538 625 506 658 437 c 0
 683 386 691 336 695 233 c 1
 381 233 l 1
 383 175 389 146 407 117 c 1
 427 81 461 62 503 62 c 0
 561 62 609 105 617 164 c 1x74
381 303 m 1
 620 303 l 1
 616 357 609 383 592 410 c 0
 573 442 541 460 504 460 c 0
 435 460 386 397 381 303 c 1
315 181 m 2x84
 315 267 l 1
 301 253 279 248 197 234 c 0
 132 223 105 197 105 146 c 0
 105 90 133 58 182 58 c 0
 254 58 315 115 315 181 c 2x84
EndSplineSet
EndChar

StartChar: ccedilla
Encoding: 332 231 225
Width: 410
Flags: MW
HStem: -225 47<172.5 187 164 213.5> 460 78<183.5 249.5>
VStem: 25 77<195.5 322.5 195.5 339.5> 219 62<-149 -124.5>
LayerCount: 2
Fore
SplineSet
216 -15 m 1
 187 -62 l 1
 199 -59 206 -58 213 -58 c 0
 254 -58 281 -88 281 -133 c 0
 281 -187 242 -225 185 -225 c 0
 160 -225 138 -219 106 -203 c 1
 120 -163 l 1
 144 -175 156 -178 172 -178 c 0
 202 -178 219 -162 219 -136 c 0
 219 -113 202 -96 179 -96 c 0
 173 -96 164 -98 148 -105 c 1
 134 -86 l 1
 179 -11 l 1
 83 9 25 108 25 252 c 0
 25 427 104 538 228 538 c 0
 324 538 378 475 391 347 c 1
 321 347 l 1
 309 426 278 460 221 460 c 0
 146 460 102 386 102 259 c 0
 102 132 143 61 216 61 c 0
 271 61 306 102 321 185 c 1
 391 185 l 1
 378 58 313 -16 216 -15 c 1
EndSplineSet
EndChar

StartChar: edieresis
Encoding: 334 235 227
Width: 456
Flags: MW
HStem: -15 77<211 261 211 279.5> 233 70<110 348 110 423 110 348> 460 78<198.5 251.5> 604 102<125 200 125 200 125 257 257 332>
VStem: 33 75 165 75
LayerCount: 2
Fore
SplineSet
345 164 m 1
 417 164 l 1
 398 51 329 -15 230 -15 c 0
 108 -15 33 87 33 252 c 0
 33 427 112 538 236 538 c 0
 305 538 353 506 386 437 c 0
 411 385 420 336 423 233 c 1
 110 233 l 1
 112 174 118 146 135 117 c 0
 156 81 190 62 232 62 c 0
 290 62 338 105 345 164 c 1
110 303 m 1
 348 303 l 1
 344 357 337 383 321 410 c 0
 301 442 270 460 233 460 c 0
 164 460 114 397 110 303 c 1
200 706 m 1
 200 604 l 1
 125 604 l 1
 125 706 l 1
 200 706 l 1
332 706 m 1
 332 604 l 1
 257 604 l 1
 257 706 l 1
 332 706 l 1
EndSplineSet
EndChar

StartChar: igrave
Encoding: 344 236 237
Width: 228
Flags: MW
HStem: 0 20 503 20<78 150 150 150> 714 20<-11 78 78 78>
VStem: 78 72<0 523 0 523>
LayerCount: 2
Fore
SplineSet
150 523 m 1
 150 0 l 1
 78 0 l 1
 78 523 l 1
 150 523 l 1
96 593 m 1
 -11 734 l 1
 78 734 l 1
 151 593 l 1
 96 593 l 1
EndSplineSet
EndChar

StartChar: iacute
Encoding: 343 237 236
Width: 228
Flags: MW
HStem: 0 20 503 20<78 150 150 150> 714 20<151 240 240 240>
VStem: 78 72<0 523 0 523 0 593>
LayerCount: 2
Fore
SplineSet
150 523 m 1
 150 0 l 1
 78 0 l 1
 78 523 l 1
 150 523 l 1
240 734 m 1
 133 593 l 1
 78 593 l 1
 151 734 l 1
 240 734 l 1
EndSplineSet
EndChar

StartChar: icircumflex
Encoding: 345 238 238
Width: 228
Flags: MW
HStem: 0 20 503 20<78 150 150 150> 714 20<76 153 153 153>
VStem: 78 72<0 523 0 523>
LayerCount: 2
Fore
SplineSet
150 523 m 1
 150 0 l 1
 78 0 l 1
 78 523 l 1
 150 523 l 1
114 686 m 1
 60 593 l 1
 -5 593 l 1
 76 734 l 1
 153 734 l 1
 234 593 l 1
 168 593 l 1
 114 686 l 1
EndSplineSet
EndChar

StartChar: idieresis
Encoding: 342 239 235
Width: 228
Flags: W
HStem: 0 20 503 20<78 150 150 150> 604 102<11 86 11 86 11 143 143 218>
VStem: 11 75<604 706 604 706> 78 72<0 523 0 523> 143 75<604 706 604 706>
LayerCount: 2
Fore
SplineSet
150 523 m 1xe8
 150 0 l 1
 78 0 l 1
 78 523 l 1
 150 523 l 1xe8
86 706 m 1xf4
 86 604 l 1
 11 604 l 1
 11 706 l 1
 86 706 l 1xf4
218 706 m 1
 218 604 l 1
 143 604 l 1
 143 706 l 1
 218 706 l 1
EndSplineSet
EndChar

StartChar: eth
Encoding: 393 240 286
Width: 456
Flags: MW
HStem: -15 77<208.5 250 208.5 290.5> 446 77<207.5 242 164 265.5> 717 20<185 185 346 346>
VStem: 29 75<230.5 275 230.5 331> 353 75<233.5 310>
LayerCount: 2
Fore
SplineSet
385 697 m 1
 297 646 l 1
 352 578 374 541 397 476 c 0
 418 416 428 357 428 290 c 0
 428 104 351 -15 230 -15 c 0
 112 -15 29 96 29 253 c 0
 29 409 109 523 219 523 c 0
 265 523 293 508 330 463 c 1
 309 522 282 565 236 612 c 1
 135 550 l 1
 100 592 l 1
 197 649 l 1
 173 671 152 686 124 701 c 1
 185 737 l 1
 215 722 235 708 259 686 c 1
 346 737 l 1
 385 697 l 1
230 446 m 0
 185 446 153 423 130 376 c 0
 114 344 104 296 104 254 c 0
 104 207 116 154 135 121 c 0
 158 81 189 62 228 62 c 0
 272 62 305 85 327 132 c 0
 343 164 353 213 353 254 c 0
 353 366 301 446 230 446 c 0
EndSplineSet
EndChar

StartChar: ntilde
Encoding: 350 241 243
Width: 456
Flags: W
HStem: 0 20 460 78<228.5 273.5> 503 20<53 121 121 121> 613 63<275 290.5 275 298.5> 650 63<147.5 162.5> 698 20 702 20<318 359 359 359>
VStem: 53 68<446 523 446 523 446 523> 53 72<0 285 0 523> 331 72<0 322 322 356 0 370>
LayerCount: 2
Fore
SplineSet
121 523 m 1xa1
 121 446 l 1x21
 158 511 199 538 258 538 c 0
 349 538 403 471 403 356 c 2
 403 0 l 1
 331 0 l 1
 331 322 l 2
 331 418 304 460 243 460 c 0xc0c0
 170 460 125 394 125 285 c 2
 125 0 l 1
 53 0 l 1
 53 523 l 1xa0c0
 121 523 l 1xa1
318 722 m 1x12
 359 722 l 1
 349 650 321 613 276 613 c 0x12
 264 613 251 617 229 626 c 2
 208 635 l 2
 183 646 168 650 157 650 c 0
 138 650 128 638 119 606 c 1
 80 606 l 1
 90 680 117 713 165 713 c 0x08
 182 713 202 708 221 698 c 2x04
 239 689 l 2
 255 681 270 676 280 676 c 0
 301 676 312 689 318 722 c 1x12
EndSplineSet
EndChar

StartChar: otilde
Encoding: 355 245 248
Width: 456
Flags: W
HStem: -14 77<190.5 265.5 190.5 287> 461 77<191 266.5> 613 63<284 299.5 284 307.5> 650 63<156.5 171.5> 698 20 702 20<327 368 368 368>
VStem: 29 75<201.5 323 201.5 344.5> 352 75<201.5 322>
LayerCount: 2
Fore
SplineSet
231 538 m 0xc3
 346 538 427 423 427 262 c 0
 427 99 346 -14 228 -14 c 0
 111 -14 29 99 29 262 c 0
 29 427 110 538 231 538 c 0xc3
230 461 m 0
 152 461 104 384 104 262 c 0
 104 141 153 63 228 63 c 0
 303 63 352 141 352 262 c 0
 352 382 303 461 230 461 c 0
327 722 m 1x27
 368 722 l 1
 358 650 330 613 285 613 c 0x27
 273 613 260 617 238 626 c 2
 217 635 l 2
 192 646 177 650 166 650 c 0
 147 650 137 638 128 606 c 1
 89 606 l 1
 99 680 126 713 174 713 c 0x13
 191 713 211 708 230 698 c 2x0b
 248 689 l 2
 264 681 279 676 289 676 c 0
 310 676 321 689 327 722 c 1x27
EndSplineSet
EndChar

StartChar: divide
Encoding: 402 247 295
Width: 479
Flags: MW
HStem: -19 20 216 73<32 447 32 447> 504 20<225.5 255.5>
LayerCount: 2
Fore
SplineSet
447 216 m 1
 32 216 l 1
 32 289 l 1
 447 289 l 1
 447 216 l 1
241 524 m 0
 270 524 296 492 296 456 c 0
 296 421 269 388 240 388 c 0
 210 388 184 420 184 456 c 0
 184 493 210 524 241 524 c 0
241 117 m 0
 270 117 296 85 296 50 c 0
 296 14 269 -19 240 -19 c 0
 210 -19 184 13 184 49 c 0
 184 86 210 117 241 117 c 0
EndSplineSet
EndChar

StartChar: oslash
Encoding: 249 248 146
Width: 501
Flags: MW
HStem: -14 77<209.5 265 209.5 286> 461 77<190.5 247>
VStem: 29 75<241 322.5 241 344> 352 75<201.5 282.5>
LayerCount: 2
Fore
SplineSet
440 519 m 1
 383 441 l 1
 414 383 427 331 427 261 c 0
 427 98 345 -14 227 -14 c 0
 175 -14 137 4 98 46 c 1
 48 -22 l 1
 23 4 l 1
 75 76 l 1
 43 135 29 191 29 262 c 0
 29 426 110 538 229 538 c 0
 283 538 322 519 362 473 c 1
 415 545 l 1
 440 519 l 1
124 143 m 1
 317 410 l 1
 292 446 266 461 228 461 c 0
 153 461 104 383 104 262 c 0
 104 220 110 183 124 143 c 1
334 373 m 1
 143 108 l 1
 166 77 192 63 227 63 c 0
 303 63 352 141 352 262 c 0
 352 303 347 335 334 373 c 1
EndSplineSet
EndChar

StartChar: ugrave
Encoding: 364 249 257
Width: 456
Flags: W
HStem: -15 77<183.5 229> 503 20<56 128 128 128 329 401 401 401> 714 20<104 193 193 193>
VStem: 56 72<147 176 176 523> 329 72<235 523> 333 68<0 81 81 81>
LayerCount: 2
Fore
SplineSet
401 0 m 1xf8
 333 0 l 1
 333 81 l 1xe4
 295 9 261 -15 197 -15 c 0
 109 -15 56 45 56 147 c 2
 56 523 l 1
 128 523 l 1
 128 176 l 2
 128 101 156 62 211 62 c 0
 283 62 329 129 329 235 c 2
 329 523 l 1
 401 523 l 1
 401 0 l 1xf8
211 593 m 1xe0
 104 734 l 1
 193 734 l 1
 266 593 l 1
 211 593 l 1xe0
EndSplineSet
EndChar

StartChar: udieresis
Encoding: 362 252 255
Width: 456
Flags: W
HStem: -15 77<183.5 229> 503 20<56 128 128 128 329 401 401 401> 604 102<125 200 125 200 125 257 257 332>
VStem: 56 72<147 176 176 523> 56 75 188 75 329 72<235 523> 333 68<0 81 81 81>
LayerCount: 2
Fore
SplineSet
401 0 m 1xf2
 333 0 l 1
 333 81 l 1xe1
 295 9 261 -15 197 -15 c 0
 109 -15 56 45 56 147 c 2
 56 523 l 1
 128 523 l 1
 128 176 l 2
 128 101 156 62 211 62 c 0
 283 62 329 129 329 235 c 2
 329 523 l 1
 401 523 l 1
 401 0 l 1xf2
200 706 m 1xec
 200 604 l 1
 125 604 l 1
 125 706 l 1
 200 706 l 1xec
332 706 m 1
 332 604 l 1
 257 604 l 1
 257 706 l 1
 332 706 l 1
EndSplineSet
EndChar

StartChar: yacute
Encoding: 368 253 261
Width: 410
Flags: MW
HStem: -214 79<84.5 107 84.5 126> 503 20<9 90 90 90 321 401 401 401> 714 20<242 331 331 331>
LayerCount: 2
Fore
SplineSet
205 94 m 1
 321 523 l 1
 401 523 l 1
 246 10 l 1
 182 -197 169 -214 83 -214 c 0
 73 -214 67 -213 54 -208 c 2
 48 -206 l 1
 48 -126 l 1
 62 -132 77 -135 92 -135 c 0
 122 -135 134 -121 150 -68 c 0
 153 -60 160 -38 168 -14 c 1
 9 523 l 1
 90 523 l 1
 205 94 l 1
331 734 m 1
 224 593 l 1
 169 593 l 1
 242 734 l 1
 331 734 l 1
EndSplineSet
EndChar

StartChar: thorn
Encoding: 394 254 287
Width: 456
Flags: MW
HStem: -207 20 -15 77<210.5 270.5 198 293.5> 460 78<217.5 272> 698 20<48 120 120 120>
VStem: 48 72<-207 58 448 718> 349 75<205 332.5>
LayerCount: 2
Fore
SplineSet
48 -207 m 1
 48 718 l 1
 120 718 l 1
 120 448 l 1
 155 513 189 538 246 538 c 0
 353 538 424 433 424 274 c 0
 424 100 350 -15 237 -15 c 0
 184 -15 149 7 120 58 c 1
 120 -207 l 1
 48 -207 l 1
235 460 m 0
 157 460 117 387 117 244 c 0
 117 131 162 62 234 62 c 0
 307 62 349 139 349 271 c 0
 349 394 309 460 235 460 c 0
EndSplineSet
EndChar

StartChar: ydieresis
Encoding: 372 255 265
Width: 410
Flags: MW
HStem: -214 79<84.5 107 84.5 126> 503 20<9 90 90 90 321 401 401 401> 604 102<102 177 102 177 102 234 234 309>
VStem: 9 75 141 75
LayerCount: 2
Fore
SplineSet
205 94 m 1
 321 523 l 1
 401 523 l 1
 246 10 l 1
 182 -197 169 -214 83 -214 c 0
 73 -214 67 -213 54 -208 c 2
 48 -206 l 1
 48 -126 l 1
 62 -132 77 -135 92 -135 c 0
 122 -135 134 -121 150 -68 c 0
 153 -60 160 -38 168 -14 c 1
 9 523 l 1
 90 523 l 1
 205 94 l 1
177 706 m 1
 177 604 l 1
 102 604 l 1
 102 706 l 1
 177 706 l 1
309 706 m 1
 309 604 l 1
 234 604 l 1
 234 706 l 1
 309 706 l 1
EndSplineSet
EndChar

StartChar: Amacron
Encoding: 308 256 201
Width: 547
Flags: MW
HStem: 0 20 209 87<179 362 179 391 155 362> 698 20<232 323 323 323> 822 57<145 402 145 402>
VStem: 11 257
LayerCount: 2
Fore
SplineSet
391 209 m 1
 155 209 l 1
 93 0 l 1
 11 0 l 1
 232 718 l 1
 323 718 l 1
 536 0 l 1
 449 0 l 1
 391 209 l 1
179 296 m 1
 362 296 l 1
 274 614 l 1
 179 296 l 1
402 879 m 1
 402 822 l 1
 145 822 l 1
 145 879 l 1
 402 879 l 1
EndSplineSet
EndChar

StartChar: amacron
Encoding: 374 257 267
Width: 456
Flags: W
HStem: -15 73<157.5 197.5> -10 70<368.5 413> 465 73<189.5 250.5> 627 57<100 357 100 357>
VStem: 30 75<118 172 118 183.5> 30 257 315 72<181 267 267 267>
LayerCount: 2
Fore
SplineSet
117 364 m 1xaa
 51 364 l 1
 54 416 60 441 77 469 c 0
 105 514 156 538 223 538 c 0
 325 538 387 483 387 392 c 2
 387 91 l 2
 387 71 395 60 410 60 c 0
 416 60 420 61 435 64 c 1
 435 0 l 1
 432 -1 431 -1 426 -3 c 0
 412 -8 404 -10 393 -10 c 0x6a
 344 -10 324 13 319 70 c 1
 272 10 228 -15 167 -15 c 0
 84 -15 30 46 30 138 c 0
 30 229 77 287 160 300 c 2
 279 318 l 2
 306 322 317 340 317 378 c 0
 317 435 283 465 218 465 c 0
 155 465 127 437 117 364 c 1xaa
315 181 m 2x8a
 315 267 l 1
 300 253 279 248 197 234 c 0
 131 223 105 198 105 146 c 0
 105 90 133 58 182 58 c 0
 254 58 315 115 315 181 c 2x8a
357 684 m 1x14
 357 627 l 1
 100 627 l 1
 100 684 l 1
 357 684 l 1x14
EndSplineSet
EndChar

StartChar: Abreve
Encoding: 260 258 153
Width: 547
Flags: MW
HStem: 0 20 209 87<179 362 179 391 155 362> 698 20<232 323 323 323> 790 57<252.5 300.5 252.5 310>
LayerCount: 2
Fore
SplineSet
391 209 m 1
 155 209 l 1
 93 0 l 1
 11 0 l 1
 232 718 l 1
 323 718 l 1
 536 0 l 1
 449 0 l 1
 391 209 l 1
179 296 m 1
 362 296 l 1
 274 614 l 1
 179 296 l 1
361 926 m 1
 400 926 l 1
 388 832 349 790 271 790 c 0
 196 790 158 832 148 926 c 1
 188 926 l 1
 190 919 l 1
 203 869 229 847 276 847 c 0
 325 847 346 867 361 926 c 1
EndSplineSet
EndChar

StartChar: abreve
Encoding: 326 259 219
Width: 456
Flags: W
HStem: -15 73<157.5 197.5> -10 70<368.5 413> 465 73<189.5 250.5> 595 57<207.5 255.5 207.5 265> 711 20<103 143 143 143 316 355 355 355>
VStem: 30 75<118 172 118 183.5> 315 72<181 267 267 267>
LayerCount: 2
Fore
SplineSet
117 364 m 1xa6
 51 364 l 1
 54 416 60 441 77 469 c 0
 105 514 156 538 223 538 c 0
 325 538 387 483 387 392 c 2
 387 91 l 2
 387 71 395 60 410 60 c 0
 416 60 420 61 435 64 c 1
 435 0 l 1
 432 -1 431 -1 426 -3 c 0
 412 -8 404 -10 393 -10 c 0x66
 344 -10 324 13 319 70 c 1
 272 10 228 -15 167 -15 c 0
 84 -15 30 46 30 138 c 0
 30 229 77 287 160 300 c 2
 279 318 l 2
 306 322 317 340 317 378 c 0
 317 435 283 465 218 465 c 0
 155 465 127 437 117 364 c 1xa6
315 181 m 2x86
 315 267 l 1
 300 253 279 248 197 234 c 0
 131 223 105 198 105 146 c 0
 105 90 133 58 182 58 c 0
 254 58 315 115 315 181 c 2x86
316 731 m 1x1e
 355 731 l 1
 343 637 304 595 226 595 c 0
 151 595 113 637 103 731 c 1
 143 731 l 1
 145 724 l 1
 158 674 184 652 231 652 c 0
 280 652 301 672 316 731 c 1x1e
EndSplineSet
EndChar

StartChar: Aogonek
Encoding: 263 260 156
Width: 547
Flags: MW
HStem: -225 47<485 499.5> 209 87<179 362 179 391 155 362> 698 20<232 323 323 323>
VStem: 392 62<-142.5 -114>
LayerCount: 2
Fore
SplineSet
391 209 m 1
 155 209 l 1
 93 0 l 1
 11 0 l 1
 232 718 l 1
 323 718 l 1
 536 0 l 1
 536 -4 l 1
 471 -49 454 -74 454 -124 c 0
 454 -161 469 -178 501 -178 c 0
 517 -178 528 -175 553 -163 c 1
 567 -203 l 1
 537 -218 512 -225 487 -225 c 0
 431 -225 392 -187 392 -133 c 0
 392 -95 406 -57 431 -31 c 0
 444 -17 452 -13 481 0 c 1
 449 0 l 1
 391 209 l 1
179 296 m 1
 362 296 l 1
 274 614 l 1
 179 296 l 1
EndSplineSet
EndChar

StartChar: aogonek
Encoding: 329 261 222
Width: 456
Flags: W
HStem: -225 47<384 398.5> -15 73<157.5 197.5> 465 73<189.5 250.5>
VStem: 30 75<118 172 118 183.5> 291 62<-142.5 -104.5> 315 72<181 267 267 267>
LayerCount: 2
Fore
SplineSet
435 64 m 1xf4
 435 -4 l 1
 370 -49 353 -74 353 -124 c 0
 353 -161 368 -178 400 -178 c 0
 416 -178 427 -175 452 -163 c 1
 466 -203 l 1
 436 -218 411 -225 386 -225 c 0
 330 -225 291 -187 291 -133 c 0xe8
 291 -76 319 -28 366 -6 c 1
 335 3 322 25 319 70 c 1
 272 10 228 -15 167 -15 c 0
 84 -15 30 46 30 138 c 0
 30 229 77 287 160 300 c 2
 279 318 l 2
 306 322 317 340 317 378 c 0
 317 435 283 465 218 465 c 0
 155 465 127 437 117 364 c 1
 51 364 l 1
 54 416 60 441 77 469 c 0
 105 514 156 538 223 538 c 0
 325 538 387 483 387 392 c 2
 387 91 l 2
 387 71 395 60 410 60 c 0
 416 60 420 61 435 64 c 1xf4
315 181 m 2xf4
 315 267 l 1
 300 253 279 248 197 234 c 0
 131 223 105 198 105 146 c 0
 105 90 133 58 182 58 c 0
 254 58 315 115 315 181 c 2xf4
EndSplineSet
EndChar

StartChar: Cacute
Encoding: 265 262 158
Width: 592
Flags: MW
HStem: -19 87<248 333.5> 650 87<252 333.5>
VStem: 36 82<264 447 264 474>
LayerCount: 2
Fore
SplineSet
552 502 m 1
 475 502 l 1
 462 559 449 586 420 612 c 0
 392 636 354 650 313 650 c 0
 191 650 118 539 118 355 c 0
 118 173 188 68 308 68 c 0
 363 68 405 92 438 141 c 0
 459 173 469 202 481 264 c 1
 558 264 l 1
 538 151 516 99 471 53 c 1
 427 6 366 -19 301 -19 c 0
 139 -19 36 127 36 358 c 0
 36 590 143 737 311 737 c 0
 399 737 472 696 514 623 c 0
 536 586 545 558 552 502 c 1
422 903 m 1
 315 762 l 1
 260 762 l 1
 333 903 l 1
 422 903 l 1
EndSplineSet
EndChar

StartChar: Ccircumflex
Encoding: 624 264 517
Width: 592
Flags: MW
HStem: -19 87<248 333.5> 650 87<252 333.5>
VStem: 36 82<264 447 264 474>
LayerCount: 2
Fore
SplineSet
334 911 m 1
 280 818 l 1
 215 818 l 1
 296 959 l 1
 373 959 l 1
 454 818 l 1
 388 818 l 1
 334 911 l 1
552 502 m 1
 475 502 l 1
 462 559 449 586 420 612 c 0
 392 636 354 650 313 650 c 0
 191 650 118 539 118 355 c 0
 118 173 188 68 308 68 c 0
 363 68 405 92 438 141 c 0
 459 173 469 202 481 264 c 1
 558 264 l 1
 538 151 516 99 471 53 c 1
 427 6 366 -19 301 -19 c 0
 139 -19 36 127 36 358 c 0
 36 590 143 737 311 737 c 0
 399 737 472 696 514 623 c 0
 536 586 545 558 552 502 c 1
EndSplineSet
EndChar

StartChar: Cdotaccent
Encoding: 626 266 519
Width: 592
Flags: MW
HStem: -19 87<248 333.5> 650 87<252 333.5> 818 102<297 372 297 372>
VStem: 36 82<264 447 264 474> 297 75<818 920 818 920>
LayerCount: 2
Fore
SplineSet
372 920 m 1
 372 818 l 1
 297 818 l 1
 297 920 l 1
 372 920 l 1
552 502 m 1
 475 502 l 1
 462 559 449 586 420 612 c 0
 392 636 354 650 313 650 c 0
 191 650 118 539 118 355 c 0
 118 173 188 68 308 68 c 0
 363 68 405 92 438 141 c 0
 459 173 469 202 481 264 c 1
 558 264 l 1
 538 151 516 99 471 53 c 1
 427 6 366 -19 301 -19 c 0
 139 -19 36 127 36 358 c 0
 36 590 143 737 311 737 c 0
 399 737 472 696 514 623 c 0
 536 586 545 558 552 502 c 1
EndSplineSet
EndChar

StartChar: Ccaron
Encoding: 266 268 159
Width: 592
Flags: MW
HStem: -19 87<248 333.5> 650 87<252 333.5>
VStem: 36 82<264 447 264 474>
LayerCount: 2
Fore
SplineSet
552 502 m 1
 475 502 l 1
 462 559 449 586 420 612 c 0
 392 636 354 650 313 650 c 0
 191 650 118 539 118 355 c 0
 118 173 188 68 308 68 c 0
 363 68 405 92 438 141 c 0
 459 173 469 202 481 264 c 1
 558 264 l 1
 538 151 516 99 471 53 c 1
 427 6 366 -19 301 -19 c 0
 139 -19 36 127 36 358 c 0
 36 590 143 737 311 737 c 0
 399 737 472 696 514 623 c 0
 536 586 545 558 552 502 c 1
262 929 m 1
 316 836 l 1
 370 929 l 1
 436 929 l 1
 355 788 l 1
 278 788 l 1
 197 929 l 1
 262 929 l 1
EndSplineSet
EndChar

StartChar: ccaron
Encoding: 331 269 224
Width: 410
Flags: MW
HStem: -15 77<179.5 243.5 179.5 266> 460 78<183.5 249.5> 714 20<106 171 171 171 279 345 345 345>
VStem: 25 77<196 322.5 196 339.5>
LayerCount: 2
Fore
SplineSet
391 347 m 1
 321 347 l 1
 309 426 278 460 221 460 c 0
 146 460 102 386 102 259 c 0
 102 133 143 62 216 62 c 0
 271 62 306 103 321 185 c 1
 391 185 l 1
 374 52 315 -15 217 -15 c 0
 100 -15 25 89 25 252 c 0
 25 427 104 538 228 538 c 0
 324 538 378 475 391 347 c 1
171 734 m 1
 225 641 l 1
 279 734 l 1
 345 734 l 1
 264 593 l 1
 187 593 l 1
 106 734 l 1
 171 734 l 1
EndSplineSet
EndChar

StartChar: Dcaron
Encoding: 267 270 160
Width: 592
Flags: MW
HStem: 0 83<66 300 146 300 300 302> 635 83<146 146 146 295>
VStem: 66 80<83 635 83 718> 471 82<307.5 448>
LayerCount: 2
Fore
SplineSet
66 0 m 1
 66 718 l 1
 305 718 l 2
 456 718 553 580 553 367 c 0
 553 248 523 146 469 77 c 0
 429 27 370 0 302 0 c 2
 66 0 l 1
146 635 m 1
 146 83 l 1
 300 83 l 2
 406 83 471 188 471 359 c 0
 471 537 408 635 295 635 c 2
 146 635 l 1
242 929 m 1
 296 836 l 1
 350 929 l 1
 416 929 l 1
 335 788 l 1
 258 788 l 1
 177 929 l 1
 242 929 l 1
EndSplineSet
EndChar

StartChar: dcaron
Encoding: 333 271 226
Width: 496
Flags: W
HStem: -15 77<182 233.5 182 246> 460 78<182 235.5 153 258> 621 97<433 479 337 433> 698 20<337 409 409 409 433 516 516 516>
VStem: 29 75<203.5 333 203.5 353> 29 83 337 72<444 718 0 718> 341 68<0 75 75 75>
LayerCount: 2
Fore
SplineSet
409 718 m 1xda
 409 0 l 1xda
 341 0 l 1
 341 75 l 1xd1
 310 10 275 -15 217 -15 c 0
 103 -15 29 99 29 274 c 0
 29 432 100 538 206 538 c 0
 265 538 303 511 337 444 c 1
 337 718 l 1
 409 718 l 1xda
221 460 m 0
 143 460 104 397 104 269 c 0
 104 138 146 62 218 62 c 0
 249 62 278 77 298 102 c 0
 324 135 336 180 336 248 c 0
 336 385 295 460 221 460 c 0
433 718 m 1x24
 516 718 l 1
 516 625 l 2
 516 539 489 496 434 496 c 1
 434 532 l 1
 465 530 481 561 479 621 c 1
 433 621 l 1
 433 718 l 1x24
EndSplineSet
EndChar

StartChar: dcroat
Encoding: 392 273 285
Width: 456
Flags: W
HStem: -15 77<182 233.5 182 246> 460 78<181.5 235 153 258> 600 53<200 337 200 337 409 456> 698 20<337 409 409 409>
VStem: 29 75<203.5 333 203.5 353> 337 72<444 600 0 600 653 718> 341 68<0 75 75 75>
LayerCount: 2
Fore
SplineSet
409 653 m 1xfa
 456 653 l 1
 456 600 l 1
 409 600 l 1
 409 0 l 1xf4
 341 0 l 1
 341 75 l 1xfa
 310 10 275 -15 217 -15 c 0
 103 -15 29 99 29 274 c 0
 29 432 100 538 206 538 c 0
 264 538 303 511 337 444 c 1
 337 600 l 1
 200 600 l 1
 200 653 l 1
 337 653 l 1
 337 718 l 1xfc
 409 718 l 1
 409 653 l 1xfa
221 460 m 0xfa
 142 460 104 397 104 269 c 0
 104 138 146 62 218 62 c 0
 249 62 278 77 298 102 c 0
 324 135 336 181 336 248 c 0
 336 385 295 460 221 460 c 0xfa
EndSplineSet
EndChar

StartChar: Emacron
Encoding: 311 274 204
Width: 547
Flags: W
HStem: 0 87<151 505 151 505 71 505> 325 87<151 472 151 472> 631 87<151 499 151 151> 822 57<155 412 155 412>
VStem: 71 80<87 325 412 631> 71 257
LayerCount: 2
Fore
SplineSet
505 87 m 1xf8
 505 0 l 1
 71 0 l 1
 71 718 l 1
 499 718 l 1
 499 631 l 1
 151 631 l 1
 151 412 l 1
 472 412 l 1
 472 325 l 1
 151 325 l 1
 151 87 l 1
 505 87 l 1xf8
412 879 m 1xf4
 412 822 l 1
 155 822 l 1
 155 879 l 1
 412 879 l 1xf4
EndSplineSet
EndChar

StartChar: emacron
Encoding: 375 275 268
Width: 456
Flags: MW
HStem: -15 77<211 261 211 279.5> 233 70<110 348 110 423 110 348> 460 78<198.5 251.5> 627 57<100 357 100 357>
VStem: 33 257
LayerCount: 2
Fore
SplineSet
345 164 m 1
 417 164 l 1
 398 51 329 -15 230 -15 c 0
 108 -15 33 87 33 252 c 0
 33 427 112 538 236 538 c 0
 305 538 353 506 386 437 c 0
 411 385 420 336 423 233 c 1
 110 233 l 1
 112 174 118 146 135 117 c 0
 156 81 190 62 232 62 c 0
 290 62 338 105 345 164 c 1
110 303 m 1
 348 303 l 1
 344 357 337 383 321 410 c 0
 301 442 270 460 233 460 c 0
 164 460 114 397 110 303 c 1
357 684 m 1
 357 627 l 1
 100 627 l 1
 100 684 l 1
 357 684 l 1
EndSplineSet
EndChar

StartChar: Ebreve
Encoding: 628 276 521
Width: 547
Flags: MW
HStem: 0 87<151 505 151 505 71 505> 325 87<151 472 151 472> 631 87<151 499 151 151> 818 57<263.5 311.5 263.5 321>
VStem: 71 80<87 325 412 631>
LayerCount: 2
Fore
SplineSet
372 954 m 1
 411 954 l 1
 399 860 360 818 282 818 c 0
 207 818 169 860 159 954 c 1
 199 954 l 1
 201 947 l 1
 214 897 240 875 287 875 c 0
 336 875 357 895 372 954 c 1
505 87 m 1
 505 0 l 1
 71 0 l 1
 71 718 l 1
 499 718 l 1
 499 631 l 1
 151 631 l 1
 151 412 l 1
 472 412 l 1
 472 325 l 1
 151 325 l 1
 151 87 l 1
 505 87 l 1
EndSplineSet
EndChar

StartChar: Edotaccent
Encoding: 273 278 166
Width: 547
Flags: W
HStem: 0 87<151 505 151 505 71 505> 325 87<151 472 151 472> 631 87<151 499 151 151> 799 102<236 311 236 311>
VStem: 71 75 71 80<87 325 412 631>
LayerCount: 2
Fore
SplineSet
505 87 m 1xf4
 505 0 l 1
 71 0 l 1
 71 718 l 1
 499 718 l 1
 499 631 l 1
 151 631 l 1
 151 412 l 1
 472 412 l 1
 472 325 l 1
 151 325 l 1
 151 87 l 1
 505 87 l 1xf4
311 901 m 1xf8
 311 799 l 1
 236 799 l 1
 236 901 l 1
 311 901 l 1xf8
EndSplineSet
EndChar

StartChar: Eogonek
Encoding: 274 280 167
Width: 547
Flags: MW
HStem: -225 47<454 468.5> 0 87<151 450 71 505> 325 87<151 472 151 472> 631 87<151 499 151 151>
VStem: 71 80<87 325 412 631> 361 62<-142.5 -114>
LayerCount: 2
Fore
SplineSet
499 718 m 1
 499 631 l 1
 151 631 l 1
 151 412 l 1
 472 412 l 1
 472 325 l 1
 151 325 l 1
 151 87 l 1
 505 87 l 1
 505 -4 l 1
 440 -49 423 -74 423 -124 c 0
 423 -161 438 -178 470 -178 c 0
 486 -178 497 -175 522 -163 c 1
 536 -203 l 1
 506 -218 481 -225 456 -225 c 0
 400 -225 361 -187 361 -133 c 0
 361 -95 375 -57 400 -31 c 0
 413 -17 421 -13 450 0 c 1
 71 0 l 1
 71 718 l 1
 499 718 l 1
EndSplineSet
EndChar

StartChar: eogonek
Encoding: 340 281 233
Width: 456
Flags: MW
HStem: -225 47<304.5 318.5> -15 77<211 238> 233 70<110 348 110 423 110 348> 460 78<198.5 251.5>
VStem: 211 62<-143.5 -106>
LayerCount: 2
Fore
SplineSet
373 -163 m 1
 387 -203 l 1
 356 -218 331 -225 306 -225 c 0
 250 -225 211 -187 211 -133 c 0
 211 -79 238 -31 279 -9 c 1
 261 -13 246 -15 230 -15 c 0
 108 -15 33 86 33 252 c 0
 33 427 112 538 236 538 c 0
 305 538 353 506 386 437 c 0
 411 385 420 336 423 233 c 1
 110 233 l 1
 112 174 118 146 135 117 c 0
 156 81 190 62 232 62 c 0
 290 62 338 105 345 164 c 1
 417 164 l 1
 407 106 401 93 360 46 c 1
 300 -26 273 -78 273 -126 c 0
 273 -161 289 -178 320 -178 c 0
 337 -178 348 -175 373 -163 c 1
110 303 m 1
 348 303 l 1
 344 357 337 383 321 410 c 0
 301 442 270 460 233 460 c 0
 164 460 114 397 110 303 c 1
EndSplineSet
EndChar

StartChar: Gcircumflex
Encoding: 630 284 523
Width: 638
Flags: MW
HStem: -19 83<271.5 330.5> 301 83<319 577 319 502> 650 87<257.5 339>
VStem: 39 82<288.5 444 259 465.5> 502 75<301 301>
LayerCount: 2
Fore
SplineSet
344 911 m 1
 290 818 l 1
 225 818 l 1
 306 959 l 1
 383 959 l 1
 464 818 l 1
 398 818 l 1
 344 911 l 1
319 301 m 1
 319 384 l 1
 577 384 l 1
 577 0 l 1
 525 0 l 1
 507 93 l 1
 479 52 462 35 431 15 c 1
 393 -8 353 -19 308 -19 c 0
 235 -19 179 7 132 62 c 0
 68 138 39 227 39 350 c 0
 39 581 151 737 317 737 c 0
 404 737 484 692 529 618 c 0
 550 583 559 555 567 500 c 1
 490 500 l 1
 476 558 461 584 430 611 c 0
 402 636 360 650 318 650 c 0
 197 650 121 535 121 353 c 0
 121 165 190 64 320 64 c 0
 375 64 420 86 455 129 c 0
 488 171 501 215 502 301 c 1
 319 301 l 1
EndSplineSet
EndChar

StartChar: gcircumflex
Encoding: 631 285 524
Width: 456
Flags: W
HStem: -220 73<190 239.5 186.5 248.5> -15 77<186 246.5> 460 78<186 239 157 262>
VStem: 33 75<203.5 333 203.5 353> 337 72<37 43 43 58 58 58> 341 68<446 523>
LayerCount: 2
Fore
SplineSet
258 716 m 1xf0
 204 623 l 1
 139 623 l 1
 220 764 l 1
 297 764 l 1
 378 623 l 1
 312 623 l 1
 258 716 l 1xf0
409 523 m 1xf4
 409 43 l 2
 409 -41 399 -93 374 -136 c 0
 342 -191 286 -220 211 -220 c 0
 169 -220 133 -209 105 -188 c 0
 71 -161 57 -131 46 -64 c 1
 118 -64 l 1
 131 -123 159 -147 214 -147 c 0
 265 -147 299 -128 318 -88 c 0
 332 -60 337 -27 337 37 c 2
 337 58 l 1xf8
 309 7 273 -15 220 -15 c 0
 107 -15 33 100 33 274 c 0
 33 432 104 538 210 538 c 0
 268 538 302 514 341 446 c 1
 341 523 l 1
 409 523 l 1xf4
225 460 m 0
 147 460 108 397 108 269 c 0
 108 138 150 62 222 62 c 0
 296 62 340 132 340 247 c 0
 340 385 299 460 225 460 c 0
EndSplineSet
EndChar

StartChar: Gbreve
Encoding: 275 286 168
Width: 638
Flags: MW
HStem: -19 83<271.5 330.5> 301 83<319 577 319 502> 650 87<257.5 339> 790 57<298.5 346.5 298.5 356>
VStem: 39 82<288.5 444 259 465.5> 319 258<301 384 0 384>
LayerCount: 2
Fore
SplineSet
319 301 m 1
 319 384 l 1
 577 384 l 1
 577 0 l 1
 525 0 l 1
 507 93 l 1
 479 52 462 35 431 15 c 1
 393 -8 353 -19 308 -19 c 0
 235 -19 179 7 132 62 c 0
 68 138 39 227 39 350 c 0
 39 581 151 737 317 737 c 0
 404 737 484 692 529 618 c 0
 550 583 559 555 567 500 c 1
 490 500 l 1
 476 558 461 584 430 611 c 0
 402 636 360 650 318 650 c 0
 197 650 121 535 121 353 c 0
 121 165 190 64 320 64 c 0
 375 64 420 86 455 129 c 0
 488 171 501 215 502 301 c 1
 319 301 l 1
407 926 m 1
 446 926 l 1
 434 832 395 790 317 790 c 0
 242 790 204 832 194 926 c 1
 234 926 l 1
 236 919 l 1
 249 869 275 847 322 847 c 0
 371 847 392 867 407 926 c 1
EndSplineSet
EndChar

StartChar: Gcommaaccent
Encoding: 319 290 212
Width: 638
Flags: W
HStem: -157 97<278 324 278 361> -19 83<271.5 330.5> 301 83<319 577 319 502> 650 87<257.5 339>
VStem: 39 82<288.5 444 259 465.5> 39 83 319 258<301 384 0 384>
LayerCount: 2
Fore
SplineSet
319 301 m 1xfa
 319 384 l 1
 577 384 l 1
 577 0 l 1
 525 0 l 1
 507 93 l 1
 479 52 462 35 431 15 c 1
 393 -8 353 -19 308 -19 c 0
 235 -19 179 7 132 62 c 0
 68 138 39 227 39 350 c 0
 39 581 151 737 317 737 c 0
 404 737 484 692 529 618 c 0
 550 583 559 555 567 500 c 1
 490 500 l 1
 476 558 461 584 430 611 c 0
 402 636 360 650 318 650 c 0
 197 650 121 535 121 353 c 0
 121 165 190 64 320 64 c 0
 375 64 420 86 455 129 c 0
 488 171 501 215 502 301 c 1
 319 301 l 1xfa
278 -60 m 1xf4
 361 -60 l 1
 361 -153 l 2
 361 -239 334 -282 279 -282 c 1
 279 -246 l 1
 310 -248 326 -217 324 -157 c 1
 278 -157 l 1
 278 -60 l 1xf4
EndSplineSet
EndChar

StartChar: Hcircumflex
Encoding: 634 292 527
Width: 592
Flags: MW
HStem: 0 21G<63 143 63 63 450 530 450 450> 334 87<143 450 143 450> 698 20G<63 143 143 143 450 530 530 530>
VStem: 63 80<0 334 421 718> 450 80<0 334 334 334 421 718 0 718>
LayerCount: 2
Fore
SplineSet
296 911 m 1
 242 818 l 1
 177 818 l 1
 258 959 l 1
 335 959 l 1
 416 818 l 1
 350 818 l 1
 296 911 l 1
450 421 m 1
 450 718 l 1
 530 718 l 1
 530 0 l 1
 450 0 l 1
 450 334 l 1
 143 334 l 1
 143 0 l 1
 63 0 l 1
 63 718 l 1
 143 718 l 1
 143 421 l 1
 450 421 l 1
EndSplineSet
EndChar

StartChar: hcircumflex
Encoding: 635 293 528
Width: 456
Flags: MW
HStem: 0 21G<53 125 53 53 331 403 331 331> 460 78<229.5 276.5> 698 20G<53 125 125 125>
VStem: 53 72<0 285 451 718> 331 72<0 342 342 356 0 383.5>
LayerCount: 2
Fore
SplineSet
88 911 m 1
 34 818 l 1
 -31 818 l 1
 50 959 l 1
 127 959 l 1
 208 818 l 1
 142 818 l 1
 88 911 l 1
125 718 m 1
 125 451 l 1
 167 516 201 538 258 538 c 0
 349 538 403 471 403 356 c 2
 403 0 l 1
 331 0 l 1
 331 342 l 2
 331 425 306 460 247 460 c 0
 169 460 125 396 125 285 c 2
 125 0 l 1
 53 0 l 1
 53 718 l 1
 125 718 l 1
EndSplineSet
EndChar

StartChar: Hbar
Encoding: 636 294 529
Width: 645
Flags: MW
HStem: 0 21G<89 169 89 89 476 556 476 476> 334 87<169 476 169 476> 566 73<16 89 16 89 169 476 556 629> 698 20G<89 169 169 169 476 556 556 556>
VStem: 89 80<0 334 421 566 639 718> 476 80<0 334 334 334 421 566 0 566 639 718>
LayerCount: 2
Fore
SplineSet
556 639 m 1
 629 639 l 1
 629 566 l 1
 556 566 l 1
 556 0 l 1
 476 0 l 1
 476 334 l 1
 169 334 l 1
 169 0 l 1
 89 0 l 1
 89 566 l 1
 16 566 l 1
 16 639 l 1
 89 639 l 1
 89 718 l 1
 169 718 l 1
 169 639 l 1
 476 639 l 1
 476 718 l 1
 556 718 l 1
 556 639 l 1
169 566 m 1
 169 421 l 1
 476 421 l 1
 476 566 l 1
 169 566 l 1
EndSplineSet
EndChar

StartChar: hbar
Encoding: 637 295 530
Width: 490
Flags: MW
HStem: 0 21G<87 159 87 87 365 437 365 365> 460 78<263.5 310.5> 586 73<16 87 16 87 159 291 16 159> 698 20G<87 159 159 159>
VStem: 87 72<0 285 451 586 659 718> 365 72<0 342 342 356 0 383.5>
LayerCount: 2
Fore
SplineSet
87 659 m 1
 87 718 l 1
 159 718 l 1
 159 659 l 1
 291 659 l 1
 291 586 l 1
 159 586 l 1
 159 451 l 1
 201 516 235 538 292 538 c 0
 383 538 437 471 437 356 c 2
 437 0 l 1
 365 0 l 1
 365 342 l 2
 365 425 340 460 281 460 c 0
 203 460 159 396 159 285 c 2
 159 0 l 1
 87 0 l 1
 87 586 l 1
 16 586 l 1
 16 659 l 1
 87 659 l 1
EndSplineSet
EndChar

StartChar: Itilde
Encoding: 638 296 531
Width: 228
Flags: W
HStem: 0 21G<75 154 75 75> 698 20G<75 154 154 154> 825 63<170 185.5 170 193.5> 862 63<42.5 57.5>
VStem: 75 79<0 718 0 718>
LayerCount: 2
Fore
SplineSet
213 934 m 1xe8
 254 934 l 1
 244 862 216 825 171 825 c 0xe8
 159 825 146 829 124 838 c 2
 103 847 l 2
 78 858 63 862 52 862 c 0
 33 862 23 850 14 818 c 1
 -25 818 l 1
 -15 892 12 925 60 925 c 0xd8
 77 925 97 920 116 910 c 2
 134 901 l 2
 150 893 165 888 175 888 c 0
 196 888 207 901 213 934 c 1xe8
154 718 m 1
 154 0 l 1
 75 0 l 1
 75 718 l 1
 154 718 l 1
EndSplineSet
EndChar

StartChar: itilde
Encoding: 639 297 532
Width: 228
Flags: W
HStem: 0 21G<78 150 78 78> 503 20G<78 150 150 150> 630 63<170 185.5 170 193.5> 667 63<42.5 57.5>
VStem: 78 72<0 523 0 523>
LayerCount: 2
Fore
SplineSet
213 739 m 1xe8
 254 739 l 1
 244 667 216 630 171 630 c 0xe8
 159 630 146 634 124 643 c 2
 103 652 l 2
 78 663 63 667 52 667 c 0
 33 667 23 655 14 623 c 1
 -25 623 l 1
 -15 697 12 730 60 730 c 0xd8
 77 730 97 725 116 715 c 2
 134 706 l 2
 150 698 165 693 175 693 c 0
 196 693 207 706 213 739 c 1xe8
150 523 m 1
 150 0 l 1
 78 0 l 1
 78 523 l 1
 150 523 l 1
EndSplineSet
EndChar

StartChar: Imacron
Encoding: 312 298 205
Width: 228
Flags: W
HStem: 0 20 698 20<75 154 154 154> 822 57<-15 242 -15 242>
VStem: -15 257<822 879 822 879> 75 79<0 718 0 718>
LayerCount: 2
Fore
SplineSet
154 718 m 1xe8
 154 0 l 1
 75 0 l 1
 75 718 l 1
 154 718 l 1xe8
242 879 m 1xf0
 242 822 l 1
 -15 822 l 1
 -15 879 l 1
 242 879 l 1xf0
EndSplineSet
EndChar

StartChar: imacron
Encoding: 376 299 269
Width: 228
Flags: W
HStem: 0 20 503 20<78 150 150 150> 627 57<-15 242 -15 242>
VStem: -15 257<627 684 627 684> 78 72<0 523 0 523>
LayerCount: 2
Fore
SplineSet
150 523 m 1xe8
 150 0 l 1
 78 0 l 1
 78 523 l 1
 150 523 l 1xe8
242 684 m 1xf0
 242 627 l 1
 -15 627 l 1
 -15 684 l 1
 242 684 l 1xf0
EndSplineSet
EndChar

StartChar: Ibreve
Encoding: 640 300 533
Width: 228
Flags: MW
HStem: 0 21G<75 154 75 75> 698 20G<75 154 154 154> 818 57<93.5 141.5 93.5 151>
VStem: 75 79<0 718 0 718>
LayerCount: 2
Fore
SplineSet
202 954 m 1
 241 954 l 1
 229 860 190 818 112 818 c 0
 37 818 -1 860 -11 954 c 1
 29 954 l 1
 31 947 l 1
 44 897 70 875 117 875 c 0
 166 875 187 895 202 954 c 1
154 718 m 1
 154 0 l 1
 75 0 l 1
 75 718 l 1
 154 718 l 1
EndSplineSet
EndChar

StartChar: ibreve
Encoding: 641 301 534
Width: 228
Flags: MW
HStem: 0 21G<78 150 78 78> 503 20G<78 150 150 150> 623 57<92.5 140.5 92.5 150>
VStem: 78 72<0 523 0 523>
LayerCount: 2
Fore
SplineSet
201 759 m 1
 240 759 l 1
 228 665 189 623 111 623 c 0
 36 623 -2 665 -12 759 c 1
 28 759 l 1
 30 752 l 1
 43 702 69 680 116 680 c 0
 165 680 186 700 201 759 c 1
150 523 m 1
 150 0 l 1
 78 0 l 1
 78 523 l 1
 150 523 l 1
EndSplineSet
EndChar

StartChar: Iogonek
Encoding: 313 302 206
Width: 228
Flags: MW
HStem: -225 47<103 117.5> 698 20<75 154 154 154>
VStem: 10 62<-142.5 -114> 75 79<0 718 -4 718>
LayerCount: 2
Fore
SplineSet
154 718 m 1
 154 -4 l 1
 89 -49 72 -74 72 -124 c 0
 72 -161 87 -178 119 -178 c 0
 135 -178 146 -175 171 -163 c 1
 185 -203 l 1
 155 -218 130 -225 105 -225 c 0
 49 -225 10 -187 10 -133 c 0
 10 -95 24 -57 49 -31 c 0
 62 -17 70 -13 99 0 c 1
 75 0 l 1
 75 718 l 1
 154 718 l 1
EndSplineSet
EndChar

StartChar: iogonek
Encoding: 387 303 280
Width: 182
Flags: MW
HStem: -225 47<76 90.5> 618 100<55 127 55 127>
VStem: -17 62<-142.5 -114> 55 72<0 523 -4 523 618 718>
LayerCount: 2
Fore
SplineSet
127 523 m 1
 127 -4 l 1
 62 -49 45 -74 45 -124 c 0
 45 -161 60 -178 92 -178 c 0
 108 -178 119 -175 144 -163 c 1
 158 -203 l 1
 128 -218 103 -225 78 -225 c 0
 22 -225 -17 -187 -17 -133 c 0
 -17 -95 -3 -57 22 -31 c 0
 35 -17 43 -13 72 0 c 1
 55 0 l 1
 55 523 l 1
 127 523 l 1
127 618 m 1
 55 618 l 1
 55 718 l 1
 127 718 l 1
 127 618 l 1
EndSplineSet
EndChar

StartChar: Idotaccent
Encoding: 280 304 173
Width: 228
Flags: W
HStem: 0 20 698 20<75 154 154 154> 799 102<77 152 77 152>
VStem: 75 75 75 79<0 718 0 718>
LayerCount: 2
Fore
SplineSet
154 718 m 1xe8
 154 0 l 1
 75 0 l 1
 75 718 l 1
 154 718 l 1xe8
152 901 m 1xf0
 152 799 l 1
 77 799 l 1
 77 901 l 1
 152 901 l 1xf0
EndSplineSet
EndChar

StartChar: dotlessi
Encoding: 245 305 144
Width: 228
Flags: MW
HStem: 0 20 503 20<78 150 150 150>
VStem: 78 72<0 523 0 523>
LayerCount: 2
Fore
SplineSet
150 523 m 1
 150 0 l 1
 78 0 l 1
 78 523 l 1
 150 523 l 1
EndSplineSet
EndChar

StartChar: IJ
Encoding: 642 306 535
Width: 644
Flags: MW
HStem: -19 83<363 425 363 449.5> 698 20G<75 154 154 154 486 566 566 566>
VStem: 75 79<0 718 0 718> 229 75<160 181 181 231 141 231> 486 80<188 194 194 718>
LayerCount: 2
Fore
SplineSet
229 231 m 1
 304 231 l 1
 304 181 l 2
 304 101 332 64 394 64 c 0
 456 64 486 105 486 188 c 2
 486 718 l 1
 566 718 l 1
 566 194 l 2
 566 58 504 -19 395 -19 c 0
 294 -19 229 51 229 160 c 2
 229 231 l 1
154 718 m 1
 154 0 l 1
 75 0 l 1
 75 718 l 1
 154 718 l 1
EndSplineSet
Ligature2: "'liga' Standard Ligatures in Latin lookup 0 subtable" I J
EndChar

StartChar: ij
Encoding: 643 307 536
Width: 308
Flags: MW
HStem: -210 79<141.5 151.5 114 183.5> 0 21G<55 127 55 55> 503 20G<55 127 127 127 182 254 254 254> 618 100<55 127 55 127 182 254 55 182>
VStem: 55 72<0 523 0 523 618 718> 182 72<-67 523 618 718>
LayerCount: 2
Fore
SplineSet
254 523 m 1
 254 -77 l 2
 254 -168 220 -210 147 -210 c 0
 136 -210 126 -209 114 -207 c 1
 114 -131 l 1
 129 -131 l 2
 174 -131 182 -122 182 -67 c 2
 182 523 l 1
 254 523 l 1
254 718 m 1
 254 618 l 1
 182 618 l 1
 182 718 l 1
 254 718 l 1
127 523 m 1
 127 0 l 1
 55 0 l 1
 55 523 l 1
 127 523 l 1
127 618 m 1
 55 618 l 1
 55 718 l 1
 127 718 l 1
 127 618 l 1
EndSplineSet
Ligature2: "'liga' Standard Ligatures in Latin lookup 0 subtable" i j
EndChar

StartChar: Jcircumflex
Encoding: 644 308 537
Width: 410
Flags: MW
HStem: -19 83<148 210 148 234.5> 698 20G<271 351 351 351>
VStem: 14 75<160 181 181 231 141 231> 271 80<188 194 194 718>
LayerCount: 2
Fore
SplineSet
310 911 m 1
 256 818 l 1
 191 818 l 1
 272 959 l 1
 349 959 l 1
 430 818 l 1
 364 818 l 1
 310 911 l 1
14 231 m 1
 89 231 l 1
 89 181 l 2
 89 101 117 64 179 64 c 0
 241 64 271 105 271 188 c 2
 271 718 l 1
 351 718 l 1
 351 194 l 2
 351 58 289 -19 180 -19 c 0
 79 -19 14 51 14 160 c 2
 14 231 l 1
EndSplineSet
EndChar

StartChar: jcircumflex
Encoding: 645 309 538
Width: 182
Flags: MW
HStem: -210 79<14.5 24.5 -13 56.5> 503 20G<55 127 127 127> 714 20G<98 175 175 175>
VStem: 55 72<-67 523>
LayerCount: 2
Fore
SplineSet
127 523 m 1
 127 -77 l 2
 127 -168 93 -210 20 -210 c 0
 9 -210 -1 -209 -13 -207 c 1
 -13 -131 l 1
 2 -131 l 2
 47 -131 55 -122 55 -67 c 2
 55 523 l 1
 127 523 l 1
136 686 m 1
 82 593 l 1
 17 593 l 1
 98 734 l 1
 175 734 l 1
 256 593 l 1
 190 593 l 1
 136 686 l 1
EndSplineSet
EndChar

StartChar: Kcommaaccent
Encoding: 314 310 207
Width: 547
Flags: W
HStem: -157 97<232 278 232 315> 0 20 698 20<62 142 142 142 428 538 538 538>
VStem: 62 80<0 252 370 718> 62 83
LayerCount: 2
Fore
SplineSet
142 252 m 1xf0
 142 0 l 1
 62 0 l 1
 62 718 l 1
 142 718 l 1
 142 370 l 1
 428 718 l 1
 538 718 l 1
 292 428 l 1
 544 0 l 1
 441 0 l 1
 235 360 l 1
 142 252 l 1xf0
232 -60 m 1xe8
 315 -60 l 1
 315 -153 l 2
 315 -239 288 -282 233 -282 c 1
 233 -246 l 1
 264 -248 280 -217 278 -157 c 1
 232 -157 l 1
 232 -60 l 1xe8
EndSplineSet
EndChar

StartChar: kcommaaccent
Encoding: 377 311 270
Width: 410
Flags: W
HStem: -157 97<164 210 164 247> 0 20 698 20<55 125 125 125>
VStem: 55 70<0 198 302 718> 55 83
LayerCount: 2
Fore
SplineSet
237 328 m 1xf0
 411 0 l 1
 318 0 l 1
 185 264 l 1
 125 198 l 1
 125 0 l 1
 55 0 l 1
 55 718 l 1
 125 718 l 1
 125 302 l 1
 310 523 l 1
 401 523 l 1
 237 328 l 1xf0
164 -60 m 1xe8
 247 -60 l 1
 247 -153 l 2
 247 -239 220 -282 165 -282 c 1
 165 -246 l 1
 196 -248 212 -217 210 -157 c 1
 164 -157 l 1
 164 -60 l 1xe8
EndSplineSet
EndChar

StartChar: kgreenlandic
Encoding: 646 312 539
Width: 417
Flags: MW
HStem: 0 21G<53 123 53 53 316 409 316 316> 503 20G<53 123 123 123 308 399 399 399>
VStem: 53 69<209 209 209 523>
LayerCount: 2
Fore
SplineSet
174 262 m 1
 409 0 l 1
 316 0 l 1
 122 209 l 1
 123 0 l 1
 53 0 l 1
 53 523 l 1
 123 523 l 1
 123 302 l 1
 308 523 l 1
 399 523 l 1
 174 262 l 1
EndSplineSet
EndChar

StartChar: Lacute
Encoding: 281 313 174
Width: 456
Flags: MW
HStem: 0 87<142 440 142 440 62 440> 698 20<62 142 142 142>
VStem: 62 80<87 718 87 718 87 718>
LayerCount: 2
Fore
SplineSet
142 718 m 1
 142 87 l 1
 440 87 l 1
 440 0 l 1
 62 0 l 1
 62 718 l 1
 142 718 l 1
254 903 m 1
 147 762 l 1
 92 762 l 1
 165 903 l 1
 254 903 l 1
EndSplineSet
EndChar

StartChar: lacute
Encoding: 346 314 239
Width: 182
Flags: MW
HStem: 0 20 698 20<56 128 128 128>
VStem: 56 72<0 718 0 718>
LayerCount: 2
Fore
SplineSet
128 718 m 1
 128 0 l 1
 56 0 l 1
 56 718 l 1
 128 718 l 1
217 903 m 1
 110 762 l 1
 55 762 l 1
 128 903 l 1
 217 903 l 1
EndSplineSet
EndChar

StartChar: Lcommaaccent
Encoding: 315 315 208
Width: 456
Flags: W
HStem: -157 97<187 233 187 270> 0 87<142 440 142 440 62 440> 698 20<62 142 142 142>
VStem: 62 80<87 718 87 718 87 718> 62 83
LayerCount: 2
Fore
SplineSet
142 718 m 1xf0
 142 87 l 1
 440 87 l 1
 440 0 l 1
 62 0 l 1
 62 718 l 1
 142 718 l 1xf0
187 -60 m 1xe8
 270 -60 l 1
 270 -153 l 2
 270 -239 243 -282 188 -282 c 1
 188 -246 l 1
 219 -248 235 -217 233 -157 c 1
 187 -157 l 1
 187 -60 l 1xe8
EndSplineSet
EndChar

StartChar: lcommaaccent
Encoding: 378 316 271
Width: 182
Flags: W
HStem: -157 97<50 96 50 133> 698 20<55 127 127 127>
VStem: 50 83<-157 -153 -153 -60> 55 72<0 718 0 718>
LayerCount: 2
Fore
SplineSet
127 718 m 1xd0
 127 0 l 1
 55 0 l 1
 55 718 l 1
 127 718 l 1xd0
50 -60 m 1xe0
 133 -60 l 1
 133 -153 l 2
 133 -239 106 -282 51 -282 c 1
 51 -246 l 1
 82 -248 98 -217 96 -157 c 1
 50 -157 l 1
 50 -60 l 1xe0
EndSplineSet
EndChar

StartChar: Lcaron
Encoding: 282 317 175
Width: 456
Flags: W
HStem: 0 87<142 440 142 440 62 440> 621 97<306 352> 698 20<62 142 142 142 306 389 389 389>
VStem: 62 80<87 718 87 718 87 718> 62 83
LayerCount: 2
Fore
SplineSet
142 718 m 1xb0
 142 87 l 1
 440 87 l 1
 440 0 l 1
 62 0 l 1
 62 718 l 1
 142 718 l 1xb0
306 718 m 1x48
 389 718 l 1
 389 625 l 2
 389 539 362 496 307 496 c 1
 307 532 l 1
 338 530 354 561 352 621 c 1
 306 621 l 1
 306 718 l 1x48
EndSplineSet
EndChar

StartChar: lcaron
Encoding: 347 318 240
Width: 212
Flags: W
HStem: 0 20 621 97<149 195 55 149> 698 20<55 127 127 127 149 232 232 232>
VStem: 55 72<0 718 0 718> 55 83
LayerCount: 2
Fore
SplineSet
127 718 m 1xb0
 127 0 l 1
 55 0 l 1
 55 718 l 1
 127 718 l 1xb0
149 718 m 1x48
 232 718 l 1
 232 625 l 2
 232 539 205 496 150 496 c 1
 150 532 l 1
 181 530 197 561 195 621 c 1
 149 621 l 1
 149 718 l 1x48
EndSplineSet
EndChar

StartChar: Ldot
Encoding: 647 319 540
Width: 456
Flags: MW
HStem: 0 87<142 440 142 440 62 440> 296 125<236.5 264> 698 20G<62 142 142 142>
VStem: 62 80<87 718 87 718 87 718> 199 103<342 374.5 341.5 376>
LayerCount: 2
Fore
SplineSet
251 421 m 0
 278 421 302 391 302 358 c 0
 302 325 278 296 250 296 c 0
 222 296 199 325 199 359 c 0
 199 393 222 421 251 421 c 0
142 718 m 1
 142 87 l 1
 440 87 l 1
 440 0 l 1
 62 0 l 1
 62 718 l 1
 142 718 l 1
EndSplineSet
Ligature2: "'liga' Standard Ligatures in Latin lookup 0 subtable" L periodcentered
EndChar

StartChar: ldot
Encoding: 648 320 541
Width: 410
Flags: MW
HStem: 0 21G<55 127 55 55> 190 125<282.5 310> 698 20G<55 127 127 127>
VStem: 55 72<0 718 0 718> 245 103<236 268.5 235.5 270>
LayerCount: 2
Fore
SplineSet
297 315 m 0
 324 315 348 285 348 252 c 0
 348 219 324 190 296 190 c 0
 268 190 245 219 245 253 c 0
 245 287 268 315 297 315 c 0
127 718 m 1
 127 0 l 1
 55 0 l 1
 55 718 l 1
 127 718 l 1
EndSplineSet
Ligature2: "'liga' Standard Ligatures in Latin lookup 0 subtable" l periodcentered
EndChar

StartChar: Lslash
Encoding: 232 321 139
Width: 456
Flags: MW
HStem: 0 87<143 440 143 440 63 440> 698 20<63 143 143 143>
VStem: 63 80<87 345 345 345 87 453 453 718>
LayerCount: 2
Fore
SplineSet
239 520 m 1
 239 462 l 1
 143 396 l 1
 143 87 l 1
 440 87 l 1
 440 0 l 1
 63 0 l 1
 63 345 l 1
 -16 290 l 1
 -16 348 l 1
 63 403 l 1
 63 718 l 1
 143 718 l 1
 143 453 l 1
 239 520 l 1
EndSplineSet
EndChar

StartChar: lslash
Encoding: 248 322 145
Width: 182
Flags: MW
HStem: 0 20 698 20<55 127 127 127>
VStem: 55 72<0 339 339 339 0 443 443 718>
LayerCount: 2
Fore
SplineSet
198 435 m 1
 127 385 l 1
 127 0 l 1
 55 0 l 1
 55 339 l 1
 -16 289 l 1
 -16 347 l 1
 55 397 l 1
 55 718 l 1
 127 718 l 1
 127 443 l 1
 198 493 l 1
 198 435 l 1
EndSplineSet
EndChar

StartChar: Nacute
Encoding: 283 323 176
Width: 592
Flags: MW
HStem: 0 20 698 20<62 156 156 156 453 530 530 530>
VStem: 62 77<0 583 0 718> 453 77<135 718 0 718>
LayerCount: 2
Fore
SplineSet
453 135 m 1
 453 718 l 1
 530 718 l 1
 530 0 l 1
 441 0 l 1
 139 583 l 1
 139 0 l 1
 62 0 l 1
 62 718 l 1
 156 718 l 1
 453 135 l 1
422 903 m 1
 315 762 l 1
 260 762 l 1
 333 903 l 1
 422 903 l 1
EndSplineSet
EndChar

StartChar: nacute
Encoding: 348 324 241
Width: 456
Flags: W
HStem: 0 20 460 78<228.5 273.5> 503 20<53 121 121 121> 714 20<265 354 354 354>
VStem: 53 68<446 523 446 523 446 523> 53 72<0 285 0 523> 331 72<0 322 322 356 0 370>
LayerCount: 2
Fore
SplineSet
121 523 m 1xa8
 121 446 l 1x28
 158 511 199 538 258 538 c 0
 349 538 403 471 403 356 c 2
 403 0 l 1
 331 0 l 1
 331 322 l 2
 331 418 304 460 243 460 c 0xc6
 170 460 125 394 125 285 c 2
 125 0 l 1
 53 0 l 1
 53 523 l 1xa6
 121 523 l 1xa8
354 734 m 1x10
 247 593 l 1
 192 593 l 1
 265 734 l 1
 354 734 l 1x10
EndSplineSet
EndChar

StartChar: Ncommaaccent
Encoding: 316 325 209
Width: 592
Flags: W
HStem: -157 97<255 301 255 338> 0 20 698 20<62 156 156 156 453 530 530 530>
VStem: 62 77<0 583 0 718> 62 83 453 77<135 718 0 718>
LayerCount: 2
Fore
SplineSet
453 135 m 1xf4
 453 718 l 1
 530 718 l 1
 530 0 l 1
 441 0 l 1
 139 583 l 1
 139 0 l 1
 62 0 l 1
 62 718 l 1
 156 718 l 1
 453 135 l 1xf4
255 -60 m 1xe8
 338 -60 l 1
 338 -153 l 2
 338 -239 311 -282 256 -282 c 1
 256 -246 l 1
 287 -248 303 -217 301 -157 c 1
 255 -157 l 1
 255 -60 l 1xe8
EndSplineSet
EndChar

StartChar: ncommaaccent
Encoding: 379 326 272
Width: 456
Flags: W
HStem: -157 97<187 233 187 270> 0 20 460 78<228.5 273.5> 503 20<53 121 121 121>
VStem: 53 68<446 523 446 523 446 523> 53 72<0 285 0 523> 53 83 331 72<0 322 322 356 0 370>
LayerCount: 2
Fore
SplineSet
121 523 m 1x58
 121 446 l 1x18
 158 511 199 538 258 538 c 0
 349 538 403 471 403 356 c 2
 403 0 l 1
 331 0 l 1
 331 322 l 2
 331 418 304 460 243 460 c 0x65
 170 460 125 394 125 285 c 2
 125 0 l 1
 53 0 l 1
 53 523 l 1x55
 121 523 l 1x58
187 -60 m 1x82
 270 -60 l 1
 270 -153 l 2
 270 -239 243 -282 188 -282 c 1
 188 -246 l 1
 219 -248 235 -217 233 -157 c 1
 187 -157 l 1
 187 -60 l 1x82
EndSplineSet
EndChar

StartChar: Ncaron
Encoding: 284 327 177
Width: 592
Flags: MW
HStem: 0 20 698 20<62 156 156 156 453 530 530 530>
VStem: 62 77<0 583 0 718> 453 77<135 718 0 718>
LayerCount: 2
Fore
SplineSet
453 135 m 1
 453 718 l 1
 530 718 l 1
 530 0 l 1
 441 0 l 1
 139 583 l 1
 139 0 l 1
 62 0 l 1
 62 718 l 1
 156 718 l 1
 453 135 l 1
242 929 m 1
 296 836 l 1
 350 929 l 1
 416 929 l 1
 335 788 l 1
 258 788 l 1
 177 929 l 1
 242 929 l 1
EndSplineSet
EndChar

StartChar: napostrophe
Encoding: 649 329 542
Width: 456
Flags: W
HStem: 0 21G<53 125 53 53 331 403 331 331> 460 78<228.5 273.5> 700 20G<52 52 52 96>
VStem: 52 86<571 728 618 728 720 728 728 827> 53 68<446 523 446 523 446 523> 53 72<0 285 0 523> 331 72<0 322 322 356 0 370>
LayerCount: 2
Fore
SplineSet
52 720 m 1xf2
 52 827 l 1
 138 827 l 1
 138 728 l 2
 138 636 114 593 52 571 c 1
 52 618 l 1
 84 625 96 655 96 720 c 1
 52 720 l 1xf2
121 523 m 1xea
 121 446 l 1xea
 158 511 199 538 258 538 c 0
 349 538 403 471 403 356 c 2
 403 0 l 1
 331 0 l 1
 331 322 l 2
 331 418 304 460 243 460 c 0
 170 460 125 394 125 285 c 2
 125 0 l 1
 53 0 l 1xe6
 53 523 l 1
 121 523 l 1xea
EndSplineSet
EndChar

StartChar: Eng
Encoding: 650 330 543
Width: 592
Flags: MW
HStem: -131 82<319 344.5 319 359.5> 0 21G<62 139 62 62 441 441 530 530> 698 20G<62 156 156 156 453 530 530 530>
VStem: 62 77<0 583 0 718> 453 77<135 718>
LayerCount: 2
Fore
SplineSet
441 0 m 1
 139 583 l 1
 139 0 l 1
 62 0 l 1
 62 718 l 1
 156 718 l 1
 453 135 l 1
 453 718 l 1
 530 718 l 1
 530 0 l 2
 530 -99 400 -131 319 -131 c 1
 319 -49 l 1
 370 -49 441 -35 441 0 c 1
EndSplineSet
EndChar

StartChar: eng
Encoding: 651 331 544
Width: 456
Flags: W
HStem: -184 82<232 257.5 232 272.5> 0 21G<53 125 53 53> 460 78<228.5 273.5>
VStem: 53 68<446 523 446 523 446 523> 53 72<0 285 0 523> 331 72<-45 322 322 356>
LayerCount: 2
Fore
SplineSet
403 -53 m 2xf4
 403 -152 313 -184 232 -184 c 1
 232 -102 l 1
 283 -102 331 -88 331 -45 c 2
 331 322 l 2
 331 418 304 460 243 460 c 0
 170 460 125 394 125 285 c 2
 125 0 l 1
 53 0 l 1xec
 53 523 l 1
 121 523 l 1
 121 446 l 1
 158 511 199 538 258 538 c 0
 349 538 403 471 403 356 c 2
 403 -53 l 2xf4
EndSplineSet
EndChar

StartChar: omacron
Encoding: 380 333 273
Width: 456
Flags: W
HStem: -14 77<190.5 265.5 190.5 287> 461 77<191 266.5> 627 57<100 357 100 357>
VStem: 29 75<201.5 323 201.5 344.5> 29 257 352 75<201.5 322>
LayerCount: 2
Fore
SplineSet
231 538 m 0xf4
 346 538 427 423 427 262 c 0
 427 99 346 -14 228 -14 c 0
 111 -14 29 99 29 262 c 0
 29 427 110 538 231 538 c 0xf4
230 461 m 0
 152 461 104 384 104 262 c 0
 104 141 153 63 228 63 c 0
 303 63 352 141 352 262 c 0
 352 382 303 461 230 461 c 0
357 684 m 1xe8
 357 627 l 1
 100 627 l 1
 100 684 l 1
 357 684 l 1xe8
EndSplineSet
EndChar

StartChar: obreve
Encoding: 653 335 546
Width: 456
Flags: MW
HStem: -14 77<190.5 265.5 190.5 287> 461 77<191 266.5> 623 57<206.5 254.5 206.5 264>
VStem: 29 75<201.5 323 201.5 344.5> 352 75<201.5 322>
LayerCount: 2
Fore
SplineSet
315 759 m 1
 354 759 l 1
 342 665 303 623 225 623 c 0
 150 623 112 665 102 759 c 1
 142 759 l 1
 144 752 l 1
 157 702 183 680 230 680 c 0
 279 680 300 700 315 759 c 1
231 538 m 0
 346 538 427 423 427 262 c 0
 427 99 346 -14 228 -14 c 0
 111 -14 29 99 29 262 c 0
 29 427 110 538 231 538 c 0
230 461 m 0
 152 461 104 384 104 262 c 0
 104 141 153 63 228 63 c 0
 303 63 352 141 352 262 c 0
 352 382 303 461 230 461 c 0
EndSplineSet
EndChar

StartChar: Ohungarumlaut
Encoding: 291 336 184
Width: 638
Flags: MW
HStem: -19 87<278.5 359.5> 650 87<280.5 375 280.5 382>
VStem: 32 82<302 415> 524 82<302 397.5 302 445.5>
LayerCount: 2
Fore
SplineSet
323 737 m 0
 427 737 508 682 559 580 c 0
 589 518 606 437 606 358 c 0
 606 246 574 144 517 72 c 0
 470 13 400 -19 319 -19 c 0
 238 -19 168 13 121 72 c 0
 64 144 32 246 32 358 c 0
 32 472 64 576 121 646 c 0
 170 706 238 737 323 737 c 0
322 650 m 0
 195 650 114 536 114 358 c 0
 114 184 196 68 319 68 c 0
 442 68 524 184 524 359 c 0
 524 532 442 650 322 650 c 0
370 929 m 1
 263 788 l 1
 208 788 l 1
 281 929 l 1
 370 929 l 1
518 929 m 1
 411 788 l 1
 356 788 l 1
 429 929 l 1
 518 929 l 1
EndSplineSet
EndChar

StartChar: OE
Encoding: 234 338 141
Width: 820
Flags: W
HStem: -19 83<227.5 308.5> 0 87<504 791 504 791 429 791> 325 87<504 776 504 776> 631 87<504 789 504 504> 654 83<238.5 315 238.5 324.5>
VStem: 30 82<252.5 403.5> 424 80<230 325 412 492 492 540.5>
LayerCount: 2
Fore
SplineSet
430 641 m 1x8e
 430 718 l 1
 789 718 l 1
 789 631 l 1
 504 631 l 1
 504 412 l 1
 776 412 l 1
 776 325 l 1
 504 325 l 1
 504 87 l 1
 791 87 l 1
 791 0 l 1
 429 0 l 1x76
 429 78 l 1
 380 4 344 -19 273 -19 c 0
 125 -19 30 126 30 351 c 0
 30 456 51 550 90 618 c 0
 135 698 198 737 279 737 c 0
 351 737 390 712 430 641 c 1x8e
424 230 m 2x8e
 424 492 l 2
 424 589 367 654 282 654 c 0
 172 654 112 544 112 343 c 0
 112 162 172 64 283 64 c 0
 368 64 424 130 424 230 c 2x8e
EndSplineSet
EndChar

StartChar: oe
Encoding: 250 339 147
Width: 774
Flags: W
HStem: -15 77<527.5 578 527.5 596> -14 77<190.5 266 190.5 267> 233 70<426 665 426 740 426 665> 460 78<515 568.5> 461 77<191.5 263.5 169 267>
VStem: 29 75<201.5 323 201.5 343.5>
LayerCount: 2
Fore
SplineSet
662 164 m 1xb4
 734 164 l 1
 715 51 646 -15 546 -15 c 0xb4
 473 -15 428 13 382 86 c 1
 350 17 303 -14 231 -14 c 0
 110 -14 29 97 29 262 c 0
 29 425 110 538 228 538 c 0x4c
 299 538 349 505 389 432 c 1
 434 509 478 538 552 538 c 0
 622 538 670 506 703 437 c 0
 728 386 737 337 740 233 c 1
 426 233 l 1
 428 176 434 147 451 118 c 0
 471 82 506 62 549 62 c 0
 607 62 654 105 662 164 c 1xb4
426 303 m 1
 665 303 l 1
 661 357 654 383 638 410 c 0
 618 442 587 460 550 460 c 0
 480 460 430 397 426 303 c 1
230 461 m 0x4c
 153 461 104 384 104 262 c 0
 104 141 153 63 228 63 c 0
 304 63 353 141 353 262 c 0
 353 382 304 461 230 461 c 0x4c
EndSplineSet
EndChar

StartChar: racute
Encoding: 357 341 250
Width: 273
Flags: W
HStem: 0 20 445 93<228 245 245 256.5 228 272> 503 20<63 131 131 131> 714 20<173 262 262 262>
VStem: 63 68<434 523 434 523 434 523> 63 72<0 305 0 523>
LayerCount: 2
Fore
SplineSet
272 445 m 1x48
 245 445 l 2x44
 181 445 135 386 135 305 c 2
 135 0 l 1
 63 0 l 1
 63 523 l 1xa4
 131 523 l 1xa8
 131 434 l 1
 169 509 203 538 253 538 c 0
 260 538 265 537 272 535 c 1
 272 445 l 1x48
262 734 m 1x10
 155 593 l 1
 100 593 l 1
 173 734 l 1
 262 734 l 1x10
EndSplineSet
EndChar

StartChar: Rcommaaccent
Encoding: 318 342 211
Width: 592
Flags: W
HStem: -157 97<255 301 255 338> 0 20 308 83<152 336 152 336 336 345> 635 83<152 152 152 345 345 350>
VStem: 72 80<0 308 391 635> 72 83 456 82<483.5 556>
LayerCount: 2
Fore
SplineSet
152 308 m 1xfa
 152 0 l 1
 72 0 l 1
 72 718 l 1
 345 718 l 2
 470 718 538 650 538 524 c 0
 538 443 517 399 456 353 c 1
 507 329 522 300 527 218 c 1
 531 88 l 2
 533 44 537 33 561 16 c 1
 561 0 l 1
 463 0 l 1
 456 29 450 104 450 180 c 1
 448 272 419 308 345 308 c 2
 152 308 l 1xfa
152 635 m 1
 152 391 l 1
 336 391 l 2
 418 391 456 431 456 516 c 0
 456 596 421 635 350 635 c 2
 152 635 l 1
255 -60 m 1xf4
 338 -60 l 1
 338 -153 l 2
 338 -239 311 -282 256 -282 c 1
 256 -246 l 1
 287 -248 303 -217 301 -157 c 1
 255 -157 l 1
 255 -60 l 1xf4
EndSplineSet
EndChar

StartChar: rcommaaccent
Encoding: 381 343 274
Width: 273
Flags: W
HStem: -157 97<57 103 57 140> 445 93<228 245 245 256.5 228 272> 503 20<63 131 131 131>
VStem: 57 83<-157 -153 -153 -60> 63 68<434 523 434 523 434 523> 63 72<0 305 0 523>
LayerCount: 2
Fore
SplineSet
272 445 m 1x48
 245 445 l 2xd0
 181 445 135 386 135 305 c 2
 135 0 l 1
 63 0 l 1
 63 523 l 1x24
 131 523 l 1x28
 131 434 l 1
 169 509 203 538 253 538 c 0
 260 538 265 537 272 535 c 1
 272 445 l 1x48
57 -60 m 1
 140 -60 l 1
 140 -153 l 2
 140 -239 113 -282 58 -282 c 1
 58 -246 l 1
 89 -248 105 -217 103 -157 c 1
 57 -157 l 1
 57 -60 l 1
EndSplineSet
EndChar

StartChar: Rcaron
Encoding: 293 344 186
Width: 592
Flags: MW
HStem: 0 20 308 83<152 336 152 336 336 345> 635 83<152 152 152 345 345 350>
VStem: 72 80<0 308 391 635> 456 82<483.5 556>
LayerCount: 2
Fore
SplineSet
152 308 m 1
 152 0 l 1
 72 0 l 1
 72 718 l 1
 345 718 l 2
 470 718 538 650 538 524 c 0
 538 443 517 399 456 353 c 1
 507 329 522 300 527 218 c 1
 531 88 l 2
 533 44 537 33 561 16 c 1
 561 0 l 1
 463 0 l 1
 456 29 450 104 450 180 c 1
 448 272 419 308 345 308 c 2
 152 308 l 1
152 635 m 1
 152 391 l 1
 336 391 l 2
 418 391 456 431 456 516 c 0
 456 596 421 635 350 635 c 2
 152 635 l 1
242 929 m 1
 296 836 l 1
 350 929 l 1
 416 929 l 1
 335 788 l 1
 258 788 l 1
 177 929 l 1
 242 929 l 1
EndSplineSet
EndChar

StartChar: rcaron
Encoding: 384 345 277
Width: 273
Flags: W
HStem: 0 20 445 93<228 245 245 256.5 228 272> 503 20<63 131 131 131> 714 20<44 109 109 109 217 283 283 283>
VStem: 63 68<434 523 434 523 434 523> 63 72<0 305 0 523>
LayerCount: 2
Fore
SplineSet
272 445 m 1x48
 245 445 l 2x54
 181 445 135 386 135 305 c 2
 135 0 l 1
 63 0 l 1
 63 523 l 1xa4
 131 523 l 1xa8
 131 434 l 1
 169 509 203 538 253 538 c 0
 260 538 265 537 272 535 c 1
 272 445 l 1x48
109 734 m 1
 163 641 l 1
 217 734 l 1
 283 734 l 1
 202 593 l 1
 125 593 l 1
 44 734 l 1
 109 734 l 1
EndSplineSet
EndChar

StartChar: Scedilla
Encoding: 296 350 189
Width: 547
Flags: MW
HStem: -225 47<240.5 255 232 281.5> -96 160<247 258.5> 654 83<234.5 297.5>
VStem: 60 77<504.5 547> 287 62<-149 -124.5> 431 77<148.5 222.5>
LayerCount: 2
Fore
SplineSet
281 -19 m 1
 255 -62 l 1
 258 -61 l 1
 260 -61 l 1
 269 -59 274 -58 281 -58 c 0
 322 -58 349 -88 349 -133 c 0
 349 -187 310 -225 253 -225 c 0
 228 -225 206 -219 174 -203 c 1
 188 -163 l 1
 211 -175 224 -178 240 -178 c 0
 270 -178 287 -162 287 -136 c 0
 287 -113 270 -96 247 -96 c 0
 240 -96 232 -98 216 -105 c 1
 202 -86 l 1
 244 -17 l 1
 117 -9 35 91 40 232 c 1
 115 232 l 1
 116 185 122 161 138 134 c 0
 165 89 214 64 280 64 c 0
 375 64 431 109 431 188 c 0
 431 257 403 284 306 312 c 2
 185 346 l 2
 102 369 60 427 60 518 c 0
 60 576 78 630 109 670 c 0
 145 715 199 737 270 737 c 0
 359 737 427 701 462 637 c 1
 480 602 487 572 492 508 c 1
 417 508 l 1
 414 548 408 569 394 593 c 1
 369 632 325 654 270 654 c 0
 186 654 137 608 137 530 c 0
 137 479 159 450 206 437 c 2
 374 390 l 2
 462 366 508 299 508 197 c 0
 508 64 425 -15 281 -19 c 1
EndSplineSet
EndChar

StartChar: scedilla
Encoding: 385 351 278
Width: 410
Flags: MW
HStem: -225 47<172.5 187 163.5 213> -96 158<175.5 190.5> 461 77<171.5 230.5>
VStem: 40 70<368.5 410 368.5 423> 219 62<-149 -124.5> 308 72<118.5 163.5>
LayerCount: 2
Fore
SplineSet
215 -15 m 1
 186 -62 l 1
 189 -61 l 1
 192 -61 l 1
 200 -59 206 -58 212 -58 c 0
 254 -58 281 -88 281 -133 c 0
 281 -187 241 -225 185 -225 c 0
 160 -225 137 -219 106 -203 c 1
 119 -163 l 1
 143 -175 155 -178 172 -178 c 0
 202 -178 219 -162 219 -136 c 0
 219 -113 202 -96 179 -96 c 0
 172 -96 164 -98 147 -105 c 1
 133 -86 l 1
 177 -14 l 1
 77 -2 29 56 26 168 c 1
 96 168 l 1
 101 94 134 62 207 62 c 0
 270 62 308 93 308 144 c 0
 308 183 289 199 223 219 c 2
 139 244 l 2
 72 264 40 306 40 373 c 0
 40 473 105 538 204 538 c 0
 302 538 360 479 366 374 c 1
 296 374 l 1
 293 433 262 461 199 461 c 0
 144 461 110 433 110 387 c 0
 110 350 124 337 187 318 c 2
 260 296 l 2
 347 269 380 231 380 157 c 0
 380 56 319 -8 215 -15 c 1
EndSplineSet
EndChar

StartChar: Tcommaaccent
Encoding: 309 354 202
Width: 501
Flags: MW
HStem: -157 97<209 255 209 292> 0 20 631 87<11 490 11 211 291 291 291 490>
VStem: 11 83 211 80<0 631 0 631>
LayerCount: 2
Fore
SplineSet
11 631 m 1
 11 718 l 1
 490 718 l 1
 490 631 l 1
 291 631 l 1
 291 0 l 1
 211 0 l 1
 211 631 l 1
 11 631 l 1
209 -60 m 1
 292 -60 l 1
 292 -153 l 2
 292 -239 265 -282 210 -282 c 1
 210 -246 l 1
 241 -248 257 -217 255 -157 c 1
 209 -157 l 1
 209 -60 l 1
EndSplineSet
EndChar

StartChar: tcommaaccent
Encoding: 373 355 266
Width: 228
Flags: W
HStem: -157 97<73 119 73 156> -7 20 450 73<11 69 11 69 141 211 11 141>
VStem: 11 83 69 72<105 110 110 450 523 669>
LayerCount: 2
Fore
SplineSet
211 450 m 1xe8
 141 450 l 1
 141 110 l 2
 141 81 153 69 185 69 c 2
 210 69 l 1
 210 0 l 1
 194 -2 184 -3 178 -4 c 0
 162 -7 158 -7 153 -7 c 0
 96 -7 69 29 69 105 c 2
 69 450 l 1
 11 450 l 1
 11 523 l 1
 69 523 l 1
 69 669 l 1
 141 669 l 1
 141 523 l 1
 211 523 l 1
 211 450 l 1xe8
73 -60 m 1xf0
 156 -60 l 1
 156 -153 l 2
 156 -239 129 -282 74 -282 c 1
 74 -246 l 1
 105 -248 121 -217 119 -157 c 1
 73 -157 l 1
 73 -60 l 1xf0
EndSplineSet
EndChar

StartChar: Tcaron
Encoding: 297 356 190
Width: 501
Flags: MW
HStem: 0 20 631 87<11 490 11 211 291 291 291 490>
VStem: 211 80<0 631 0 631>
LayerCount: 2
Fore
SplineSet
11 631 m 1
 11 718 l 1
 490 718 l 1
 490 631 l 1
 291 631 l 1
 291 0 l 1
 211 0 l 1
 211 631 l 1
 11 631 l 1
196 929 m 1
 250 836 l 1
 304 929 l 1
 370 929 l 1
 289 788 l 1
 212 788 l 1
 131 929 l 1
 196 929 l 1
EndSplineSet
EndChar

StartChar: tcaron
Encoding: 361 357 254
Width: 248
Flags: MW
HStem: -7 20 450 73<11 69 11 69 141 186 11 141> 621 97<185 231 185 268>
VStem: 69 72<105 110 110 450 523 669> 185 83<621 625 625 718>
LayerCount: 2
Fore
SplineSet
186 523 m 1
 186 532 l 1
 218 530 233 560 231 621 c 1
 185 621 l 1
 185 718 l 1
 268 718 l 1
 268 625 l 2
 268 556 248 512 211 498 c 1
 211 450 l 1
 141 450 l 1
 141 110 l 2
 141 81 153 69 184 69 c 2
 210 69 l 1
 210 0 l 1
 202 -1 l 2
 189 -3 181 -4 178 -4 c 0
 162 -7 158 -7 153 -7 c 0
 96 -7 69 29 69 105 c 2
 69 450 l 1
 11 450 l 1
 11 523 l 1
 69 523 l 1
 69 669 l 1
 141 669 l 1
 141 523 l 1
 186 523 l 1
EndSplineSet
EndChar

StartChar: Tbar
Encoding: 656 358 549
Width: 501
Flags: MW
HStem: 0 21G<211 291 211 211> 396 73<72 211 72 211 291 427> 631 87<11 490 11 211 291 291 291 490>
VStem: 211 80<0 396 0 396 469 631>
LayerCount: 2
Fore
SplineSet
11 631 m 1
 11 718 l 1
 490 718 l 1
 490 631 l 1
 291 631 l 1
 291 469 l 1
 427 469 l 1
 427 396 l 1
 291 396 l 1
 291 0 l 1
 211 0 l 1
 211 396 l 1
 72 396 l 1
 72 469 l 1
 211 469 l 1
 211 631 l 1
 11 631 l 1
EndSplineSet
EndChar

StartChar: tbar
Encoding: 657 359 550
Width: 228
Flags: W
HStem: -7 76<124.5 210> 296 73<11 69 11 69 141 213 11 141> 450 73<11 69 11 69 141 211 11 141>
VStem: 11 200<296 450 369 450 450 523 450 523> 69 72<105 110 110 296 369 450 523 669>
LayerCount: 2
Fore
SplineSet
211 450 m 1xf0
 141 450 l 1
 141 369 l 1
 213 369 l 1
 213 296 l 1
 141 296 l 1
 141 110 l 2
 141 81 153 69 185 69 c 2
 210 69 l 1
 210 0 l 1
 194 -2 184 -3 178 -4 c 0
 162 -7 158 -7 153 -7 c 0
 96 -7 69 29 69 105 c 2
 69 296 l 1xe8
 11 296 l 1
 11 369 l 1xf0
 69 369 l 1
 69 450 l 1xe8
 11 450 l 1
 11 523 l 1xf0
 69 523 l 1
 69 669 l 1
 141 669 l 1
 141 523 l 1xe8
 211 523 l 1
 211 450 l 1xf0
EndSplineSet
EndChar

StartChar: Utilde
Encoding: 658 360 551
Width: 592
Flags: W
HStem: -19 87<247 343.5 247 364> 698 20G<65 145 145 145 448 528 528 528> 825 63<352 367.5 352 375.5> 862 63<224.5 239.5>
VStem: 65 80<239 266 266 718> 448 80<264 718>
LayerCount: 2
Fore
SplineSet
395 934 m 1xec
 436 934 l 1
 426 862 398 825 353 825 c 0xec
 341 825 328 829 306 838 c 2
 285 847 l 2
 260 858 245 862 234 862 c 0
 215 862 205 850 196 818 c 1
 157 818 l 1
 167 892 194 925 242 925 c 0xdc
 259 925 279 920 298 910 c 2
 316 901 l 2
 332 893 347 888 357 888 c 0
 378 888 389 901 395 934 c 1xec
448 718 m 1
 528 718 l 1
 528 252 l 2
 528 87 436 -19 292 -19 c 0
 153 -19 65 81 65 239 c 2
 65 718 l 1
 145 718 l 1
 145 266 l 2
 145 139 199 68 295 68 c 0
 392 68 448 139 448 264 c 2
 448 718 l 1
EndSplineSet
EndChar

StartChar: utilde
Encoding: 659 361 552
Width: 456
Flags: W
HStem: -15 77<183.5 229> 503 20G<56 128 128 128 329 401 401 401> 630 63<284 299.5 284 307.5> 667 63<156.5 171.5>
VStem: 56 72<147 176 176 523> 329 72<235 523> 333 68<0 81 81 81>
LayerCount: 2
Fore
SplineSet
327 739 m 1xe8
 368 739 l 1
 358 667 330 630 285 630 c 0xe8
 273 630 260 634 238 643 c 2
 217 652 l 2
 192 663 177 667 166 667 c 0
 147 667 137 655 128 623 c 1
 89 623 l 1
 99 697 126 730 174 730 c 0xd8
 191 730 211 725 230 715 c 2
 248 706 l 2
 264 698 279 693 289 693 c 0
 310 693 321 706 327 739 c 1xe8
401 0 m 1xca
 333 0 l 1
 333 81 l 1xca
 295 9 261 -15 197 -15 c 0
 109 -15 56 45 56 147 c 2
 56 523 l 1
 128 523 l 1
 128 176 l 2
 128 101 156 62 211 62 c 0
 283 62 329 129 329 235 c 2
 329 523 l 1
 401 523 l 1xcc
 401 0 l 1xca
EndSplineSet
EndChar

StartChar: Umacron
Encoding: 320 362 213
Width: 592
Flags: W
HStem: -19 87<247 343.5 247 364> 698 20<65 145 145 145 448 528 528 528> 822 57<168 425 168 425>
VStem: 65 80<239 266 266 718> 65 257 448 80<264 718>
LayerCount: 2
Fore
SplineSet
448 718 m 1xf4
 528 718 l 1
 528 252 l 2
 528 87 436 -19 292 -19 c 0
 153 -19 65 81 65 239 c 2
 65 718 l 1
 145 718 l 1
 145 266 l 2
 145 139 199 68 295 68 c 0
 392 68 448 139 448 264 c 2
 448 718 l 1xf4
425 879 m 1xe8
 425 822 l 1
 168 822 l 1
 168 879 l 1
 425 879 l 1xe8
EndSplineSet
EndChar

StartChar: umacron
Encoding: 382 363 275
Width: 456
Flags: W
HStem: -15 77<183.5 229> 503 20<56 128 128 128 329 401 401 401> 627 57<100 357 100 357>
VStem: 56 72<147 176 176 523> 56 257 329 72<235 523> 333 68<0 81 81 81>
LayerCount: 2
Fore
SplineSet
401 0 m 1xf4
 333 0 l 1
 333 81 l 1xe2
 295 9 261 -15 197 -15 c 0
 109 -15 56 45 56 147 c 2
 56 523 l 1
 128 523 l 1
 128 176 l 2
 128 101 156 62 211 62 c 0
 283 62 329 129 329 235 c 2
 329 523 l 1
 401 523 l 1
 401 0 l 1xf4
357 684 m 1xe8
 357 627 l 1
 100 627 l 1
 100 684 l 1
 357 684 l 1xe8
EndSplineSet
EndChar

StartChar: Ubreve
Encoding: 660 364 553
Width: 592
Flags: MW
HStem: -19 87<247 343.5 247 364> 698 20G<65 145 145 145 448 528 528 528> 818 57<275.5 323.5 275.5 333>
VStem: 65 80<239 266 266 718> 448 80<264 718>
LayerCount: 2
Fore
SplineSet
384 954 m 1
 423 954 l 1
 411 860 372 818 294 818 c 0
 219 818 181 860 171 954 c 1
 211 954 l 1
 213 947 l 1
 226 897 252 875 299 875 c 0
 348 875 369 895 384 954 c 1
448 718 m 1
 528 718 l 1
 528 252 l 2
 528 87 436 -19 292 -19 c 0
 153 -19 65 81 65 239 c 2
 65 718 l 1
 145 718 l 1
 145 266 l 2
 145 139 199 68 295 68 c 0
 392 68 448 139 448 264 c 2
 448 718 l 1
EndSplineSet
EndChar

StartChar: ubreve
Encoding: 661 365 554
Width: 456
Flags: W
HStem: -15 77<183.5 229> 503 20G<56 128 128 128 329 401 401 401> 623 57<207.5 255.5 207.5 265>
VStem: 56 72<147 176 176 523> 329 72<235 523> 333 68<0 81 81 81>
LayerCount: 2
Fore
SplineSet
316 759 m 1xf0
 355 759 l 1
 343 665 304 623 226 623 c 0
 151 623 113 665 103 759 c 1
 143 759 l 1
 145 752 l 1
 158 702 184 680 231 680 c 0
 280 680 301 700 316 759 c 1xf0
401 0 m 1xf4
 333 0 l 1
 333 81 l 1xf4
 295 9 261 -15 197 -15 c 0
 109 -15 56 45 56 147 c 2
 56 523 l 1
 128 523 l 1
 128 176 l 2
 128 101 156 62 211 62 c 0
 283 62 329 129 329 235 c 2
 329 523 l 1
 401 523 l 1xf8
 401 0 l 1xf4
EndSplineSet
EndChar

StartChar: Uring
Encoding: 302 366 195
Width: 592
Flags: W
HStem: -19 87<247 343.5 247 364> 698 20<65 145 145 145 448 528 528 528> 767 40<283.5 307 283.5 317> 911 40<284 307.5>
VStem: 65 33 65 80<239 266 266 718> 183 33 448 80<264 718>
LayerCount: 2
Fore
SplineSet
448 718 m 1xf5
 528 718 l 1
 528 252 l 2
 528 87 436 -19 292 -19 c 0
 153 -19 65 81 65 239 c 2
 65 718 l 1
 145 718 l 1
 145 266 l 2
 145 139 199 68 295 68 c 0
 392 68 448 139 448 264 c 2
 448 718 l 1xf5
296 951 m 0xfa
 339 951 371 911 371 859 c 0
 371 806 339 767 295 767 c 0
 252 767 220 806 220 859 c 0
 220 912 252 951 296 951 c 0xfa
296 911 m 0
 272 911 253 888 253 859 c 0
 253 830 272 807 295 807 c 0
 319 807 338 830 338 859 c 0
 338 887 319 911 296 911 c 0
EndSplineSet
EndChar

StartChar: uring
Encoding: 366 367 259
Width: 456
Flags: W
HStem: -15 77<183.5 229> 503 20<56 128 128 128 329 401 401 401> 572 40<215.5 239 215.5 249> 716 40<216 239.5>
VStem: 56 33 56 72<147 176 176 523> 174 33 329 72<235 523> 333 68<0 81 81 81>
LayerCount: 2
Fore
SplineSet
401 0 m 1xf5
 333 0 l 1
 333 81 l 1xf080
 295 9 261 -15 197 -15 c 0
 109 -15 56 45 56 147 c 2
 56 523 l 1
 128 523 l 1
 128 176 l 2
 128 101 156 62 211 62 c 0
 283 62 329 129 329 235 c 2
 329 523 l 1
 401 523 l 1
 401 0 l 1xf5
228 756 m 0xfa
 271 756 303 716 303 664 c 0
 303 611 271 572 227 572 c 0
 184 572 152 611 152 664 c 0
 152 717 184 756 228 756 c 0xfa
228 716 m 0
 204 716 185 693 185 664 c 0
 185 635 204 612 227 612 c 0
 251 612 270 635 270 664 c 0
 270 692 251 716 228 716 c 0
EndSplineSet
EndChar

StartChar: Uhungarumlaut
Encoding: 303 368 196
Width: 592
Flags: MW
HStem: -19 87<247 343.5 247 364> 698 20<65 145 145 145 448 528 528 528>
VStem: 65 80<239 266 266 718> 448 80<264 718>
LayerCount: 2
Fore
SplineSet
448 718 m 1
 528 718 l 1
 528 252 l 2
 528 87 436 -19 292 -19 c 0
 153 -19 65 81 65 239 c 2
 65 718 l 1
 145 718 l 1
 145 266 l 2
 145 139 199 68 295 68 c 0
 392 68 448 139 448 264 c 2
 448 718 l 1
347 929 m 1
 240 788 l 1
 185 788 l 1
 258 929 l 1
 347 929 l 1
495 929 m 1
 388 788 l 1
 333 788 l 1
 406 929 l 1
 495 929 l 1
EndSplineSet
EndChar

StartChar: uhungarumlaut
Encoding: 367 369 260
Width: 456
Flags: W
HStem: -15 77<183.5 229> 503 20<56 128 128 128 329 401 401 401> 714 20<190 279 279 279 338 427 427 427>
VStem: 56 72<147 176 176 523> 329 72<235 523> 333 68<0 81 81 81>
LayerCount: 2
Fore
SplineSet
401 0 m 1xf8
 333 0 l 1
 333 81 l 1xe4
 295 9 261 -15 197 -15 c 0
 109 -15 56 45 56 147 c 2
 56 523 l 1
 128 523 l 1
 128 176 l 2
 128 101 156 62 211 62 c 0
 283 62 329 129 329 235 c 2
 329 523 l 1
 401 523 l 1
 401 0 l 1xf8
279 734 m 1xe0
 172 593 l 1
 117 593 l 1
 190 734 l 1
 279 734 l 1xe0
427 734 m 1
 320 593 l 1
 265 593 l 1
 338 734 l 1
 427 734 l 1
EndSplineSet
EndChar

StartChar: Uogonek
Encoding: 321 370 214
Width: 592
Flags: MW
HStem: -225 47<386 400.5> -19 87<247 304.5> 698 20<65 145 145 145 448 528 528 528>
VStem: 65 80<239 266 266 718> 293 62<-142.5 -107> 448 80<264 718>
LayerCount: 2
Fore
SplineSet
528 718 m 1
 528 252 l 2
 528 195 514 132 492 95 c 0
 481 76 456 43 407 -17 c 0
 364 -69 355 -87 355 -124 c 0
 355 -161 370 -178 402 -178 c 0
 418 -178 429 -175 454 -163 c 1
 468 -203 l 1
 437 -218 413 -225 388 -225 c 0
 332 -225 293 -187 293 -133 c 0
 293 -81 319 -33 358 -11 c 1
 335 -17 316 -19 293 -19 c 0
 153 -19 65 81 65 239 c 2
 65 718 l 1
 145 718 l 1
 145 266 l 2
 145 139 199 68 295 68 c 0
 392 68 448 139 448 264 c 2
 448 718 l 1
 528 718 l 1
EndSplineSet
EndChar

StartChar: uogonek
Encoding: 383 371 276
Width: 456
Flags: MW
HStem: -225 47<350 364.5> -15 77<183.5 229> 503 20<56 128 128 128 329 401 401 401>
VStem: 56 72<147 176 176 523> 257 62<-142.5 -114> 329 72<235 523 -4 523>
LayerCount: 2
Fore
SplineSet
401 523 m 1
 401 -4 l 1
 336 -49 319 -74 319 -124 c 0
 319 -161 334 -178 366 -178 c 0
 382 -178 393 -175 418 -163 c 1
 432 -203 l 1
 402 -218 377 -225 352 -225 c 0
 296 -225 257 -187 257 -133 c 0
 257 -95 271 -57 296 -31 c 0
 309 -17 317 -13 346 0 c 1
 333 0 l 1
 333 81 l 1
 295 9 261 -15 197 -15 c 0
 109 -15 56 45 56 147 c 2
 56 523 l 1
 128 523 l 1
 128 176 l 2
 128 101 156 62 211 62 c 0
 283 62 329 129 329 235 c 2
 329 523 l 1
 401 523 l 1
EndSplineSet
EndChar

StartChar: Wcircumflex
Encoding: 662 372 555
Width: 774
Flags: MW
HStem: 0 21G<166 250 166 166 522 522 522 606> 698 20G<13 99 99 99 343 430 430 430 673 761 761 761>
LayerCount: 2
Fore
SplineSet
386 911 m 1
 332 818 l 1
 267 818 l 1
 348 959 l 1
 425 959 l 1
 506 818 l 1
 440 818 l 1
 386 911 l 1
387 599 m 1
 250 0 l 1
 166 0 l 1
 13 718 l 1
 99 718 l 1
 210 130 l 1
 343 718 l 1
 430 718 l 1
 563 130 l 1
 673 718 l 1
 761 718 l 1
 606 0 l 1
 522 0 l 1
 387 599 l 1
EndSplineSet
EndChar

StartChar: wcircumflex
Encoding: 663 373 556
Width: 592
Flags: MW
HStem: 0 21G<135 209 135 135 382 382 382 456> 503 20G<11 90 90 90 256 337 337 337 509 581 581 581>
LayerCount: 2
Fore
SplineSet
296 716 m 1
 242 623 l 1
 177 623 l 1
 258 764 l 1
 335 764 l 1
 416 623 l 1
 350 623 l 1
 296 716 l 1
294 409 m 1
 209 0 l 1
 135 0 l 1
 11 523 l 1
 90 523 l 1
 173 108 l 1
 256 523 l 1
 337 523 l 1
 421 108 l 1
 509 523 l 1
 581 523 l 1
 456 0 l 1
 382 0 l 1
 294 409 l 1
EndSplineSet
EndChar

StartChar: Ycircumflex
Encoding: 664 374 557
Width: 547
Flags: MW
HStem: 0 21G<233 313 233 233> 698 20G<11 104 104 104 442 535 535 535>
VStem: 233 80<0 289 0 289>
LayerCount: 2
Fore
SplineSet
272 911 m 1
 218 818 l 1
 153 818 l 1
 234 959 l 1
 311 959 l 1
 392 818 l 1
 326 818 l 1
 272 911 l 1
313 289 m 1
 313 0 l 1
 233 0 l 1
 233 289 l 1
 11 718 l 1
 104 718 l 1
 273 373 l 1
 442 718 l 1
 535 718 l 1
 313 289 l 1
EndSplineSet
EndChar

StartChar: ycircumflex
Encoding: 665 375 558
Width: 410
Flags: MW
HStem: -214 79<84.5 107 84.5 126> 503 20G<9 90 90 90 321 401 401 401>
VStem: 9 392<523 523>
LayerCount: 2
Fore
SplineSet
204 716 m 1
 150 623 l 1
 85 623 l 1
 166 764 l 1
 243 764 l 1
 324 623 l 1
 258 623 l 1
 204 716 l 1
205 94 m 1
 321 523 l 1
 401 523 l 1
 246 10 l 1
 182 -197 169 -214 83 -214 c 0
 73 -214 67 -213 54 -208 c 2
 48 -206 l 1
 48 -126 l 1
 62 -132 77 -135 92 -135 c 0
 122 -135 134 -121 150 -68 c 0
 153 -60 160 -38 168 -14 c 1
 9 523 l 1
 90 523 l 1
 205 94 l 1
EndSplineSet
EndChar

StartChar: Ydieresis
Encoding: 310 376 203
Width: 547
Flags: MW
HStem: 0 20 698 20<11 104 104 104 442 535 535 535> 799 102<169 244 169 244 169 301 301 376>
VStem: 11 75 143 75 233 80<0 289 0 289>
LayerCount: 2
Fore
SplineSet
313 289 m 1
 313 0 l 1
 233 0 l 1
 233 289 l 1
 11 718 l 1
 104 718 l 1
 273 373 l 1
 442 718 l 1
 535 718 l 1
 313 289 l 1
244 901 m 1
 244 799 l 1
 169 799 l 1
 169 901 l 1
 244 901 l 1
376 901 m 1
 376 799 l 1
 301 799 l 1
 301 901 l 1
 376 901 l 1
EndSplineSet
EndChar

StartChar: zacute
Encoding: 369 378 262
Width: 410
Flags: MW
HStem: 0 73<121 385 121 385> 450 73<45 284 45 378> 714 20<242 331 331 331>
LayerCount: 2
Fore
SplineSet
378 451 m 1
 121 73 l 1
 385 73 l 1
 385 0 l 1
 25 0 l 1
 25 69 l 1
 284 450 l 1
 45 450 l 1
 45 523 l 1
 378 523 l 1
 378 451 l 1
331 734 m 1
 224 593 l 1
 169 593 l 1
 242 734 l 1
 331 734 l 1
EndSplineSet
EndChar

StartChar: Zdotaccent
Encoding: 307 379 200
Width: 501
Flags: MW
HStem: 0 87<120 482 120 482> 631 87<46 380 46 482> 799 102<233 308 233 308>
VStem: 19 75
LayerCount: 2
Fore
SplineSet
482 87 m 1
 482 0 l 1
 19 0 l 1
 19 82 l 1
 380 631 l 1
 46 631 l 1
 46 718 l 1
 482 718 l 1
 482 633 l 1
 120 87 l 1
 482 87 l 1
308 901 m 1
 308 799 l 1
 233 799 l 1
 233 901 l 1
 308 901 l 1
EndSplineSet
EndChar

StartChar: zdotaccent
Encoding: 371 380 264
Width: 410
Flags: MW
HStem: 0 73<121 385 121 385> 450 73<45 284 45 378> 604 102<168 243 168 243>
VStem: 25 75
LayerCount: 2
Fore
SplineSet
378 451 m 1
 121 73 l 1
 385 73 l 1
 385 0 l 1
 25 0 l 1
 25 69 l 1
 284 450 l 1
 45 450 l 1
 45 523 l 1
 378 523 l 1
 378 451 l 1
243 706 m 1
 243 604 l 1
 168 604 l 1
 168 706 l 1
 243 706 l 1
EndSplineSet
EndChar

StartChar: Zcaron
Encoding: 306 381 199
Width: 501
Flags: MW
HStem: 0 87<120 482 120 482> 631 87<46 380 46 482>
LayerCount: 2
Fore
SplineSet
482 87 m 1
 482 0 l 1
 19 0 l 1
 19 82 l 1
 380 631 l 1
 46 631 l 1
 46 718 l 1
 482 718 l 1
 482 633 l 1
 120 87 l 1
 482 87 l 1
216 929 m 1
 270 836 l 1
 324 929 l 1
 390 929 l 1
 309 788 l 1
 232 788 l 1
 151 929 l 1
 216 929 l 1
EndSplineSet
EndChar

StartChar: zcaron
Encoding: 370 382 263
Width: 410
Flags: MW
HStem: 0 73<121 385 121 385> 450 73<45 284 45 378> 714 20<86 151 151 151 259 325 325 325>
LayerCount: 2
Fore
SplineSet
378 451 m 1
 121 73 l 1
 385 73 l 1
 385 0 l 1
 25 0 l 1
 25 69 l 1
 284 450 l 1
 45 450 l 1
 45 523 l 1
 378 523 l 1
 378 451 l 1
151 734 m 1
 205 641 l 1
 259 734 l 1
 325 734 l 1
 244 593 l 1
 167 593 l 1
 86 734 l 1
 151 734 l 1
EndSplineSet
EndChar

StartChar: longs
Encoding: 666 383 559
Width: 228
Flags: MW
HStem: 0 21G<71 143 71 71> 450 73<11 71 11 71> 649 79<170.5 184 144.5 188.5>
VStem: 71 72<0 450 450 450 523 588>
LayerCount: 2
Fore
SplineSet
143 0 m 1
 71 0 l 1
 71 450 l 1
 11 450 l 1
 11 523 l 1
 71 523 l 1
 71 613 l 2
 71 688 109 728 180 728 c 0
 188 728 193 728 215 726 c 1
 215 647 l 1
 203 648 192 649 185 649 c 0
 156 649 143 631 143 588 c 2
 143 0 l 1
EndSplineSet
EndChar

StartChar: florin
Encoding: 166 402 100
Width: 456
Flags: MW
HStem: -207 78<39 68.5 39 84.5> 391 70<94 183 94 195 269 363 94 259> 660 77<336 357>
LayerCount: 2
Fore
SplineSet
411 722 m 1
 399 644 l 1
 395 646 l 1
 392 647 l 1
 373 657 362 660 352 660 c 0
 320 660 295 624 286 564 c 2
 269 461 l 1
 363 461 l 1
 363 391 l 1
 259 391 l 1
 210 64 l 2
 182 -123 129 -207 40 -207 c 0
 19 -207 7 -204 -9 -195 c 1
 4 -114 l 1
 20 -125 32 -129 46 -129 c 0
 91 -129 110 -89 131 46 c 2
 183 391 l 1
 94 391 l 1
 94 461 l 1
 195 461 l 1
 218 585 l 2
 235 676 288 737 350 737 c 0
 372 737 387 733 411 722 c 1
EndSplineSet
EndChar

StartChar: scommaaccent
Encoding: 360 537 253
Width: 410
Flags: W
HStem: -157 97<164 210 164 247> -15 77<170.5 238.5 170.5 256.5> 461 77<171.5 230.5>
VStem: 26 83 40 70<368.5 410 368.5 423> 308 72<118.5 163.5>
LayerCount: 2
Fore
SplineSet
366 374 m 1xec
 296 374 l 1
 293 433 262 461 199 461 c 0
 144 461 110 433 110 387 c 0
 110 350 124 337 187 318 c 2
 260 296 l 2
 347 269 380 231 380 157 c 0
 380 52 311 -15 202 -15 c 0
 131 -15 76 13 49 64 c 0
 34 91 29 116 26 168 c 1
 96 168 l 1
 101 94 134 62 207 62 c 0
 270 62 308 93 308 144 c 0
 308 183 289 199 223 219 c 2
 139 244 l 2
 72 264 40 306 40 373 c 0
 40 473 105 538 204 538 c 0
 302 538 360 479 366 374 c 1xec
164 -60 m 1xf0
 247 -60 l 1
 247 -153 l 2
 247 -239 220 -282 165 -282 c 1
 165 -246 l 1
 196 -248 212 -217 210 -157 c 1
 164 -157 l 1
 164 -60 l 1xf0
EndSplineSet
EndChar

StartChar: circumflex
Encoding: 195 710 125
Width: 273
Flags: MW
HStem: 714 20<98 175 175 175>
LayerCount: 2
Fore
SplineSet
136 686 m 1
 82 593 l 1
 17 593 l 1
 98 734 l 1
 175 734 l 1
 256 593 l 1
 190 593 l 1
 136 686 l 1
EndSplineSet
EndChar

StartChar: caron
Encoding: 207 711 135
Width: 273
Flags: MW
HStem: 714 20<17 82 82 82 190 256 256 256>
LayerCount: 2
Fore
SplineSet
82 734 m 1
 136 641 l 1
 190 734 l 1
 256 734 l 1
 175 593 l 1
 98 593 l 1
 17 734 l 1
 82 734 l 1
EndSplineSet
EndChar

StartChar: breve
Encoding: 198 728 128
Width: 273
Flags: MW
HStem: 595 57<115.5 163.5 115.5 173> 711 20<11 51 51 51 224 263 263 263>
LayerCount: 2
Fore
SplineSet
224 731 m 1
 263 731 l 1
 251 637 212 595 134 595 c 0
 59 595 21 637 11 731 c 1
 51 731 l 1
 53 724 l 1
 66 674 92 652 139 652 c 0
 188 652 209 672 224 731 c 1
EndSplineSet
EndChar

StartChar: dotaccent
Encoding: 199 729 129
Width: 273
Flags: MW
HStem: 604 102<99 174 99 174>
VStem: 99 75<604 706 604 706>
LayerCount: 2
Fore
SplineSet
174 706 m 1
 174 604 l 1
 99 604 l 1
 99 706 l 1
 174 706 l 1
EndSplineSet
EndChar

StartChar: ring
Encoding: 202 730 131
Width: 273
Flags: MW
HStem: 572 40<124.5 148 124.5 158> 716 40<125 148.5>
VStem: 61 33<649.5 678.5 649.5 690.5> 179 33<649.5 678>
LayerCount: 2
Fore
SplineSet
137 756 m 0
 180 756 212 716 212 664 c 0
 212 611 180 572 136 572 c 0
 93 572 61 611 61 664 c 0
 61 717 93 756 137 756 c 0
137 716 m 0
 113 716 94 693 94 664 c 0
 94 635 113 612 136 612 c 0
 160 612 179 635 179 664 c 0
 179 692 160 716 137 716 c 0
EndSplineSet
EndChar

StartChar: ogonek
Encoding: 206 731 134
Width: 273
Flags: MW
HStem: -225 47<153 167.5>
VStem: 60 62<-142.5 -118>
LayerCount: 2
Fore
SplineSet
221 -163 m 1
 235 -203 l 1
 205 -218 180 -225 155 -225 c 0
 99 -225 60 -187 60 -133 c 0
 60 -103 69 -72 85 -48 c 0
 101 -25 116 -14 149 0 c 1
 204 0 l 1
 204 -4 l 1
 139 -49 122 -74 122 -124 c 0
 122 -161 137 -178 169 -178 c 0
 185 -178 196 -175 221 -163 c 1
EndSplineSet
EndChar

StartChar: tilde
Encoding: 196 732 126
Width: 273
Flags: W
HStem: 613 63<192 207.5 192 215.5> 650 63<64.5 79.5> 698 20 702 20<235 276 276 276>
LayerCount: 2
Fore
SplineSet
235 722 m 1x90
 276 722 l 1
 266 650 238 613 193 613 c 0x90
 181 613 168 617 146 626 c 2
 125 635 l 2
 100 646 85 650 74 650 c 0
 55 650 45 638 36 606 c 1
 -3 606 l 1
 7 680 34 713 82 713 c 0x40
 99 713 119 708 138 698 c 2x20
 156 689 l 2
 172 681 187 676 197 676 c 0
 218 676 229 689 235 722 c 1x90
EndSplineSet
EndChar

StartChar: hungarumlaut
Encoding: 205 733 133
Width: 273
Flags: MW
HStem: 714 20<98 187 187 187 246 335 335 335>
LayerCount: 2
Fore
SplineSet
187 734 m 1
 80 593 l 1
 25 593 l 1
 98 734 l 1
 187 734 l 1
335 734 m 1
 228 593 l 1
 173 593 l 1
 246 734 l 1
 335 734 l 1
EndSplineSet
EndChar

StartChar: Delta
Encoding: 412 916 305
Width: 502
Flags: MW
HStem: 0 51<63 393 63 499>
LayerCount: 2
Fore
SplineSet
5 0 m 1
 268 688 l 1
 499 0 l 1
 5 0 l 1
63 51 m 1
 393 51 l 1
 238 509 l 1
 63 51 l 1
EndSplineSet
EndChar

StartChar: mu
Encoding: 421 956 314
Width: 456
Flags: W
HStem: -207 207<56 401> -15 77<183.5 230> 503 20<56 128 128 128 329 401 401 401>
VStem: 56 72<-207 21 138.5 176 176 523> 329 72<235 523> 333 68<0 81 81 81>
LayerCount: 2
Fore
SplineSet
401 0 m 1xb8
 333 0 l 1x84
 333 81 l 1
 296 10 261 -15 199 -15 c 0x44
 165 -15 146 -5 128 21 c 1
 128 -207 l 1
 56 -207 l 1x98
 56 523 l 1
 128 523 l 1
 128 176 l 2
 128 101 156 62 211 62 c 0x78
 283 62 329 129 329 235 c 2
 329 523 l 1
 401 523 l 1
 401 0 l 1xb8
EndSplineSet
EndChar

StartChar: uni0400
Encoding: 488 1024 381
Width: 537
Flags: MW
HStem: 0 87<141 495 141 495 61 495> 325 87<141 462 141 462> 631 87<141 489 141 141>
VStem: 61 80<87 325 412 631>
LayerCount: 2
Fore
SplineSet
301 818 m 1
 194 959 l 1
 283 959 l 1
 356 818 l 1
 301 818 l 1
495 87 m 1
 495 0 l 1
 61 0 l 1
 61 718 l 1
 489 718 l 1
 489 631 l 1
 141 631 l 1
 141 412 l 1
 462 412 l 1
 462 325 l 1
 141 325 l 1
 141 87 l 1
 495 87 l 1
EndSplineSet
EndChar

StartChar: afii10023
Encoding: 428 1025 321
Width: 537
Flags: MW
HStem: 0 87<141 495 141 495 61 495> 325 87<141 462 141 462> 631 87<141 489 141 141> 799 102<160 235 160 235 160 292 292 367>
VStem: 61 80<87 325 412 631> 160 75<799 901 799 901> 292 75<799 901 799 901>
LayerCount: 2
Fore
SplineSet
495 87 m 1
 495 0 l 1
 61 0 l 1
 61 718 l 1
 489 718 l 1
 489 631 l 1
 141 631 l 1
 141 412 l 1
 462 412 l 1
 462 325 l 1
 141 325 l 1
 141 87 l 1
 495 87 l 1
235 901 m 1
 235 799 l 1
 160 799 l 1
 160 901 l 1
 235 901 l 1
367 901 m 1
 367 799 l 1
 292 799 l 1
 292 901 l 1
 367 901 l 1
EndSplineSet
EndChar

StartChar: afii10051
Encoding: 489 1026 382
Width: 631
Flags: MW
HStem: -131 82<378 403.5 378 418.5> 0 21G<172 251 172 172 589 589> 381 82<352.5 403.5> 631 87<12 172 12 411 252 252 252 411>
VStem: 172 79<0 331 0 631> 509 80<8 324 324 332>
LayerCount: 2
Fore
SplineSet
378 -131 m 1
 378 -49 l 1
 429 -49 509 -35 509 8 c 2
 509 324 l 2
 509 367 429 381 378 381 c 0
 320 381 251 361 251 331 c 2
 251 0 l 1
 172 0 l 1
 172 631 l 1
 12 631 l 1
 12 718 l 1
 411 718 l 1
 411 631 l 1
 252 631 l 1
 252 427 l 1
 259 438 327 463 378 463 c 0
 459 463 589 431 589 332 c 2
 589 0 l 2
 589 -99 459 -131 378 -131 c 1
EndSplineSet
EndChar

StartChar: afii10052
Encoding: 490 1027 383
Width: 489
Flags: MW
HStem: 0 21G<61 141 61 61> 631 87<141 468 141 141>
VStem: 61 80<0 631>
LayerCount: 2
Fore
SplineSet
246 919 m 1
 139 778 l 1
 84 778 l 1
 157 919 l 1
 246 919 l 1
141 0 m 1
 61 0 l 1
 61 718 l 1
 468 718 l 1
 468 631 l 1
 141 631 l 1
 141 0 l 1
EndSplineSet
EndChar

StartChar: afii10053
Encoding: 491 1028 384
Width: 588
Flags: MW
HStem: -19 87<247.5 329.5> 325 87<117 394 117 394 115 394> 650 87<254.5 329.5>
VStem: 32 83<325 325 325 474>
LayerCount: 2
Fore
SplineSet
117 412 m 1
 394 412 l 1
 394 325 l 1
 115 325 l 1
 122 162 191 68 304 68 c 0
 359 68 401 92 434 141 c 0
 455 173 465 202 477 264 c 1
 554 264 l 1
 534 151 512 99 467 53 c 1
 423 6 362 -19 297 -19 c 0
 135 -19 32 127 32 358 c 0
 32 590 139 737 307 737 c 0
 395 737 468 696 510 623 c 0
 532 586 541 558 548 502 c 1
 471 502 l 1
 458 559 445 586 416 612 c 0
 388 636 350 650 309 650 c 0
 200 650 130 562 117 412 c 1
EndSplineSet
EndChar

StartChar: afii10055
Encoding: 493 1030 386
Width: 213
Flags: MW
HStem: 0 21G<67 146 67 67> 698 20G<67 146 146 146>
VStem: 67 79<0 718 0 718>
LayerCount: 2
Fore
SplineSet
146 718 m 1
 146 0 l 1
 67 0 l 1
 67 718 l 1
 146 718 l 1
EndSplineSet
EndChar

StartChar: afii10056
Encoding: 494 1031 387
Width: 341
Flags: W
HStem: 0 21G<131 211 131 131> 698 20G<131 211 211 211> 799 102<67 142 67 142 67 199 199 274>
VStem: 67 75<799 901 799 901> 131 80<0 718 0 718> 199 75<799 901 799 901>
LayerCount: 2
Fore
SplineSet
211 718 m 1xe8
 211 0 l 1
 131 0 l 1
 131 718 l 1
 211 718 l 1xe8
142 901 m 1xf0
 142 799 l 1
 67 799 l 1
 67 901 l 1
 142 901 l 1xf0
274 901 m 1xe4
 274 799 l 1
 199 799 l 1
 199 901 l 1
 274 901 l 1xe4
EndSplineSet
EndChar

StartChar: afii10057
Encoding: 495 1032 388
Width: 410
Flags: MW
HStem: -19 83<148 210 148 234.5> 698 20G<271 351 351 351>
VStem: 14 75<160 181 181 231 141 231> 271 80<188 194 194 718>
LayerCount: 2
Fore
SplineSet
14 231 m 1
 89 231 l 1
 89 181 l 2
 89 101 117 64 179 64 c 0
 241 64 271 105 271 188 c 2
 271 718 l 1
 351 718 l 1
 351 194 l 2
 351 58 289 -19 180 -19 c 0
 79 -19 14 51 14 160 c 2
 14 231 l 1
EndSplineSet
EndChar

StartChar: afii10058
Encoding: 496 1033 389
Width: 896
Flags: MW
HStem: 0 86<21 72.5 21 116.5> 332 83<514 671 514 698> 633 85<213 434 213 213>
VStem: 132 81<565.5 633 520.5 718> 434 80<83 83 83 332 415 633 633 633> 791 82<164.5 248>
LayerCount: 2
Fore
SplineSet
434 0 m 1
 434 633 l 1
 213 633 l 1
 213 408 212 0 21 0 c 1
 21 86 l 1
 124 86 132 413 132 718 c 1
 514 718 l 1
 514 415 l 1
 698 415 l 2
 804 415 873 331 873 203 c 0
 873 81 803 0 698 0 c 2
 434 0 l 1
514 83 m 1
 674 83 l 2
 753 83 791 123 791 206 c 0
 791 290 751 332 671 332 c 2
 514 332 l 1
 514 83 l 1
EndSplineSet
EndChar

StartChar: afii10059
Encoding: 497 1034 390
Width: 924
Flags: W
HStem: 0 83<528 688 688 712 448 688> 332 83<528 685 528 712> 334 87<141 448 141 448> 698 20G<61 141 141 141 448 528 528 528>
VStem: 61 80<0 334 421 718> 448 80<83 83 83 332 421 718> 805 82<164.5 248>
LayerCount: 2
Fore
SplineSet
528 718 m 1xbe
 528 415 l 1
 712 415 l 2xde
 818 415 887 331 887 203 c 0
 887 81 817 0 712 0 c 2
 448 0 l 1
 448 334 l 1
 141 334 l 1
 141 0 l 1
 61 0 l 1
 61 718 l 1
 141 718 l 1
 141 421 l 1
 448 421 l 1
 448 718 l 1
 528 718 l 1xbe
528 83 m 1
 688 83 l 2
 767 83 805 123 805 206 c 0
 805 290 765 332 685 332 c 2
 528 332 l 1
 528 83 l 1
EndSplineSet
EndChar

StartChar: afii10060
Encoding: 498 1035 391
Width: 631
Flags: MW
HStem: 0 21G<172 251 172 172 509 509 509 589> 381 82<352.5 403.5> 631 87<12 172 12 411 252 252 252 411>
VStem: 172 79<0 331> 509 80<0 324 324 332 0 345.5>
LayerCount: 2
Fore
SplineSet
251 0 m 1
 172 0 l 1
 172 631 l 1
 12 631 l 1
 12 718 l 1
 411 718 l 1
 411 631 l 1
 252 631 l 1
 252 427 l 1
 259 438 327 463 378 463 c 0
 459 463 589 431 589 332 c 2
 589 0 l 1
 509 0 l 1
 509 324 l 2
 509 367 429 381 378 381 c 0
 320 381 251 361 251 331 c 2
 251 0 l 1
EndSplineSet
EndChar

StartChar: afii10061
Encoding: 499 1036 392
Width: 552
Flags: MW
HStem: 0 21G<61 141 61 61 440 440 440 543> 698 20G<61 141 141 141 427 537 537 537>
VStem: 61 80<0 350 0 428 428 718>
LayerCount: 2
Fore
SplineSet
434 898 m 1
 326 757 l 1
 272 757 l 1
 344 898 l 1
 434 898 l 1
141 350 m 1
 141 0 l 1
 61 0 l 1
 61 718 l 1
 141 718 l 1
 141 428 l 1
 177 428 l 1
 427 718 l 1
 537 718 l 1
 248 382 l 1
 543 0 l 1
 440 0 l 1
 168 350 l 1
 141 350 l 1
EndSplineSet
EndChar

StartChar: uni040D
Encoding: 500 1037 393
Width: 596
Flags: MW
HStem: 0 21G<61 150 61 61 452 529 452 452> 698 20G<61 138 138 138 435 529 529 529>
VStem: 61 77<135 135 135 718> 452 77<0 583 583 583>
LayerCount: 2
Fore
SplineSet
321 818 m 1
 214 959 l 1
 303 959 l 1
 376 818 l 1
 321 818 l 1
138 135 m 1
 435 718 l 1
 529 718 l 1
 529 0 l 1
 452 0 l 1
 452 583 l 1
 150 0 l 1
 61 0 l 1
 61 718 l 1
 138 718 l 1
 138 135 l 1
EndSplineSet
EndChar

StartChar: afii10062
Encoding: 501 1038 394
Width: 546
Flags: MW
HStem: 0 21G<78 166 78 78> 698 20G<11 104 104 104 442 535 535 535> 742 57<258.5 306.5 258.5 316>
LayerCount: 2
Fore
SplineSet
367 878 m 1
 406 878 l 1
 394 784 355 742 277 742 c 0
 202 742 164 784 154 878 c 1
 194 878 l 1
 196 871 l 1
 209 821 235 799 282 799 c 0
 331 799 352 819 367 878 c 1
166 0 m 1
 78 0 l 1
 226 298 l 1
 11 718 l 1
 104 718 l 1
 273 373 l 1
 442 718 l 1
 535 718 l 1
 166 0 l 1
EndSplineSet
EndChar

StartChar: afii10145
Encoding: 502 1039 395
Width: 595
Flags: MW
HStem: 0 87<141 254 61 448 334 448 141 528 334 334> 698 20G<61 141 141 141 448 528 528 528>
VStem: 61 80<87 718 87 718 87 718> 254 80<-120 0 -120 0> 448 80<87 718>
LayerCount: 2
Fore
SplineSet
528 0 m 1
 334 0 l 1
 334 -120 l 1
 254 -120 l 1
 254 0 l 1
 61 0 l 1
 61 718 l 1
 141 718 l 1
 141 87 l 1
 448 87 l 1
 448 718 l 1
 528 718 l 1
 528 0 l 1
EndSplineSet
EndChar

StartChar: afii10017
Encoding: 422 1040 315
Width: 547
Flags: MW
HStem: 0 21G<11 93 11 11 449 449 449 536> 209 87<179 362 179 391 155 362> 698 20G<232 323 323 323>
LayerCount: 2
Fore
SplineSet
391 209 m 1
 155 209 l 1
 93 0 l 1
 11 0 l 1
 232 718 l 1
 323 718 l 1
 536 0 l 1
 449 0 l 1
 391 209 l 1
179 296 m 1
 362 296 l 1
 274 614 l 1
 179 296 l 1
EndSplineSet
EndChar

StartChar: afii10018
Encoding: 423 1041 316
Width: 551
Flags: MW
HStem: 0 83<141 311 311 315 61 311> 336 78<141 285 141 285 285 297> 631 87<141 478 141 141>
VStem: 61 80<83 336 414 631> 434 80<172.5 254.5>
LayerCount: 2
Fore
SplineSet
478 631 m 1
 141 631 l 1
 141 414 l 1
 285 414 l 2
 483 414 514 302 514 214 c 0
 514 97 435 0 315 0 c 2
 61 0 l 1
 61 718 l 1
 478 718 l 1
 478 631 l 1
141 336 m 1
 141 83 l 1
 311 83 l 2
 389 83 434 131 434 214 c 0
 434 295 388 336 297 336 c 2
 141 336 l 1
EndSplineSet
EndChar

StartChar: afii10020
Encoding: 425 1043 318
Width: 489
Flags: MW
HStem: 0 21G<61 141 61 61> 631 87<141 468 141 141>
VStem: 61 80<0 631>
LayerCount: 2
Fore
SplineSet
141 0 m 1
 61 0 l 1
 61 718 l 1
 468 718 l 1
 468 631 l 1
 141 631 l 1
 141 0 l 1
EndSplineSet
EndChar

StartChar: afii10021
Encoding: 426 1044 319
Width: 666
Flags: W
HStem: -120 206<21 74 74 101 21 74 567 645> 0 86<101 125.5 21 565 101 101> 633 85<266 487 266 266>
VStem: 21 80<-120 0 -120 86> 487 80<88 633 633 633> 565 80<-120 0 0 0>
LayerCount: 2
Fore
SplineSet
74 86 m 2xb4
 177 86 185 413 185 718 c 1
 567 718 l 1
 567 86 l 1xb8
 645 86 l 1
 645 -120 l 1
 565 -120 l 1xb4
 565 0 l 1
 101 0 l 1x74
 101 -120 l 1
 21 -120 l 1
 21 86 l 1
 74 86 l 2xb4
197 88 m 1
 487 88 l 1
 487 633 l 1
 266 633 l 1
 266 473 265 221 197 88 c 1
EndSplineSet
EndChar

StartChar: afii10022
Encoding: 427 1045 320
Width: 537
Flags: MW
HStem: 0 87<141 495 141 495 61 495> 325 87<141 462 141 462> 631 87<141 489 141 141>
VStem: 61 80<87 325 412 631>
LayerCount: 2
Fore
SplineSet
495 87 m 1
 495 0 l 1
 61 0 l 1
 61 718 l 1
 489 718 l 1
 489 631 l 1
 141 631 l 1
 141 412 l 1
 462 412 l 1
 462 325 l 1
 141 325 l 1
 141 87 l 1
 495 87 l 1
EndSplineSet
EndChar

StartChar: afii10024
Encoding: 429 1046 322
Width: 902
Flags: MW
HStem: 0 21G<9 112 9 9 411 411 411 491 790 790 790 893> 350 78<384 411 384 384 491 518> 698 20G<15 125 125 125 411 491 491 491 777 887 887 887>
VStem: 411 80<0 350 0 350 428 718>
LayerCount: 2
Fore
SplineSet
411 350 m 1
 384 350 l 1
 112 0 l 1
 9 0 l 1
 304 382 l 1
 15 718 l 1
 125 718 l 1
 375 428 l 1
 411 428 l 1
 411 718 l 1
 491 718 l 1
 491 428 l 1
 527 428 l 1
 777 718 l 1
 887 718 l 1
 598 382 l 1
 893 0 l 1
 790 0 l 1
 518 350 l 1
 491 350 l 1
 491 0 l 1
 411 0 l 1
 411 350 l 1
EndSplineSet
EndChar

StartChar: afii10027
Encoding: 432 1049 325
Width: 596
Flags: MW
HStem: 0 21G<61 150 61 61 452 529 452 452> 698 20G<61 138 138 138 435 529 529 529> 742 57<290.5 338.5 290.5 348>
VStem: 61 77<135 135 135 718> 452 77<0 583 583 583>
LayerCount: 2
Fore
SplineSet
399 878 m 1
 438 878 l 1
 426 784 387 742 309 742 c 0
 234 742 196 784 186 878 c 1
 226 878 l 1
 228 871 l 1
 241 821 267 799 314 799 c 0
 363 799 384 819 399 878 c 1
138 135 m 1
 435 718 l 1
 529 718 l 1
 529 0 l 1
 452 0 l 1
 452 583 l 1
 150 0 l 1
 61 0 l 1
 61 718 l 1
 138 718 l 1
 138 135 l 1
EndSplineSet
EndChar

StartChar: afii10028
Encoding: 433 1050 326
Width: 552
Flags: MW
HStem: 0 21G<61 141 61 61 440 440 440 543> 698 20G<61 141 141 141 427 537 537 537>
VStem: 61 80<0 350 0 428 428 718>
LayerCount: 2
Fore
SplineSet
141 350 m 1
 141 0 l 1
 61 0 l 1
 61 718 l 1
 141 718 l 1
 141 428 l 1
 177 428 l 1
 427 718 l 1
 537 718 l 1
 248 382 l 1
 543 0 l 1
 440 0 l 1
 168 350 l 1
 141 350 l 1
EndSplineSet
EndChar

StartChar: afii10029
Encoding: 434 1051 327
Width: 581
Flags: W
HStem: 0 86<21 72.5 21 116.5> 633 85<213 434 213 213>
VStem: 132 81<565.5 633 520.5 718> 132 382<565.5 718> 434 80<0 633 633 633>
LayerCount: 2
Fore
SplineSet
434 633 m 1xc8
 213 633 l 1xe8
 213 408 212 0 21 0 c 1
 21 86 l 1
 124 86 132 413 132 718 c 1
 514 718 l 1xd0
 514 0 l 1
 434 0 l 1
 434 633 l 1xc8
EndSplineSet
EndChar

StartChar: afii10030
Encoding: 435 1052 328
Width: 692
Flags: MW
HStem: 0 21G<61 138 61 61 304 382 304 304 548 625 548 548> 698 20G<61 175 175 175 512 625 625 625>
VStem: 61 75<608 608 608 718> 548 77<0 424 424 469 469 469>
LayerCount: 2
Fore
SplineSet
625 0 m 1
 548 0 l 1
 548 424 l 1
 548 469 l 1
 549 493 549 540 550 609 c 1
 382 0 l 1
 304 0 l 1
 136 608 l 1
 137 544 137 490 137 470 c 0
 138 447 138 432 138 424 c 2
 138 0 l 1
 61 0 l 1
 61 718 l 1
 175 718 l 1
 344 108 l 1
 512 718 l 1
 625 718 l 1
 625 0 l 1
EndSplineSet
EndChar

StartChar: afii10031
Encoding: 436 1053 329
Width: 595
Flags: MW
HStem: 0 21G<61 141 61 61 448 528 448 448> 334 87<141 448 141 448> 698 20G<61 141 141 141 448 528 528 528>
VStem: 61 80<0 334 421 718> 448 80<0 334 334 334 421 718 0 718>
LayerCount: 2
Fore
SplineSet
448 421 m 1
 448 718 l 1
 528 718 l 1
 528 0 l 1
 448 0 l 1
 448 334 l 1
 141 334 l 1
 141 0 l 1
 61 0 l 1
 61 718 l 1
 141 718 l 1
 141 421 l 1
 448 421 l 1
EndSplineSet
EndChar

StartChar: afii10033
Encoding: 438 1055 331
Width: 595
Flags: MW
HStem: 0 21G<61 141 61 61 448 528 448 448> 631 87<141 448 141 141>
VStem: 61 80<0 631 0 718> 448 80<0 631 631 631>
LayerCount: 2
Fore
SplineSet
528 718 m 1
 528 0 l 1
 448 0 l 1
 448 631 l 1
 141 631 l 1
 141 0 l 1
 61 0 l 1
 61 718 l 1
 528 718 l 1
EndSplineSet
EndChar

StartChar: afii10034
Encoding: 439 1056 332
Width: 547
Flags: MW
HStem: 0 21G<61 141 61 61> 303 83<141 298 141 298 298 325> 635 83<141 141 141 301>
VStem: 61 80<0 303 386 635> 418 82<470 553.5>
LayerCount: 2
Fore
SplineSet
141 303 m 1
 141 0 l 1
 61 0 l 1
 61 718 l 1
 325 718 l 2
 430 718 500 637 500 515 c 0
 500 387 431 303 325 303 c 2
 141 303 l 1
141 635 m 1
 141 386 l 1
 298 386 l 2
 378 386 418 428 418 512 c 0
 418 595 380 635 301 635 c 2
 141 635 l 1
EndSplineSet
EndChar

StartChar: afii10035
Encoding: 440 1057 333
Width: 588
Flags: MW
HStem: -19 87<244 329.5> 650 87<248 329.5>
VStem: 32 82<264 447 264 474>
LayerCount: 2
Fore
SplineSet
548 502 m 1
 471 502 l 1
 458 559 445 586 416 612 c 0
 388 636 350 650 309 650 c 0
 187 650 114 539 114 355 c 0
 114 173 184 68 304 68 c 0
 359 68 401 92 434 141 c 0
 455 173 465 202 477 264 c 1
 554 264 l 1
 534 151 512 99 467 53 c 1
 423 6 362 -19 297 -19 c 0
 135 -19 32 127 32 358 c 0
 32 590 139 737 307 737 c 0
 395 737 468 696 510 623 c 0
 532 586 541 558 548 502 c 1
EndSplineSet
EndChar

StartChar: afii10036
Encoding: 441 1058 334
Width: 503
Flags: MW
HStem: 0 21G<212 292 212 212> 631 87<12 491 12 212 292 292 292 491>
VStem: 212 80<0 631 0 631>
LayerCount: 2
Fore
SplineSet
12 631 m 1
 12 718 l 1
 491 718 l 1
 491 631 l 1
 292 631 l 1
 292 0 l 1
 212 0 l 1
 212 631 l 1
 12 631 l 1
EndSplineSet
EndChar

StartChar: afii10037
Encoding: 442 1059 335
Width: 548
Flags: MW
HStem: 0 21G<79 167 79 79> 698 20G<12 105 105 105 443 536 536 536>
LayerCount: 2
Fore
SplineSet
167 0 m 1
 79 0 l 1
 227 298 l 1
 12 718 l 1
 105 718 l 1
 274 373 l 1
 443 718 l 1
 536 718 l 1
 167 0 l 1
EndSplineSet
EndChar

StartChar: afii10038
Encoding: 443 1060 336
Width: 737
Flags: MW
HStem: 0 21G<329 408 329 329> 75 82<282.5 329 408 456> 562 83<286.5 329 286.5 329 408 448> 698 20G<329 408 408 408>
VStem: 34 87<320.5 415> 329 79<0 75 0 75 157 562 645 718> 616 87<322.5 414 322.5 419>
LayerCount: 2
Fore
SplineSet
329 562 m 1
 176 562 121 472 121 362 c 0
 121 247 178 157 329 157 c 1
 329 562 l 1
329 645 m 1
 329 718 l 1
 408 718 l 1
 408 645 l 1
 488 645 554 637 618 576 c 0
 685 513 703 465 703 363 c 0
 703 282 678 208 619 161 c 0
 556 111 504 75 408 75 c 1
 408 0 l 1
 329 0 l 1
 329 75 l 1
 236 75 162 106 113 159 c 0
 60 216 34 278 34 363 c 0
 34 467 62 526 118 576 c 0
 186 636 244 645 329 645 c 1
408 562 m 1
 408 157 l 1
 562 157 616 249 616 362 c 0
 616 476 562 562 408 562 c 1
EndSplineSet
EndChar

StartChar: afii10039
Encoding: 444 1061 337
Width: 539
Flags: MW
HStem: 0 21G<12 108 12 12 429 527 429 429> 698 20G<25 125 125 125 423 518 518 518>
LayerCount: 2
Fore
SplineSet
321 368 m 1
 527 0 l 1
 429 0 l 1
 271 295 l 1
 108 0 l 1
 12 0 l 1
 222 368 l 1
 25 718 l 1
 125 718 l 1
 274 443 l 1
 423 718 l 1
 518 718 l 1
 321 368 l 1
EndSplineSet
EndChar

StartChar: afii10040
Encoding: 445 1062 338
Width: 645
Flags: MW
HStem: 0 86<528 544> 698 20G<61 141 141 141 448 528 528 528>
VStem: 61 80<87 718 87 718 87 718> 448 80<87 718 86 718> 544 80<-120 0 0 0>
LayerCount: 2
Fore
SplineSet
544 0 m 1
 61 0 l 1
 61 718 l 1
 141 718 l 1
 141 87 l 1
 448 87 l 1
 448 718 l 1
 528 718 l 1
 528 86 l 1
 624 86 l 1
 624 -120 l 1
 544 -120 l 1
 544 0 l 1
EndSplineSet
EndChar

StartChar: afii10042
Encoding: 447 1064 340
Width: 698
Flags: MW
HStem: 0 87<141 141 386 551 61 141> 698 20G<61 141 141 141 306 386 386 386 551 631 631 631>
VStem: 61 80<87 718 87 718 87 718> 306 80<88 718> 551 80<87 718 0 718>
LayerCount: 2
Fore
SplineSet
386 87 m 1
 551 87 l 1
 551 718 l 1
 631 718 l 1
 631 0 l 1
 61 0 l 1
 61 718 l 1
 141 718 l 1
 141 87 l 1
 306 88 l 1
 306 718 l 1
 386 718 l 1
 386 87 l 1
EndSplineSet
EndChar

StartChar: afii10043
Encoding: 448 1065 341
Width: 748
Flags: MW
HStem: 0 87<141 141 386 551 61 141> 698 20G<61 141 141 141 306 386 386 386 551 631 631 631>
VStem: 61 80<87 718 87 718 87 718> 306 80<88 718> 551 80<87 718 86 718> 647 80<-120 0 0 0>
LayerCount: 2
Fore
SplineSet
386 87 m 1
 551 87 l 1
 551 718 l 1
 631 718 l 1
 631 86 l 1
 727 86 l 1
 727 -120 l 1
 647 -120 l 1
 647 0 l 1
 61 0 l 1
 61 718 l 1
 141 718 l 1
 141 87 l 1
 306 88 l 1
 306 718 l 1
 386 718 l 1
 386 87 l 1
EndSplineSet
EndChar

StartChar: afii10044
Encoding: 449 1066 342
Width: 711
Flags: MW
HStem: 0 83<315 475 475 499 235 475> 332 83<315 472 315 499> 631 87<12 235 12 315>
VStem: 235 80<83 83 83 332 415 631 631 631> 592 82<164.5 248>
LayerCount: 2
Fore
SplineSet
235 631 m 1
 12 631 l 1
 12 718 l 1
 315 718 l 1
 315 415 l 1
 499 415 l 2
 605 415 674 331 674 203 c 0
 674 81 604 0 499 0 c 2
 235 0 l 1
 235 631 l 1
315 83 m 1
 475 83 l 2
 554 83 592 123 592 206 c 0
 592 290 552 332 472 332 c 2
 315 332 l 1
 315 83 l 1
EndSplineSet
EndChar

StartChar: afii10045
Encoding: 450 1067 343
Width: 783
Flags: MW
HStem: 0 83<141 301 301 325 61 301> 332 83<141 298 141 325> 698 20G<61 141 141 141 636 716 716 716>
VStem: 61 80<83 83 83 332 415 718> 418 82<164.5 248> 636 80<0 718 0 718>
LayerCount: 2
Fore
SplineSet
716 718 m 1
 716 0 l 1
 636 0 l 1
 636 718 l 1
 716 718 l 1
141 415 m 1
 325 415 l 2
 431 415 500 331 500 203 c 0
 500 81 430 0 325 0 c 2
 61 0 l 1
 61 718 l 1
 141 718 l 1
 141 415 l 1
141 83 m 1
 301 83 l 2
 380 83 418 123 418 206 c 0
 418 290 378 332 298 332 c 2
 141 332 l 1
 141 83 l 1
EndSplineSet
EndChar

StartChar: afii10046
Encoding: 451 1068 344
Width: 537
Flags: MW
HStem: 0 83<141 301 301 325 61 301> 332 83<141 298 141 325> 698 20G<61 141 141 141>
VStem: 61 80<83 83 83 332 415 718> 418 82<164.5 248>
LayerCount: 2
Fore
SplineSet
141 415 m 1
 325 415 l 2
 431 415 500 331 500 203 c 0
 500 81 430 0 325 0 c 2
 61 0 l 1
 61 718 l 1
 141 718 l 1
 141 415 l 1
141 83 m 1
 301 83 l 2
 380 83 418 123 418 206 c 0
 418 290 378 332 298 332 c 2
 141 332 l 1
 141 83 l 1
EndSplineSet
EndChar

StartChar: afii10047
Encoding: 452 1069 345
Width: 590
Flags: MW
HStem: -19 87<256.5 338.5 254.5 370> 325 87<192 469 192 471 192 469> 650 87<256.5 331.5>
VStem: 471 83<325 325>
LayerCount: 2
Fore
SplineSet
469 412 m 1
 456 562 386 650 277 650 c 0
 236 650 198 636 170 612 c 0
 141 586 128 559 115 502 c 1
 38 502 l 1
 45 558 54 586 76 623 c 0
 118 696 191 737 279 737 c 0
 447 737 554 590 554 358 c 0
 554 127 451 -19 289 -19 c 0
 224 -19 163 6 119 53 c 1
 74 99 52 151 32 264 c 1
 109 264 l 1
 121 202 131 173 152 141 c 0
 185 92 227 68 282 68 c 0
 395 68 464 162 471 325 c 1
 192 325 l 1
 192 412 l 1
 469 412 l 1
EndSplineSet
EndChar

StartChar: afii10048
Encoding: 453 1070 346
Width: 913
Flags: MW
HStem: -19 87<553.5 634.5> 334 87<141 308 141 310> 650 87<555.5 650 555.5 657>
VStem: 61 80<0 334 421 718> 308 81<334 334> 799 82<302 397.5 302 445.5>
LayerCount: 2
Fore
SplineSet
308 334 m 1
 141 334 l 1
 141 0 l 1
 61 0 l 1
 61 718 l 1
 141 718 l 1
 141 421 l 1
 310 421 l 1
 320 511 350 589 396 646 c 0
 445 706 513 737 598 737 c 0
 702 737 783 682 834 580 c 0
 864 518 881 437 881 358 c 0
 881 246 849 144 792 72 c 0
 745 13 675 -19 594 -19 c 0
 513 -19 443 13 396 72 c 0
 343 139 312 231 308 334 c 1
597 650 m 0
 470 650 389 536 389 358 c 0
 389 184 471 68 594 68 c 0
 717 68 799 184 799 359 c 0
 799 532 717 650 597 650 c 0
EndSplineSet
EndChar

StartChar: afii10049
Encoding: 454 1071 347
Width: 554
Flags: MW
HStem: 0 21G<42 145 42 42 407 407 407 487> 303 83<379 407 379 379> 635 83<223 247 247 407>
VStem: 48 82<470 553.5 470 576> 407 80<0 303 303 303 386 635 635 635>
LayerCount: 2
Fore
SplineSet
407 303 m 1
 379 303 l 1
 145 0 l 1
 42 0 l 1
 276 304 l 1
 223 304 l 1
 117 302 48 387 48 515 c 0
 48 637 118 718 223 718 c 2
 487 718 l 1
 487 0 l 1
 407 0 l 1
 407 303 l 1
407 635 m 1
 247 635 l 2
 168 635 130 595 130 512 c 0
 130 428 170 386 250 386 c 2
 407 386 l 1
 407 635 l 1
EndSplineSet
EndChar

StartChar: afii10065
Encoding: 455 1072 348
Width: 456
Flags: W
HStem: -15 73<157.5 197.5> 465 73<189.5 250.5>
VStem: 30 75<118 172 118 183.5> 51 66<364 364> 317 70<359 392>
LayerCount: 2
Fore
SplineSet
117 364 m 1xd8
 51 364 l 1xd8
 54 416 60 441 77 469 c 0
 105 514 156 538 223 538 c 0
 325 538 387 483 387 392 c 2
 387 91 l 2
 387 71 395 60 410 60 c 0
 416 60 420 61 435 64 c 1
 435 0 l 1
 432 -1 431 -1 426 -3 c 0
 412 -8 404 -10 393 -10 c 0
 344 -10 324 13 319 70 c 1
 272 10 228 -15 167 -15 c 0
 84 -15 30 46 30 138 c 0xe8
 30 229 77 287 160 300 c 2
 279 318 l 2
 306 322 317 340 317 378 c 0
 317 435 283 465 218 465 c 0
 155 465 127 437 117 364 c 1xd8
315 181 m 2
 315 267 l 1
 300 253 279 248 197 234 c 0
 131 223 105 198 105 146 c 0xe8
 105 90 133 58 182 58 c 0
 254 58 315 115 315 181 c 2
EndSplineSet
EndChar

StartChar: afii10066
Encoding: 456 1073 349
Width: 442
Flags: W
HStem: -14 77<187.5 262.5 187.5 284> 461 77<204 263.5>
VStem: 26 75<201.5 302> 349 75<201.5 322> 363 56<760 776>
LayerCount: 2
Fore
SplineSet
371 674 m 0xe8
 307 638 263 644 197 622 c 0
 136 602 96 481 107 491 c 0
 139 521 180 538 228 538 c 0
 343 538 424 423 424 262 c 0xf0
 424 99 343 -14 225 -14 c 0
 108 -14 26 99 26 262 c 0
 26 342 9 608 145 676 c 0
 200 704 263 690 327 720 c 0
 351 731 363 744 363 776 c 1
 419 776 l 1
 419 736 410 696 371 674 c 0xe8
227 461 m 0
 149 461 101 384 101 262 c 0
 101 141 150 63 225 63 c 0
 300 63 349 141 349 262 c 0
 349 382 300 461 227 461 c 0
EndSplineSet
EndChar

StartChar: afii10067
Encoding: 457 1074 350
Width: 444
Flags: W
HStem: 0 70<54 225 122 225 225 229> 240 66<122 198 122 198 198 211> 454 69<122 122 122 199>
VStem: 54 68<70 240 306 454> 320 74<362 407> 348 72<131 190.5>
LayerCount: 2
Fore
SplineSet
54 0 m 1xf4
 54 523 l 1
 234 523 l 2
 334 523 394 467 394 387 c 0xf8
 394 337 376 302 322 282 c 1
 399 255 420 234 420 161 c 0
 420 67 349 0 229 0 c 2
 54 0 l 1xf4
122 454 m 1
 122 306 l 1
 198 306 l 2
 281 306 320 323 320 380 c 0
 320 434 282 454 199 454 c 2
 122 454 l 1
122 240 m 1
 122 70 l 1
 225 70 l 2
 303 70 348 101 348 161 c 0xf4
 348 220 302 240 211 240 c 2
 122 240 l 1
EndSplineSet
EndChar

StartChar: afii10069
Encoding: 459 1076 352
Width: 536
Flags: W
HStem: -125 191<21 82 82 90 21 82 448 515> 0 66<90 101 21 446 90 90> 454 69<232 376 232 232>
VStem: 21 69<-125 0 -125 66 -125 66> 376 72<69 454 454 454> 446 69<-125 0 0 0>
LayerCount: 2
Fore
SplineSet
82 66 m 2xb4
 120 66 160 291 160 523 c 1
 448 523 l 1
 448 66 l 1xb8
 515 66 l 1
 515 -125 l 1
 446 -125 l 1xb4
 446 0 l 1
 90 0 l 1x74
 90 -125 l 1
 21 -125 l 1
 21 66 l 1
 82 66 l 2xb4
179 69 m 1
 376 69 l 1
 376 454 l 1
 232 454 l 1
 233 345 228 166 179 69 c 1
EndSplineSet
EndChar

StartChar: afii10072
Encoding: 462 1078 355
Width: 658
Flags: MW
HStem: 0 21G<8 101 8 8 294 364 294 294 557 557 557 650> 503 20G<18 109 109 109 294 364 364 364 549 640 640 640>
VStem: 294 70<0 209 0 209 302 523>
LayerCount: 2
Fore
SplineSet
294 0 m 1
 294 209 l 1
 101 0 l 1
 8 0 l 1
 243 262 l 1
 18 523 l 1
 109 523 l 1
 294 302 l 1
 294 523 l 1
 364 523 l 1
 364 302 l 1
 549 523 l 1
 640 523 l 1
 415 262 l 1
 650 0 l 1
 557 0 l 1
 364 209 l 1
 364 0 l 1
 294 0 l 1
EndSplineSet
EndChar

StartChar: afii10073
Encoding: 463 1079 356
Width: 410
Flags: W
HStem: -15 77<168.5 236.5 168.5 254.5> 240 69<152 210 210 221 152 210> 461 77<166.5 225.5>
VStem: 24 70<168 168> 31 70<374 374> 287 70<368.5 410> 306 72<118.5 163.5>
LayerCount: 2
Fore
SplineSet
210 309 m 2xf2
 276 309 287 350 287 387 c 0
 287 433 253 461 198 461 c 0
 135 461 104 433 101 374 c 1
 31 374 l 1
 37 479 95 538 193 538 c 0
 292 538 357 473 357 373 c 0xec
 357 330 343 297 315 274 c 1
 354 252 378 213 378 157 c 0
 378 52 309 -15 200 -15 c 0
 129 -15 74 13 47 64 c 0
 32 91 27 116 24 168 c 1
 94 168 l 1
 99 94 132 62 205 62 c 0
 268 62 306 93 306 144 c 0
 306 183 290 240 221 240 c 2
 152 240 l 1
 152 309 l 1
 210 309 l 2xf2
EndSplineSet
EndChar

StartChar: afii10074
Encoding: 464 1080 357
Width: 455
Flags: MW
HStem: 0 21G<53 145 53 53 331 403 331 331> 503 20G<53 125 125 125 311 403 403 403>
VStem: 53 72<91 523 91 523 91 523> 331 72<0 427 427 427>
LayerCount: 2
Fore
SplineSet
403 523 m 1
 403 0 l 1
 331 0 l 1
 331 427 l 1
 145 0 l 1
 53 0 l 1
 53 523 l 1
 125 523 l 1
 125 91 l 1
 311 523 l 1
 403 523 l 1
EndSplineSet
EndChar

StartChar: afii10075
Encoding: 465 1081 358
Width: 455
Flags: MW
HStem: 0 21G<53 145 53 53 331 403 331 331> 503 20G<53 125 125 125 311 403 403 403> 605 57<223.5 271.5 223.5 281>
VStem: 53 72<91 523 91 523 91 523> 331 72<0 427 427 427>
LayerCount: 2
Fore
SplineSet
332 741 m 1
 371 741 l 1
 359 647 320 605 242 605 c 0
 167 605 129 647 119 741 c 1
 159 741 l 1
 161 734 l 1
 174 684 200 662 247 662 c 0
 296 662 317 682 332 741 c 1
403 523 m 1
 403 0 l 1
 331 0 l 1
 331 427 l 1
 145 0 l 1
 53 0 l 1
 53 523 l 1
 125 523 l 1
 125 91 l 1
 311 523 l 1
 403 523 l 1
EndSplineSet
EndChar

StartChar: afii10076
Encoding: 466 1082 359
Width: 417
Flags: MW
HStem: 0 21G<53 122 53 53 316 409 316 316> 503 20G<53 123 123 123 308 399 399 399>
VStem: 53 69<0 209 0 523>
LayerCount: 2
Fore
SplineSet
174 262 m 1
 409 0 l 1
 316 0 l 1
 122 209 l 1
 122 0 l 1
 53 0 l 1
 53 523 l 1
 123 523 l 1
 123 302 l 1
 308 523 l 1
 399 523 l 1
 174 262 l 1
EndSplineSet
EndChar

StartChar: afii10077
Encoding: 467 1083 360
Width: 439
Flags: MW
HStem: 0 70<21 52 21 96> 454 69<171 315 171 171>
VStem: 99 72<454 454 454 523> 315 72<0 454 454 454>
LayerCount: 2
Fore
SplineSet
99 523 m 1
 387 523 l 1
 387 0 l 1
 315 0 l 1
 315 454 l 1
 171 454 l 1
 172 298 171 0 21 0 c 1
 21 70 l 1
 83 70 99 291 99 523 c 1
EndSplineSet
EndChar

StartChar: afii10078
Encoding: 468 1084 361
Width: 539
Flags: MW
HStem: 0 21G<53 125 53 53 231 309 231 231 415 415 415 487> 503 20G<53 158 158 158 382 487 487 487>
VStem: 53 72<0 354 0 523> 415 72<0 354 354 354>
LayerCount: 2
Fore
SplineSet
231 0 m 1
 125 354 l 1
 125 0 l 1
 53 0 l 1
 53 523 l 1
 158 523 l 1
 270 94 l 1
 382 523 l 1
 487 523 l 1
 487 0 l 1
 415 0 l 1
 415 354 l 1
 309 0 l 1
 231 0 l 1
EndSplineSet
EndChar

StartChar: afii10079
Encoding: 469 1085 362
Width: 455
Flags: MW
HStem: 0 21G<53 125 53 53 331 403 331 331> 247 70<125 331 125 331> 503 20G<53 125 125 125 331 403 403 403>
VStem: 53 72<0 247 0 317 317 523> 331 72<0 247 247 247 317 523 0 523>
LayerCount: 2
Fore
SplineSet
403 523 m 1
 403 0 l 1
 331 0 l 1
 331 247 l 1
 125 247 l 1
 125 0 l 1
 53 0 l 1
 53 523 l 1
 125 523 l 1
 125 317 l 1
 331 317 l 1
 331 523 l 1
 403 523 l 1
EndSplineSet
EndChar

StartChar: afii10080
Encoding: 470 1086 363
Width: 456
Flags: MW
HStem: -14 77<190.5 265.5 190.5 287> 461 77<191 266.5>
VStem: 29 75<201.5 323 201.5 344.5> 352 75<201.5 322>
LayerCount: 2
Fore
SplineSet
231 538 m 0
 346 538 427 423 427 262 c 0
 427 99 346 -14 228 -14 c 0
 111 -14 29 99 29 262 c 0
 29 427 110 538 231 538 c 0
230 461 m 0
 152 461 104 384 104 262 c 0
 104 141 153 63 228 63 c 0
 303 63 352 141 352 262 c 0
 352 382 303 461 230 461 c 0
EndSplineSet
EndChar

StartChar: afii10081
Encoding: 471 1087 364
Width: 455
Flags: MW
HStem: 0 21G<53 125 53 53 331 403 331 331> 454 69<125 331 125 125>
VStem: 53 72<0 454 0 523 0 523> 331 72<0 454 454 454>
LayerCount: 2
Fore
SplineSet
403 523 m 1
 403 0 l 1
 331 0 l 1
 331 454 l 1
 125 454 l 1
 125 0 l 1
 53 0 l 1
 53 523 l 1
 403 523 l 1
EndSplineSet
EndChar

StartChar: afii10082
Encoding: 472 1088 365
Width: 456
Flags: MW
HStem: -15 77<210.5 270.5 198 293.5> 460 78<218 272>
VStem: 48 68<446 523 446 523 446 523> 349 75<205 332.5>
LayerCount: 2
Fore
SplineSet
48 -207 m 1
 48 523 l 1
 116 523 l 1
 116 446 l 1
 154 514 189 538 247 538 c 0
 353 538 424 432 424 274 c 0
 424 100 350 -15 237 -15 c 0
 184 -15 149 7 120 58 c 1
 120 -207 l 1
 48 -207 l 1
235 460 m 0
 157 460 117 387 117 245 c 0
 117 131 162 62 234 62 c 0
 307 62 349 139 349 271 c 0
 349 394 309 460 235 460 c 0
EndSplineSet
EndChar

StartChar: afii10086
Encoding: 476 1092 369
Width: 748
Flags: W
HStem: -15 77<185.5 245.5 502.5 562.5> 460 78<184 238 156 260 510 564>
VStem: 32 75<205 332.5 205 353> 336 76<-207 58 -207 58> 340 68<446 628 446 628> 641 75<205 332.5>
LayerCount: 2
Fore
SplineSet
340 628 m 1xec
 408 628 l 1
 408 446 l 1xec
 446 514 481 538 539 538 c 0
 645 538 716 432 716 274 c 0
 716 100 642 -15 529 -15 c 0
 476 -15 441 7 412 58 c 1
 412 -207 l 1
 336 -207 l 1
 336 58 l 1xf4
 307 7 272 -15 219 -15 c 0
 106 -15 32 100 32 274 c 0
 32 432 103 538 209 538 c 0
 267 538 302 514 340 446 c 1
 340 628 l 1xec
221 460 m 0
 147 460 107 394 107 271 c 0
 107 139 149 62 222 62 c 0
 294 62 339 131 339 245 c 0
 339 387 299 460 221 460 c 0
527 460 m 0
 449 460 409 387 409 245 c 0
 409 131 454 62 526 62 c 0
 599 62 641 139 641 271 c 0
 641 394 601 460 527 460 c 0
EndSplineSet
EndChar

StartChar: afii10087
Encoding: 477 1093 370
Width: 410
Flags: MW
HStem: 0 21G<8 99 8 8 309 401 309 309> 503 20G<15 108 108 108 307 395 395 395>
VStem: 8 393<0 0>
LayerCount: 2
Fore
SplineSet
250 269 m 1
 401 0 l 1
 309 0 l 1
 202 197 l 1
 99 0 l 1
 8 0 l 1
 159 269 l 1
 15 523 l 1
 108 523 l 1
 207 339 l 1
 307 523 l 1
 395 523 l 1
 250 269 l 1
EndSplineSet
EndChar

StartChar: afii10088
Encoding: 478 1094 371
Width: 501
Flags: MW
HStem: 0 66<403 411> 503 20G<53 125 125 125 331 403 403 403>
VStem: 53 72<69 523 69 523 69 523> 331 72<69 523 66 523> 411 69<-125 0 0 0>
LayerCount: 2
Fore
SplineSet
411 0 m 1
 53 0 l 1
 53 523 l 1
 125 523 l 1
 125 69 l 1
 331 69 l 1
 331 523 l 1
 403 523 l 1
 403 66 l 1
 480 66 l 1
 480 -125 l 1
 411 -125 l 1
 411 0 l 1
EndSplineSet
EndChar

StartChar: afii10089
Encoding: 479 1095 372
Width: 406
Flags: MW
HStem: 0 21G<299 371 299 299> 174 70<195 222> 503 20G<53 125 125 125 299 371 371 371>
VStem: 53 72<273 281 281 523> 299 72<0 198 198 198 284 523 0 523>
LayerCount: 2
Fore
SplineSet
208 174 m 0
 145 174 53 194 53 273 c 2
 53 523 l 1
 125 523 l 1
 125 281 l 2
 125 248 178 244 212 244 c 0
 241 244 299 256 299 284 c 2
 299 523 l 1
 371 523 l 1
 371 0 l 1
 299 0 l 1
 299 198 l 1
 288 185 236 174 208 174 c 0
EndSplineSet
EndChar

StartChar: afii10090
Encoding: 480 1096 373
Width: 589
Flags: MW
HStem: 0 69<125 259 331 465> 503 20G<53 125 125 125 259 331 331 331 465 537 537 537>
VStem: 53 72<69 523 69 523 69 523> 259 72<69 523> 465 72<69 523 0 523>
LayerCount: 2
Fore
SplineSet
331 69 m 1
 465 69 l 1
 465 523 l 1
 537 523 l 1
 537 0 l 1
 53 0 l 1
 53 523 l 1
 125 523 l 1
 125 69 l 1
 259 69 l 1
 259 523 l 1
 331 523 l 1
 331 69 l 1
EndSplineSet
EndChar

StartChar: afii10091
Encoding: 481 1097 374
Width: 635
Flags: MW
HStem: 0 69<125 259 331 465> 503 20G<53 125 125 125 259 331 331 331 465 537 537 537>
VStem: 53 72<69 523 69 523 69 523> 259 72<69 523> 465 72<69 523 66 523> 545 69<-125 0 0 0>
LayerCount: 2
Fore
SplineSet
331 69 m 1
 465 69 l 1
 465 523 l 1
 537 523 l 1
 537 66 l 1
 614 66 l 1
 614 -125 l 1
 545 -125 l 1
 545 0 l 1
 53 0 l 1
 53 523 l 1
 125 523 l 1
 125 69 l 1
 259 69 l 1
 259 523 l 1
 331 523 l 1
 331 69 l 1
EndSplineSet
EndChar

StartChar: afii10092
Encoding: 482 1098 375
Width: 512
Flags: MW
HStem: 0 70<199 302 302 306 131 302> 240 66<199 325 199 288> 454 69<17 131 17 199>
VStem: 131 68<70 240 306 454 454 454> 425 72<131 190.5>
LayerCount: 2
Fore
SplineSet
199 523 m 1
 199 306 l 1
 325 306 l 2
 439 306 497 234 497 161 c 0
 497 67 426 0 306 0 c 2
 131 0 l 1
 131 454 l 1
 17 454 l 1
 17 523 l 1
 199 523 l 1
199 240 m 1
 199 70 l 1
 302 70 l 2
 380 70 425 101 425 161 c 0
 425 220 379 240 288 240 c 2
 199 240 l 1
EndSplineSet
EndChar

StartChar: afii10093
Encoding: 483 1099 376
Width: 585
Flags: MW
HStem: 0 70<121 224 224 228 53 224> 240 66<121 247 121 210> 503 20G<53 121 121 121 461 533 533 533>
VStem: 53 68<70 240 306 523> 347 72<131 190.5> 461 72<0 523 0 523>
LayerCount: 2
Fore
SplineSet
533 523 m 1
 533 0 l 1
 461 0 l 1
 461 523 l 1
 533 523 l 1
121 523 m 1
 121 306 l 1
 247 306 l 2
 361 306 419 234 419 161 c 0
 419 67 348 0 228 0 c 2
 53 0 l 1
 53 523 l 1
 121 523 l 1
121 240 m 1
 121 70 l 1
 224 70 l 2
 302 70 347 101 347 161 c 0
 347 220 301 240 210 240 c 2
 121 240 l 1
EndSplineSet
EndChar

StartChar: afii10094
Encoding: 484 1100 377
Width: 444
Flags: MW
HStem: 0 70<121 224 224 228 53 224> 240 66<121 247 121 210> 503 20G<53 121 121 121>
VStem: 53 68<70 240 306 523> 347 72<131 190.5>
LayerCount: 2
Fore
SplineSet
121 523 m 1
 121 306 l 1
 247 306 l 2
 361 306 419 234 419 161 c 0
 419 67 348 0 228 0 c 2
 53 0 l 1
 53 523 l 1
 121 523 l 1
121 240 m 1
 121 70 l 1
 224 70 l 2
 302 70 347 101 347 161 c 0
 347 220 301 240 210 240 c 2
 121 240 l 1
EndSplineSet
EndChar

StartChar: afii10096
Encoding: 486 1102 379
Width: 667
Flags: MW
HStem: -14 77<401.5 476.5 401.5 498> 247 70<125 241 125 243> 461 77<402 477.5>
VStem: 53 72<0 247 0 317 317 523> 241 74<247 247> 563 75<201.5 322>
LayerCount: 2
Fore
SplineSet
241 247 m 1
 125 247 l 1
 125 0 l 1
 53 0 l 1
 53 523 l 1
 125 523 l 1
 125 317 l 1
 243 317 l 1
 259 452 335 538 442 538 c 0
 557 538 638 423 638 262 c 0
 638 99 557 -14 439 -14 c 0
 326 -14 246 92 241 247 c 1
441 461 m 0
 363 461 315 384 315 262 c 0
 315 141 364 63 439 63 c 0
 514 63 563 141 563 262 c 0
 563 382 514 461 441 461 c 0
EndSplineSet
EndChar

StartChar: afii10097
Encoding: 487 1103 380
Width: 447
Flags: MW
HStem: 0 21G<24 117 24 24 342 342 342 410> 218 66<166 342 321 342 321 321> 454 69<235 239 239 342>
VStem: 44 72<333.5 393 333.5 410> 342 68<0 218 218 218 284 454 454 454>
LayerCount: 2
Fore
SplineSet
321 218 m 1
 117 0 l 1
 24 0 l 1
 223 218 l 1
 109 218 44 288 44 363 c 0
 44 457 115 523 235 523 c 2
 410 523 l 1
 410 0 l 1
 342 0 l 1
 342 218 l 1
 321 218 l 1
342 284 m 1
 342 454 l 1
 239 454 l 2
 161 454 116 423 116 363 c 0
 116 304 162 284 253 284 c 2
 342 284 l 1
EndSplineSet
EndChar

StartChar: afii10099
Encoding: 504 1106 397
Width: 495
Flags: MW
HStem: -150 78<286 315.5 286 338> 0 21G<92 164 92 92> 395 78<268.5 315.5> 550 73<12 91 12 92 12 91 164 324> 698 20G<91 164 164 164>
VStem: 92 72<0 220 386 550> 370 72<46 277 277 291>
LayerCount: 2
Fore
SplineSet
286 -150 m 1
 286 -72 l 1
 345 -72 370 -37 370 46 c 2
 370 277 l 2
 370 360 345 395 286 395 c 0
 208 395 164 331 164 220 c 2
 164 0 l 1
 92 0 l 1
 92 550 l 1
 12 550 l 1
 12 623 l 1
 91 623 l 1
 91 718 l 1
 164 718 l 1
 164 623 l 1
 324 623 l 1
 324 550 l 1
 164 550 l 1
 164 386 l 1
 206 451 240 473 297 473 c 0
 388 473 442 406 442 291 c 2
 442 32 l 2
 442 -88 390 -150 286 -150 c 1
EndSplineSet
EndChar

StartChar: afii10100
Encoding: 505 1107 398
Width: 337
Flags: MW
HStem: 0 21G<51 123 51 51> 450 73<123 325 123 123> 719 20G<234 322 322 322>
VStem: 51 72<0 450 0 523>
LayerCount: 2
Fore
SplineSet
322 739 m 1
 216 598 l 1
 160 598 l 1
 234 739 l 1
 322 739 l 1
325 450 m 1
 123 450 l 1
 123 0 l 1
 51 0 l 1
 51 523 l 1
 325 523 l 1
 325 450 l 1
EndSplineSet
EndChar

StartChar: afii10101
Encoding: 506 1108 399
Width: 426
Flags: MW
HStem: -15 77<185 247.5 185 270> 247 70<106 272 110 272 110 272> 460 78<193.5 253.5>
VStem: 29 77<247 247 247 339.5>
LayerCount: 2
Fore
SplineSet
106 247 m 1
 109 129 150 62 220 62 c 0
 275 62 310 103 325 185 c 1
 395 185 l 1
 378 52 319 -15 221 -15 c 0
 104 -15 29 89 29 252 c 0
 29 427 108 538 232 538 c 0
 328 538 382 475 395 347 c 1
 325 347 l 1
 313 426 282 460 225 460 c 0
 162 460 122 409 110 317 c 1
 272 317 l 1
 272 247 l 1
 106 247 l 1
EndSplineSet
EndChar

StartChar: afii10102
Encoding: 507 1109 400
Width: 410
Flags: W
HStem: -15 77<170.5 238.5 170.5 256.5> 461 77<171.5 230.5>
VStem: 26 70<168 168> 40 70<368.5 410 368.5 423> 296 70<374 374> 308 72<118.5 163.5>
LayerCount: 2
Fore
SplineSet
366 374 m 1xd8
 296 374 l 1
 293 433 262 461 199 461 c 0
 144 461 110 433 110 387 c 0xd8
 110 350 124 337 187 318 c 2
 260 296 l 2
 347 269 380 231 380 157 c 0
 380 52 311 -15 202 -15 c 0
 131 -15 76 13 49 64 c 0
 34 91 29 116 26 168 c 1
 96 168 l 1
 101 94 134 62 207 62 c 0
 270 62 308 93 308 144 c 0xe4
 308 183 289 199 223 219 c 2
 139 244 l 2
 72 264 40 306 40 373 c 0
 40 473 105 538 204 538 c 0
 302 538 360 479 366 374 c 1xd8
EndSplineSet
EndChar

StartChar: afii10103
Encoding: 508 1110 401
Width: 182
Flags: MW
HStem: 0 21G<55 127 55 55> 503 20G<55 127 127 127> 618 100<55 127 55 127>
VStem: 55 72<0 523 0 523 618 718>
LayerCount: 2
Fore
SplineSet
127 523 m 1
 127 0 l 1
 55 0 l 1
 55 523 l 1
 127 523 l 1
127 618 m 1
 55 618 l 1
 55 718 l 1
 127 718 l 1
 127 618 l 1
EndSplineSet
EndChar

StartChar: afii10104
Encoding: 509 1111 402
Width: 317
Flags: W
HStem: 0 21G<122 194 122 122> 503 20G<122 194 194 194> 604 102<55 130 55 130 55 187 187 262>
VStem: 55 75<604 706 604 706> 122 72<0 523 0 523> 187 75<604 706 604 706>
LayerCount: 2
Fore
SplineSet
194 523 m 1xe8
 194 0 l 1
 122 0 l 1
 122 523 l 1
 194 523 l 1xe8
130 706 m 1xf0
 130 604 l 1
 55 604 l 1
 55 706 l 1
 130 706 l 1xf0
262 706 m 1xe4
 262 604 l 1
 187 604 l 1
 187 706 l 1
 262 706 l 1xe4
EndSplineSet
EndChar

StartChar: afii10105
Encoding: 510 1112 403
Width: 182
Flags: MW
HStem: -210 79<14.5 24.5 -13 56.5> 503 20G<55 127 127 127> 618 100<55 127 55 127>
VStem: 55 72<-67 523 618 718>
LayerCount: 2
Fore
SplineSet
127 523 m 1
 127 -77 l 2
 127 -168 93 -210 20 -210 c 0
 9 -210 -1 -209 -13 -207 c 1
 -13 -131 l 1
 2 -131 l 2
 47 -131 55 -122 55 -67 c 2
 55 523 l 1
 127 523 l 1
127 718 m 1
 127 618 l 1
 55 618 l 1
 55 718 l 1
 127 718 l 1
EndSplineSet
EndChar

StartChar: afii10106
Encoding: 511 1113 404
Width: 709
Flags: MW
HStem: 0 70<21 52 21 96 386 489 489 493> 240 66<386 512 386 475> 454 69<171 315 171 171>
VStem: 99 72<454 454 454 523> 315 71<70 240 306 454 454 454> 612 72<131 190.5>
LayerCount: 2
Fore
SplineSet
386 523 m 1
 386 306 l 1
 512 306 l 2
 626 306 684 234 684 161 c 0
 684 67 613 0 493 0 c 2
 315 0 l 1
 315 454 l 1
 171 454 l 1
 172 298 171 0 21 0 c 1
 21 70 l 1
 83 70 99 291 99 523 c 1
 386 523 l 1
386 240 m 1
 386 70 l 1
 489 70 l 2
 567 70 612 101 612 161 c 0
 612 220 566 240 475 240 c 2
 386 240 l 1
EndSplineSet
EndChar

StartChar: afii10107
Encoding: 512 1114 405
Width: 722
Flags: W
HStem: 0 70<399 502 502 506 331 502> 240 66<399 525 399 488> 247 70<125 331 125 331> 503 20G<53 125 125 125 331 399 399 399>
VStem: 53 72<0 247 0 317 317 523> 331 68<70 240 70 247 70 247 317 523> 625 72<131 190.5>
LayerCount: 2
Fore
SplineSet
399 523 m 1xbe
 399 306 l 1
 525 306 l 2xde
 639 306 697 234 697 161 c 0
 697 67 626 0 506 0 c 2
 331 0 l 1
 331 247 l 1
 125 247 l 1
 125 0 l 1
 53 0 l 1
 53 523 l 1
 125 523 l 1
 125 317 l 1
 331 317 l 1
 331 523 l 1
 399 523 l 1xbe
399 240 m 1
 399 70 l 1
 502 70 l 2
 580 70 625 101 625 161 c 0
 625 220 579 240 488 240 c 2
 399 240 l 1
EndSplineSet
EndChar

StartChar: afii10108
Encoding: 513 1115 406
Width: 495
Flags: MW
HStem: 0 21G<92 164 92 92 370 442 370 370> 395 78<268.5 315.5> 550 73<12 92 12 92 164 324 12 164> 698 20G<92 164 164 164>
VStem: 92 72<0 220 386 550 623 718> 370 72<0 277 277 291 0 318.5>
LayerCount: 2
Fore
SplineSet
164 550 m 1
 164 386 l 1
 206 451 240 473 297 473 c 0
 388 473 442 406 442 291 c 2
 442 0 l 1
 370 0 l 1
 370 277 l 2
 370 360 345 395 286 395 c 0
 208 395 164 331 164 220 c 2
 164 0 l 1
 92 0 l 1
 92 550 l 1
 12 550 l 1
 12 623 l 1
 92 623 l 1
 92 718 l 1
 164 718 l 1
 164 623 l 1
 324 623 l 1
 324 550 l 1
 164 550 l 1
EndSplineSet
EndChar

StartChar: afii10109
Encoding: 514 1116 407
Width: 417
Flags: MW
HStem: 0 21G<53 122 53 53 316 409 316 316> 503 20G<53 123 123 123 308 399 399 399> 719 20G<272 360 360 360>
VStem: 53 69<0 209 0 523>
LayerCount: 2
Fore
SplineSet
360 739 m 1
 254 598 l 1
 198 598 l 1
 272 739 l 1
 360 739 l 1
174 262 m 1
 409 0 l 1
 316 0 l 1
 122 209 l 1
 122 0 l 1
 53 0 l 1
 53 523 l 1
 123 523 l 1
 123 302 l 1
 308 523 l 1
 399 523 l 1
 174 262 l 1
EndSplineSet
EndChar

StartChar: uni045D
Encoding: 515 1117 408
Width: 455
Flags: MW
HStem: 0 21G<53 145 53 53 331 403 331 331> 503 20G<53 125 125 125 311 403 403 403> 719 20G<94 182 182 182>
VStem: 53 72<91 523 91 523 91 523> 331 72<0 427 427 427>
LayerCount: 2
Fore
SplineSet
200 598 m 1
 94 739 l 1
 182 739 l 1
 256 598 l 1
 200 598 l 1
403 523 m 1
 403 0 l 1
 331 0 l 1
 331 427 l 1
 145 0 l 1
 53 0 l 1
 53 523 l 1
 125 523 l 1
 125 91 l 1
 311 523 l 1
 403 523 l 1
EndSplineSet
EndChar

StartChar: afii10110
Encoding: 516 1118 409
Width: 416
Flags: MW
HStem: -214 79<87.5 110 87.5 129> 503 20G<12 93 93 93 324 404 404 404> 605 57<192.5 240.5 192.5 250>
VStem: 12 392<523 523>
LayerCount: 2
Fore
SplineSet
301 741 m 1
 340 741 l 1
 328 647 289 605 211 605 c 0
 136 605 98 647 88 741 c 1
 128 741 l 1
 130 734 l 1
 143 684 169 662 216 662 c 0
 265 662 286 682 301 741 c 1
208 94 m 1
 324 523 l 1
 404 523 l 1
 249 10 l 1
 185 -197 172 -214 86 -214 c 0
 76 -214 70 -213 57 -208 c 2
 51 -206 l 1
 51 -126 l 1
 65 -132 80 -135 95 -135 c 0
 125 -135 137 -121 153 -68 c 0
 156 -60 163 -38 171 -14 c 1
 12 523 l 1
 93 523 l 1
 208 94 l 1
EndSplineSet
EndChar

StartChar: afii10193
Encoding: 517 1119 410
Width: 455
Flags: MW
HStem: 0 69<125 193 262 262 262 331 125 403> 503 20G<53 125 125 125 331 403 403 403>
VStem: 53 72<69 523 69 523 69 523> 193 69<-125 0 -125 0> 331 72<69 523 0 523>
LayerCount: 2
Fore
SplineSet
193 0 m 1
 53 0 l 1
 53 523 l 1
 125 523 l 1
 125 69 l 1
 331 69 l 1
 331 523 l 1
 403 523 l 1
 403 0 l 1
 262 0 l 1
 262 -125 l 1
 193 -125 l 1
 193 0 l 1
EndSplineSet
EndChar

StartChar: uni048D
Encoding: 519 1165 412
Width: 444
Flags: MW
HStem: 0 70<121 224 224 228 53 224> 240 66<121 247 121 210> 400 57<7 53 7 53 121 164> 503 20G<53 121 121 121>
VStem: 53 68<70 240 70 306 306 400 457 523> 347 72<131 190.5>
LayerCount: 2
Fore
SplineSet
121 240 m 1
 121 70 l 1
 224 70 l 2
 302 70 347 101 347 161 c 0
 347 220 301 240 210 240 c 2
 121 240 l 1
53 457 m 1
 53 523 l 1
 121 523 l 1
 121 457 l 1
 164 457 l 1
 164 400 l 1
 121 400 l 1
 121 306 l 1
 247 306 l 2
 361 306 419 234 419 161 c 0
 419 67 348 0 228 0 c 2
 53 0 l 1
 53 400 l 1
 7 400 l 1
 7 457 l 1
 53 457 l 1
EndSplineSet
EndChar

StartChar: uni048E
Encoding: 520 1166 413
Width: 547
Flags: MW
HStem: 0 21G<61 141 61 61> 303 83<141 298 141 298 298 305.5 141 325> 635 83<141 141 141 301>
VStem: 61 80<0 303 386 635> 418 82<496 553.5>
LayerCount: 2
Fore
SplineSet
141 635 m 1
 141 386 l 1
 298 386 l 2
 313 386 327 388 340 391 c 1
 267 463 l 1
 319 515 l 1
 400 433 l 1
 412 453 418 480 418 512 c 0
 418 595 380 635 301 635 c 2
 141 635 l 1
141 303 m 1
 141 0 l 1
 61 0 l 1
 61 718 l 1
 325 718 l 2
 430 718 500 637 500 515 c 0
 500 457 486 409 461 373 c 1
 532 302 l 1
 480 250 l 1
 407 323 l 1
 383 310 356 303 325 303 c 2
 141 303 l 1
EndSplineSet
EndChar

StartChar: uni048F
Encoding: 521 1167 414
Width: 456
Flags: MW
HStem: -15 77<210.5 244.5 198 257.5> 460 78<218 272>
VStem: 48 69<188 316 188 523> 349 75<245.5 332.5>
LayerCount: 2
Fore
SplineSet
235 460 m 0
 157 460 117 387 117 245 c 0
 117 131 162 62 234 62 c 0
 255 62 274 68 289 81 c 1
 227 143 l 1
 279 195 l 1
 331 143 l 1
 343 177 349 220 349 271 c 0
 349 394 309 460 235 460 c 0
48 -207 m 1
 48 523 l 1
 116 523 l 1
 116 446 l 1
 154 514 189 538 247 538 c 0
 353 538 424 432 424 274 c 0
 424 200 410 136 386 87 c 1
 442 32 l 1
 390 -20 l 1
 343 28 l 1
 314 0 278 -15 237 -15 c 0
 184 -15 149 7 120 58 c 1
 120 -207 l 1
 48 -207 l 1
EndSplineSet
EndChar

StartChar: afii10050
Encoding: 522 1168 415
Width: 499
Flags: MW
HStem: 0 21G<67 147 67 67> 631 87<147 396 67 474 147 147>
VStem: 67 80<0 631> 396 78<718 799 631 799>
LayerCount: 2
Fore
SplineSet
147 0 m 1
 67 0 l 1
 67 718 l 1
 396 718 l 1
 396 799 l 1
 474 799 l 1
 474 631 l 1
 147 631 l 1
 147 0 l 1
EndSplineSet
EndChar

StartChar: afii10098
Encoding: 523 1169 416
Width: 344
Flags: MW
HStem: 0 21G<55 127 55 55> 450 73<127 264 55 329 127 127>
VStem: 55 72<0 450 0 523> 264 65<523 591>
LayerCount: 2
Fore
SplineSet
329 450 m 1
 127 450 l 1
 127 0 l 1
 55 0 l 1
 55 523 l 1
 264 523 l 1
 264 591 l 1
 329 591 l 1
 329 450 l 1
EndSplineSet
EndChar

StartChar: uni0492
Encoding: 524 1170 417
Width: 489
Flags: MW
HStem: 0 21G<61 141 61 61> 463 60<0 61 0 61 141 315> 631 87<141 468 141 141>
VStem: 61 80<0 463 0 463 523 631>
LayerCount: 2
Fore
SplineSet
141 463 m 1
 141 0 l 1
 61 0 l 1
 61 463 l 1
 0 463 l 1
 0 523 l 1
 61 523 l 1
 61 718 l 1
 468 718 l 1
 468 631 l 1
 141 631 l 1
 141 523 l 1
 315 523 l 1
 315 463 l 1
 141 463 l 1
EndSplineSet
EndChar

StartChar: uni0493
Encoding: 525 1171 418
Width: 337
Flags: MW
HStem: 0 21G<51 123 51 51> 310 67<0 51 0 51 123 230> 450 73<123 325 123 123>
VStem: 51 72<0 310 0 310 377 450>
LayerCount: 2
Fore
SplineSet
51 310 m 1
 0 310 l 1
 0 377 l 1
 51 377 l 1
 51 523 l 1
 325 523 l 1
 325 450 l 1
 123 450 l 1
 123 377 l 1
 230 377 l 1
 230 310 l 1
 123 310 l 1
 123 0 l 1
 51 0 l 1
 51 310 l 1
EndSplineSet
EndChar

StartChar: uni0494
Encoding: 526 1172 419
Width: 543
Flags: MW
HStem: -131 82<270 295.5 270 310.5> 0 21G<61 143 61 61 481 481> 381 82<244.5 295.5> 631 87<141 468 141 141>
VStem: 61 80<427 427 427 631> 401 80<8 324 324 332>
LayerCount: 2
Fore
SplineSet
141 427 m 1
 155 444 219 463 270 463 c 0
 351 463 481 431 481 332 c 2
 481 0 l 2
 481 -99 351 -131 270 -131 c 1
 270 -49 l 1
 321 -49 401 -35 401 8 c 2
 401 324 l 2
 401 367 321 381 270 381 c 0
 212 381 143 361 143 331 c 2
 143 0 l 1
 61 0 l 1
 61 718 l 1
 468 718 l 1
 468 631 l 1
 141 631 l 1
 141 427 l 1
EndSplineSet
EndChar

StartChar: uni0495
Encoding: 527 1173 420
Width: 407
Flags: MW
HStem: -184 82<190 215.5 190 230.5> 0 21G<51 123 51 51> 258 82<178.5 225.5> 450 73<123 325 123 123>
VStem: 51 72<0 208 317 450> 281 80<-45 201 201 209>
LayerCount: 2
Fore
SplineSet
123 317 m 1
 144 330 157 340 200 340 c 0
 281 340 361 308 361 209 c 2
 361 -53 l 2
 361 -152 271 -184 190 -184 c 1
 190 -102 l 1
 241 -102 281 -88 281 -45 c 2
 281 201 l 2
 281 244 251 258 200 258 c 0
 142 258 123 238 123 208 c 2
 123 0 l 1
 51 0 l 1
 51 523 l 1
 325 523 l 1
 325 450 l 1
 123 450 l 1
 123 317 l 1
EndSplineSet
EndChar

StartChar: uni0496
Encoding: 528 1174 421
Width: 902
Flags: MW
HStem: -20 20G<9 112 9 9 411 491 411 411 790 813 790 790> 350 78<384 411 384 384 491 518> 698 20G<15 125 125 125 411 491 491 491 777 887 887 887>
VStem: 411 80<0 350 0 350 428 718> 813 80<-120 0 0 0>
LayerCount: 2
Fore
SplineSet
826 86 m 1
 893 86 l 1
 893 -120 l 1
 813 -120 l 1
 813 0 l 1
 790 0 l 1
 518 350 l 1
 491 350 l 1
 491 0 l 1
 411 0 l 1
 411 350 l 1
 384 350 l 1
 112 0 l 1
 9 0 l 1
 304 382 l 1
 15 718 l 1
 125 718 l 1
 375 428 l 1
 411 428 l 1
 411 718 l 1
 491 718 l 1
 491 428 l 1
 527 428 l 1
 777 718 l 1
 887 718 l 1
 598 382 l 1
 826 86 l 1
EndSplineSet
EndChar

StartChar: uni0497
Encoding: 529 1175 422
Width: 658
Flags: MW
HStem: -20 20G<8 101 8 8 294 364 294 294 557 581 557 557> 503 20G<18 109 109 109 294 364 364 364 549 640 640 640>
VStem: 294 70<0 209 0 209 302 523> 581 69<-125 0 0 0>
LayerCount: 2
Fore
SplineSet
591 66 m 1
 650 66 l 1
 650 -125 l 1
 581 -125 l 1
 581 0 l 1
 557 0 l 1
 364 209 l 1
 364 0 l 1
 294 0 l 1
 294 209 l 1
 101 0 l 1
 8 0 l 1
 243 262 l 1
 18 523 l 1
 109 523 l 1
 294 302 l 1
 294 523 l 1
 364 523 l 1
 364 302 l 1
 549 523 l 1
 640 523 l 1
 415 262 l 1
 591 66 l 1
EndSplineSet
EndChar

StartChar: uni0498
Encoding: 530 1176 423
Width: 541
Flags: W
HStem: -225 47<257.5 272 248 298> 331 71<185 303 185 307> 654 83<243.5 306.5 226.5 313>
VStem: 42 75<232 232> 49 75<508 508> 303 62<-142.5 -118 -160 -101.5> 404 77<504.5 547 486 569> 433 77<148.5 222.5>
LayerCount: 2
Fore
SplineSet
185 402 m 1xf5
 307 402 l 2
 376 402 404 479 404 530 c 0
 404 608 355 654 271 654 c 0
 216 654 172 632 147 593 c 1
 133 569 127 548 124 508 c 1
 49 508 l 1
 54 572 61 602 79 637 c 1
 114 701 182 737 271 737 c 0
 342 737 396 715 432 670 c 0
 463 630 481 576 481 518 c 0xee
 481 454 461 406 419 375 c 1
 481 343 510 282 510 197 c 0
 510 73 435 -6 310 -18 c 1
 322 -26 331 -35 340 -48 c 0
 356 -72 365 -103 365 -133 c 0
 365 -187 326 -225 270 -225 c 0
 245 -225 220 -218 190 -203 c 1
 204 -163 l 1
 229 -175 240 -178 256 -178 c 0
 288 -178 303 -161 303 -124 c 0
 303 -79 289 -54 239 -17 c 1
 171 -10 123 18 85 71 c 0
 54 114 43 155 42 232 c 1
 117 232 l 1
 118 185 124 161 140 134 c 0
 167 89 216 64 282 64 c 0
 377 64 433 109 433 188 c 0
 433 257 398 331 303 331 c 2
 185 331 l 1
 185 402 l 1xf5
EndSplineSet
EndChar

StartChar: uni0499
Encoding: 531 1177 424
Width: 410
Flags: W
HStem: -225 47<187.5 202 178 228> 240 69<152 210 210 221 152 210> 461 77<166.5 225.5>
VStem: 24 70<168 168> 31 70<374 374> 233 62<-142.5 -118 -160 -100.5> 287 70<368.5 410> 306 72<118.5 163.5>
LayerCount: 2
Fore
SplineSet
210 309 m 2xf5
 276 309 287 350 287 387 c 0
 287 433 253 461 198 461 c 0
 135 461 104 433 101 374 c 1
 31 374 l 1
 37 479 95 538 193 538 c 0
 292 538 357 473 357 373 c 0xea
 357 330 343 297 315 274 c 1
 354 252 378 213 378 157 c 0
 378 63 323 -1 233 -13 c 1
 249 -22 259 -32 270 -48 c 0
 286 -72 295 -103 295 -133 c 0
 295 -187 256 -225 200 -225 c 0
 175 -225 150 -218 120 -203 c 1
 134 -163 l 1
 159 -175 170 -178 186 -178 c 0
 218 -178 233 -161 233 -124 c 0
 233 -77 218 -52 163 -12 c 1
 110 -4 69 22 47 64 c 0
 32 91 27 116 24 168 c 1
 94 168 l 1
 99 94 132 62 205 62 c 0
 268 62 306 93 306 144 c 0
 306 183 290 240 221 240 c 2
 152 240 l 1
 152 309 l 1
 210 309 l 2xf5
EndSplineSet
EndChar

StartChar: uni049A
Encoding: 532 1178 425
Width: 552
Flags: MW
HStem: -20 20G<61 141 61 61 440 463 440 440> 698 20G<61 141 141 141 427 537 537 537>
VStem: 61 80<0 350 0 428 428 718> 463 80<-120 0 0 0>
LayerCount: 2
Fore
SplineSet
476 86 m 1
 543 86 l 1
 543 -120 l 1
 463 -120 l 1
 463 0 l 1
 440 0 l 1
 168 350 l 1
 141 350 l 1
 141 0 l 1
 61 0 l 1
 61 718 l 1
 141 718 l 1
 141 428 l 1
 177 428 l 1
 427 718 l 1
 537 718 l 1
 248 382 l 1
 476 86 l 1
EndSplineSet
EndChar

StartChar: uni049B
Encoding: 533 1179 426
Width: 417
Flags: MW
HStem: -20 20G<53 122 53 53 316 340 316 316> 503 20G<53 123 123 123 308 399 399 399>
VStem: 53 69<0 209 0 523> 340 69<-125 0 0 0>
LayerCount: 2
Fore
SplineSet
350 66 m 1
 409 66 l 1
 409 -125 l 1
 340 -125 l 1
 340 0 l 1
 316 0 l 1
 122 209 l 1
 122 0 l 1
 53 0 l 1
 53 523 l 1
 123 523 l 1
 123 302 l 1
 308 523 l 1
 399 523 l 1
 174 262 l 1
 350 66 l 1
EndSplineSet
EndChar

StartChar: uni049C
Encoding: 534 1180 427
Width: 552
Flags: MW
HStem: 0 21G<61 141 61 61 440 440 440 543> 698 20G<61 141 141 141 427 537 537 537>
VStem: 61 80<0 350 0 428 428 718> 163 73<178 262 178 350 496 593>
LayerCount: 2
Fore
SplineSet
141 350 m 1
 141 0 l 1
 61 0 l 1
 61 718 l 1
 141 718 l 1
 141 428 l 1
 163 428 l 1
 163 593 l 1
 236 593 l 1
 236 496 l 1
 427 718 l 1
 537 718 l 1
 248 382 l 1
 543 0 l 1
 440 0 l 1
 236 262 l 1
 236 178 l 1
 163 178 l 1
 163 350 l 1
 141 350 l 1
EndSplineSet
EndChar

StartChar: uni049D
Encoding: 535 1181 428
Width: 417
Flags: MW
HStem: 0 21G<53 122 53 53 316 316 316 409> 503 20G<53 123 123 123 308 399 399 399>
VStem: 53 69<0 209 0 523> 153 53<45 119 45 176 401 460>
LayerCount: 2
Fore
SplineSet
206 119 m 1
 206 45 l 1
 153 45 l 1
 153 176 l 1
 122 209 l 1
 122 0 l 1
 53 0 l 1
 53 523 l 1
 123 523 l 1
 123 302 l 1
 153 338 l 1
 153 460 l 1
 206 460 l 1
 206 401 l 1
 308 523 l 1
 399 523 l 1
 206 299 l 1
 206 226 l 1
 409 0 l 1
 316 0 l 1
 206 119 l 1
EndSplineSet
EndChar

StartChar: uni049E
Encoding: 536 1182 429
Width: 598
Flags: MW
HStem: 0 21G<107 187 107 107 486 486 486 589> 586 73<12 107 12 107 187 283> 698 20G<107 187 187 187 473 583 583 583>
VStem: 107 80<0 350 0 428 428 586 659 718>
LayerCount: 2
Fore
SplineSet
187 350 m 1
 187 0 l 1
 107 0 l 1
 107 586 l 1
 12 586 l 1
 12 659 l 1
 107 659 l 1
 107 718 l 1
 187 718 l 1
 187 659 l 1
 283 659 l 1
 283 586 l 1
 187 586 l 1
 187 428 l 1
 223 428 l 1
 473 718 l 1
 583 718 l 1
 294 382 l 1
 589 0 l 1
 486 0 l 1
 214 350 l 1
 187 350 l 1
EndSplineSet
EndChar

StartChar: uni049F
Encoding: 537 1183 430
Width: 427
Flags: MW
HStem: 0 21G<63 132 63 63 326 419 326 326> 410 63<12 63 12 63 133 187> 503 20G<63 133 133 133 318 409 409 409>
VStem: 63 69<0 209 0 410>
LayerCount: 2
Fore
SplineSet
184 262 m 1
 419 0 l 1
 326 0 l 1
 132 209 l 1
 132 0 l 1
 63 0 l 1
 63 410 l 1
 12 410 l 1
 12 473 l 1
 63 473 l 1
 63 523 l 1
 133 523 l 1
 133 473 l 1
 187 473 l 1
 187 410 l 1
 133 410 l 1
 133 302 l 1
 318 523 l 1
 409 523 l 1
 184 262 l 1
EndSplineSet
EndChar

StartChar: uni04A0
Encoding: 538 1184 431
Width: 726
Flags: MW
HStem: 0 21G<233 233 233 313 612 612 612 715> 631 87<12 233 12 313>
VStem: 233 80<0 350 428 631 631 631>
LayerCount: 2
Fore
SplineSet
233 0 m 1
 233 631 l 1
 12 631 l 1
 12 718 l 1
 313 718 l 1
 313 428 l 1
 349 428 l 1
 599 718 l 1
 709 718 l 1
 420 382 l 1
 715 0 l 1
 612 0 l 1
 340 350 l 1
 313 350 l 1
 313 0 l 1
 233 0 l 1
EndSplineSet
EndChar

StartChar: uni04A1
Encoding: 539 1185 432
Width: 495
Flags: MW
HStem: 0 21G<131 200 131 131 394 487 394 394> 454 69<17 131 17 201>
VStem: 131 69<0 209 0 454>
LayerCount: 2
Fore
SplineSet
252 262 m 1
 487 0 l 1
 394 0 l 1
 200 209 l 1
 200 0 l 1
 131 0 l 1
 131 454 l 1
 17 454 l 1
 17 523 l 1
 201 523 l 1
 201 302 l 1
 386 523 l 1
 477 523 l 1
 252 262 l 1
EndSplineSet
EndChar

StartChar: uni04A2
Encoding: 540 1186 433
Width: 595
Flags: W
HStem: -20 20G<61 141 61 61 448 519 448 448> 334 87<141 448 141 448> 698 20G<61 141 141 141 448 528 528 528>
VStem: 61 80<0 334 421 718> 448 80<86 86 86 334 334 334 421 718> 519 80<-120 0 0 0>
LayerCount: 2
Fore
SplineSet
528 86 m 1xf8
 599 86 l 1
 599 -120 l 1
 519 -120 l 1
 519 0 l 1xf4
 448 0 l 1
 448 334 l 1
 141 334 l 1
 141 0 l 1
 61 0 l 1
 61 718 l 1
 141 718 l 1
 141 421 l 1
 448 421 l 1
 448 718 l 1
 528 718 l 1
 528 86 l 1xf8
EndSplineSet
EndChar

StartChar: uni04A3
Encoding: 541 1187 434
Width: 455
Flags: W
HStem: -20 20G<53 125 53 53 331 386 331 331> 247 70<125 331 125 331> 503 20G<53 125 125 125 331 403 403 403>
VStem: 53 72<0 247 0 317 317 523> 331 72<66 66 66 247 247 247 317 523> 386 69<-125 0 0 0>
LayerCount: 2
Fore
SplineSet
403 66 m 1xf8
 455 66 l 1
 455 -125 l 1
 386 -125 l 1
 386 0 l 1xf4
 331 0 l 1
 331 247 l 1
 125 247 l 1
 125 0 l 1
 53 0 l 1
 53 523 l 1
 125 523 l 1
 125 317 l 1
 331 317 l 1
 331 523 l 1
 403 523 l 1
 403 66 l 1xf8
EndSplineSet
EndChar

StartChar: uni04A4
Encoding: 542 1188 435
Width: 842
Flags: MW
HStem: 0 21G<61 141 61 61 448 528 448 448> 334 87<141 448 141 448> 631 87<528 821 528 528>
VStem: 61 80<0 334 421 718> 448 80<0 334 334 334 421 631 0 718>
LayerCount: 2
Fore
SplineSet
448 421 m 1
 448 718 l 1
 821 718 l 1
 821 631 l 1
 528 631 l 1
 528 0 l 1
 448 0 l 1
 448 334 l 1
 141 334 l 1
 141 0 l 1
 61 0 l 1
 61 718 l 1
 141 718 l 1
 141 421 l 1
 448 421 l 1
EndSplineSet
EndChar

StartChar: uni04A5
Encoding: 543 1189 436
Width: 613
Flags: MW
HStem: 0 21G<53 125 53 53 331 403 331 331> 247 70<125 331 125 331> 450 73<403 403 403 592>
VStem: 53 72<0 247 0 317 317 523> 331 72<0 247 247 247 317 450 0 523>
LayerCount: 2
Fore
SplineSet
403 450 m 1
 403 0 l 1
 331 0 l 1
 331 247 l 1
 125 247 l 1
 125 0 l 1
 53 0 l 1
 53 523 l 1
 125 523 l 1
 125 317 l 1
 331 317 l 1
 331 523 l 1
 592 523 l 1
 592 450 l 1
 403 450 l 1
EndSplineSet
EndChar

StartChar: uni04A6
Encoding: 544 1190 437
Width: 927
Flags: MW
HStem: -131 82<654 679.5 654 694.5> 0 21G<61 141 61 61 448 527 448 448 865 865> 381 82<628.5 679.5> 631 87<141 448 141 141>
VStem: 61 80<0 631 0 718> 448 80<428 428 428 631 631 631> 785 80<8 324 324 332>
LayerCount: 2
Fore
SplineSet
528 428 m 1
 541 444 603 463 654 463 c 0
 735 463 865 431 865 332 c 2
 865 0 l 2
 865 -99 735 -131 654 -131 c 1
 654 -49 l 1
 705 -49 785 -35 785 8 c 2
 785 324 l 2
 785 367 705 381 654 381 c 0
 596 381 527 361 527 331 c 2
 527 0 l 1
 448 0 l 1
 448 631 l 1
 141 631 l 1
 141 0 l 1
 61 0 l 1
 61 718 l 1
 528 718 l 1
 528 428 l 1
EndSplineSet
EndChar

StartChar: uni04A7
Encoding: 545 1191 438
Width: 687
Flags: MW
HStem: -184 82<470 495.5 470 510.5> 0 21G<53 125 53 53 331 403 331 331> 258 82<458.5 505.5> 454 69<125 331 125 125>
VStem: 53 72<0 454 0 523 0 523> 331 72<0 208 317 454 454 454> 561 80<-45 201 201 209>
LayerCount: 2
Fore
SplineSet
403 317 m 1
 424 330 437 340 480 340 c 0
 561 340 641 308 641 209 c 2
 641 -53 l 2
 641 -152 551 -184 470 -184 c 1
 470 -102 l 1
 521 -102 561 -88 561 -45 c 2
 561 201 l 2
 561 244 531 258 480 258 c 0
 422 258 403 238 403 208 c 2
 403 0 l 1
 331 0 l 1
 331 454 l 1
 125 454 l 1
 125 0 l 1
 53 0 l 1
 53 523 l 1
 403 523 l 1
 403 317 l 1
EndSplineSet
EndChar
